G04 #@! TF.GenerationSoftware,KiCad,Pcbnew,(5.1.4)-1*
G04 #@! TF.CreationDate,2021-03-30T21:44:34+02:00*
G04 #@! TF.ProjectId,padadapters,70616461-6461-4707-9465-72732e6b6963,rev?*
G04 #@! TF.SameCoordinates,Original*
G04 #@! TF.FileFunction,Copper,L2,Bot*
G04 #@! TF.FilePolarity,Positive*
%FSLAX46Y46*%
G04 Gerber Fmt 4.6, Leading zero omitted, Abs format (unit mm)*
G04 Created by KiCad (PCBNEW (5.1.4)-1) date 2021-03-30 21:44:34*
%MOMM*%
%LPD*%
G04 APERTURE LIST*
%ADD10C,0.250000*%
%ADD11C,0.300000*%
%ADD12C,0.800000*%
%ADD13C,0.400000*%
%ADD14C,0.200000*%
G04 APERTURE END LIST*
D10*
G36*
X160422941Y-79300144D02*
G01*
X160425853Y-79300576D01*
X160428709Y-79301292D01*
X160431481Y-79302284D01*
X160434142Y-79303542D01*
X160436667Y-79305056D01*
X160439032Y-79306810D01*
X160441213Y-79308787D01*
X160443190Y-79310968D01*
X160444944Y-79313333D01*
X160446458Y-79315858D01*
X160447716Y-79318519D01*
X160448708Y-79321291D01*
X160449424Y-79324147D01*
X160449856Y-79327059D01*
X160450000Y-79330000D01*
X160450000Y-80670000D01*
X160449856Y-80672941D01*
X160449424Y-80675853D01*
X160448708Y-80678709D01*
X160447716Y-80681481D01*
X160446458Y-80684142D01*
X160444944Y-80686667D01*
X160443190Y-80689032D01*
X160441213Y-80691213D01*
X160439032Y-80693190D01*
X160436667Y-80694944D01*
X160434142Y-80696458D01*
X160431481Y-80697716D01*
X160428709Y-80698708D01*
X160425853Y-80699424D01*
X160422941Y-80699856D01*
X160420000Y-80700000D01*
X160180000Y-80700000D01*
X160177059Y-80699856D01*
X160174147Y-80699424D01*
X160171291Y-80698708D01*
X160168519Y-80697716D01*
X160165858Y-80696458D01*
X160163333Y-80694944D01*
X160160968Y-80693190D01*
X160158787Y-80691213D01*
X160156810Y-80689032D01*
X160155056Y-80686667D01*
X160153542Y-80684142D01*
X160152284Y-80681481D01*
X160151292Y-80678709D01*
X160150576Y-80675853D01*
X160150144Y-80672941D01*
X160150000Y-80670000D01*
X160150000Y-79330000D01*
X160150144Y-79327059D01*
X160150576Y-79324147D01*
X160151292Y-79321291D01*
X160152284Y-79318519D01*
X160153542Y-79315858D01*
X160155056Y-79313333D01*
X160156810Y-79310968D01*
X160158787Y-79308787D01*
X160160968Y-79306810D01*
X160163333Y-79305056D01*
X160165858Y-79303542D01*
X160168519Y-79302284D01*
X160171291Y-79301292D01*
X160174147Y-79300576D01*
X160177059Y-79300144D01*
X160180000Y-79300000D01*
X160420000Y-79300000D01*
X160422941Y-79300144D01*
X160422941Y-79300144D01*
G37*
D11*
X160300000Y-80000000D03*
D10*
G36*
X160922941Y-79300144D02*
G01*
X160925853Y-79300576D01*
X160928709Y-79301292D01*
X160931481Y-79302284D01*
X160934142Y-79303542D01*
X160936667Y-79305056D01*
X160939032Y-79306810D01*
X160941213Y-79308787D01*
X160943190Y-79310968D01*
X160944944Y-79313333D01*
X160946458Y-79315858D01*
X160947716Y-79318519D01*
X160948708Y-79321291D01*
X160949424Y-79324147D01*
X160949856Y-79327059D01*
X160950000Y-79330000D01*
X160950000Y-80670000D01*
X160949856Y-80672941D01*
X160949424Y-80675853D01*
X160948708Y-80678709D01*
X160947716Y-80681481D01*
X160946458Y-80684142D01*
X160944944Y-80686667D01*
X160943190Y-80689032D01*
X160941213Y-80691213D01*
X160939032Y-80693190D01*
X160936667Y-80694944D01*
X160934142Y-80696458D01*
X160931481Y-80697716D01*
X160928709Y-80698708D01*
X160925853Y-80699424D01*
X160922941Y-80699856D01*
X160920000Y-80700000D01*
X160680000Y-80700000D01*
X160677059Y-80699856D01*
X160674147Y-80699424D01*
X160671291Y-80698708D01*
X160668519Y-80697716D01*
X160665858Y-80696458D01*
X160663333Y-80694944D01*
X160660968Y-80693190D01*
X160658787Y-80691213D01*
X160656810Y-80689032D01*
X160655056Y-80686667D01*
X160653542Y-80684142D01*
X160652284Y-80681481D01*
X160651292Y-80678709D01*
X160650576Y-80675853D01*
X160650144Y-80672941D01*
X160650000Y-80670000D01*
X160650000Y-79330000D01*
X160650144Y-79327059D01*
X160650576Y-79324147D01*
X160651292Y-79321291D01*
X160652284Y-79318519D01*
X160653542Y-79315858D01*
X160655056Y-79313333D01*
X160656810Y-79310968D01*
X160658787Y-79308787D01*
X160660968Y-79306810D01*
X160663333Y-79305056D01*
X160665858Y-79303542D01*
X160668519Y-79302284D01*
X160671291Y-79301292D01*
X160674147Y-79300576D01*
X160677059Y-79300144D01*
X160680000Y-79300000D01*
X160920000Y-79300000D01*
X160922941Y-79300144D01*
X160922941Y-79300144D01*
G37*
D11*
X160800000Y-80000000D03*
D10*
G36*
X161422941Y-79300144D02*
G01*
X161425853Y-79300576D01*
X161428709Y-79301292D01*
X161431481Y-79302284D01*
X161434142Y-79303542D01*
X161436667Y-79305056D01*
X161439032Y-79306810D01*
X161441213Y-79308787D01*
X161443190Y-79310968D01*
X161444944Y-79313333D01*
X161446458Y-79315858D01*
X161447716Y-79318519D01*
X161448708Y-79321291D01*
X161449424Y-79324147D01*
X161449856Y-79327059D01*
X161450000Y-79330000D01*
X161450000Y-80670000D01*
X161449856Y-80672941D01*
X161449424Y-80675853D01*
X161448708Y-80678709D01*
X161447716Y-80681481D01*
X161446458Y-80684142D01*
X161444944Y-80686667D01*
X161443190Y-80689032D01*
X161441213Y-80691213D01*
X161439032Y-80693190D01*
X161436667Y-80694944D01*
X161434142Y-80696458D01*
X161431481Y-80697716D01*
X161428709Y-80698708D01*
X161425853Y-80699424D01*
X161422941Y-80699856D01*
X161420000Y-80700000D01*
X161180000Y-80700000D01*
X161177059Y-80699856D01*
X161174147Y-80699424D01*
X161171291Y-80698708D01*
X161168519Y-80697716D01*
X161165858Y-80696458D01*
X161163333Y-80694944D01*
X161160968Y-80693190D01*
X161158787Y-80691213D01*
X161156810Y-80689032D01*
X161155056Y-80686667D01*
X161153542Y-80684142D01*
X161152284Y-80681481D01*
X161151292Y-80678709D01*
X161150576Y-80675853D01*
X161150144Y-80672941D01*
X161150000Y-80670000D01*
X161150000Y-79330000D01*
X161150144Y-79327059D01*
X161150576Y-79324147D01*
X161151292Y-79321291D01*
X161152284Y-79318519D01*
X161153542Y-79315858D01*
X161155056Y-79313333D01*
X161156810Y-79310968D01*
X161158787Y-79308787D01*
X161160968Y-79306810D01*
X161163333Y-79305056D01*
X161165858Y-79303542D01*
X161168519Y-79302284D01*
X161171291Y-79301292D01*
X161174147Y-79300576D01*
X161177059Y-79300144D01*
X161180000Y-79300000D01*
X161420000Y-79300000D01*
X161422941Y-79300144D01*
X161422941Y-79300144D01*
G37*
D11*
X161300000Y-80000000D03*
D10*
G36*
X161922941Y-79300144D02*
G01*
X161925853Y-79300576D01*
X161928709Y-79301292D01*
X161931481Y-79302284D01*
X161934142Y-79303542D01*
X161936667Y-79305056D01*
X161939032Y-79306810D01*
X161941213Y-79308787D01*
X161943190Y-79310968D01*
X161944944Y-79313333D01*
X161946458Y-79315858D01*
X161947716Y-79318519D01*
X161948708Y-79321291D01*
X161949424Y-79324147D01*
X161949856Y-79327059D01*
X161950000Y-79330000D01*
X161950000Y-80670000D01*
X161949856Y-80672941D01*
X161949424Y-80675853D01*
X161948708Y-80678709D01*
X161947716Y-80681481D01*
X161946458Y-80684142D01*
X161944944Y-80686667D01*
X161943190Y-80689032D01*
X161941213Y-80691213D01*
X161939032Y-80693190D01*
X161936667Y-80694944D01*
X161934142Y-80696458D01*
X161931481Y-80697716D01*
X161928709Y-80698708D01*
X161925853Y-80699424D01*
X161922941Y-80699856D01*
X161920000Y-80700000D01*
X161680000Y-80700000D01*
X161677059Y-80699856D01*
X161674147Y-80699424D01*
X161671291Y-80698708D01*
X161668519Y-80697716D01*
X161665858Y-80696458D01*
X161663333Y-80694944D01*
X161660968Y-80693190D01*
X161658787Y-80691213D01*
X161656810Y-80689032D01*
X161655056Y-80686667D01*
X161653542Y-80684142D01*
X161652284Y-80681481D01*
X161651292Y-80678709D01*
X161650576Y-80675853D01*
X161650144Y-80672941D01*
X161650000Y-80670000D01*
X161650000Y-79330000D01*
X161650144Y-79327059D01*
X161650576Y-79324147D01*
X161651292Y-79321291D01*
X161652284Y-79318519D01*
X161653542Y-79315858D01*
X161655056Y-79313333D01*
X161656810Y-79310968D01*
X161658787Y-79308787D01*
X161660968Y-79306810D01*
X161663333Y-79305056D01*
X161665858Y-79303542D01*
X161668519Y-79302284D01*
X161671291Y-79301292D01*
X161674147Y-79300576D01*
X161677059Y-79300144D01*
X161680000Y-79300000D01*
X161920000Y-79300000D01*
X161922941Y-79300144D01*
X161922941Y-79300144D01*
G37*
D11*
X161800000Y-80000000D03*
D10*
G36*
X162422941Y-79300144D02*
G01*
X162425853Y-79300576D01*
X162428709Y-79301292D01*
X162431481Y-79302284D01*
X162434142Y-79303542D01*
X162436667Y-79305056D01*
X162439032Y-79306810D01*
X162441213Y-79308787D01*
X162443190Y-79310968D01*
X162444944Y-79313333D01*
X162446458Y-79315858D01*
X162447716Y-79318519D01*
X162448708Y-79321291D01*
X162449424Y-79324147D01*
X162449856Y-79327059D01*
X162450000Y-79330000D01*
X162450000Y-80670000D01*
X162449856Y-80672941D01*
X162449424Y-80675853D01*
X162448708Y-80678709D01*
X162447716Y-80681481D01*
X162446458Y-80684142D01*
X162444944Y-80686667D01*
X162443190Y-80689032D01*
X162441213Y-80691213D01*
X162439032Y-80693190D01*
X162436667Y-80694944D01*
X162434142Y-80696458D01*
X162431481Y-80697716D01*
X162428709Y-80698708D01*
X162425853Y-80699424D01*
X162422941Y-80699856D01*
X162420000Y-80700000D01*
X162180000Y-80700000D01*
X162177059Y-80699856D01*
X162174147Y-80699424D01*
X162171291Y-80698708D01*
X162168519Y-80697716D01*
X162165858Y-80696458D01*
X162163333Y-80694944D01*
X162160968Y-80693190D01*
X162158787Y-80691213D01*
X162156810Y-80689032D01*
X162155056Y-80686667D01*
X162153542Y-80684142D01*
X162152284Y-80681481D01*
X162151292Y-80678709D01*
X162150576Y-80675853D01*
X162150144Y-80672941D01*
X162150000Y-80670000D01*
X162150000Y-79330000D01*
X162150144Y-79327059D01*
X162150576Y-79324147D01*
X162151292Y-79321291D01*
X162152284Y-79318519D01*
X162153542Y-79315858D01*
X162155056Y-79313333D01*
X162156810Y-79310968D01*
X162158787Y-79308787D01*
X162160968Y-79306810D01*
X162163333Y-79305056D01*
X162165858Y-79303542D01*
X162168519Y-79302284D01*
X162171291Y-79301292D01*
X162174147Y-79300576D01*
X162177059Y-79300144D01*
X162180000Y-79300000D01*
X162420000Y-79300000D01*
X162422941Y-79300144D01*
X162422941Y-79300144D01*
G37*
D11*
X162300000Y-80000000D03*
D10*
G36*
X162422941Y-82800144D02*
G01*
X162425853Y-82800576D01*
X162428709Y-82801292D01*
X162431481Y-82802284D01*
X162434142Y-82803542D01*
X162436667Y-82805056D01*
X162439032Y-82806810D01*
X162441213Y-82808787D01*
X162443190Y-82810968D01*
X162444944Y-82813333D01*
X162446458Y-82815858D01*
X162447716Y-82818519D01*
X162448708Y-82821291D01*
X162449424Y-82824147D01*
X162449856Y-82827059D01*
X162450000Y-82830000D01*
X162450000Y-84170000D01*
X162449856Y-84172941D01*
X162449424Y-84175853D01*
X162448708Y-84178709D01*
X162447716Y-84181481D01*
X162446458Y-84184142D01*
X162444944Y-84186667D01*
X162443190Y-84189032D01*
X162441213Y-84191213D01*
X162439032Y-84193190D01*
X162436667Y-84194944D01*
X162434142Y-84196458D01*
X162431481Y-84197716D01*
X162428709Y-84198708D01*
X162425853Y-84199424D01*
X162422941Y-84199856D01*
X162420000Y-84200000D01*
X162180000Y-84200000D01*
X162177059Y-84199856D01*
X162174147Y-84199424D01*
X162171291Y-84198708D01*
X162168519Y-84197716D01*
X162165858Y-84196458D01*
X162163333Y-84194944D01*
X162160968Y-84193190D01*
X162158787Y-84191213D01*
X162156810Y-84189032D01*
X162155056Y-84186667D01*
X162153542Y-84184142D01*
X162152284Y-84181481D01*
X162151292Y-84178709D01*
X162150576Y-84175853D01*
X162150144Y-84172941D01*
X162150000Y-84170000D01*
X162150000Y-82830000D01*
X162150144Y-82827059D01*
X162150576Y-82824147D01*
X162151292Y-82821291D01*
X162152284Y-82818519D01*
X162153542Y-82815858D01*
X162155056Y-82813333D01*
X162156810Y-82810968D01*
X162158787Y-82808787D01*
X162160968Y-82806810D01*
X162163333Y-82805056D01*
X162165858Y-82803542D01*
X162168519Y-82802284D01*
X162171291Y-82801292D01*
X162174147Y-82800576D01*
X162177059Y-82800144D01*
X162180000Y-82800000D01*
X162420000Y-82800000D01*
X162422941Y-82800144D01*
X162422941Y-82800144D01*
G37*
D11*
X162300000Y-83500000D03*
D10*
G36*
X161922941Y-82800144D02*
G01*
X161925853Y-82800576D01*
X161928709Y-82801292D01*
X161931481Y-82802284D01*
X161934142Y-82803542D01*
X161936667Y-82805056D01*
X161939032Y-82806810D01*
X161941213Y-82808787D01*
X161943190Y-82810968D01*
X161944944Y-82813333D01*
X161946458Y-82815858D01*
X161947716Y-82818519D01*
X161948708Y-82821291D01*
X161949424Y-82824147D01*
X161949856Y-82827059D01*
X161950000Y-82830000D01*
X161950000Y-84170000D01*
X161949856Y-84172941D01*
X161949424Y-84175853D01*
X161948708Y-84178709D01*
X161947716Y-84181481D01*
X161946458Y-84184142D01*
X161944944Y-84186667D01*
X161943190Y-84189032D01*
X161941213Y-84191213D01*
X161939032Y-84193190D01*
X161936667Y-84194944D01*
X161934142Y-84196458D01*
X161931481Y-84197716D01*
X161928709Y-84198708D01*
X161925853Y-84199424D01*
X161922941Y-84199856D01*
X161920000Y-84200000D01*
X161680000Y-84200000D01*
X161677059Y-84199856D01*
X161674147Y-84199424D01*
X161671291Y-84198708D01*
X161668519Y-84197716D01*
X161665858Y-84196458D01*
X161663333Y-84194944D01*
X161660968Y-84193190D01*
X161658787Y-84191213D01*
X161656810Y-84189032D01*
X161655056Y-84186667D01*
X161653542Y-84184142D01*
X161652284Y-84181481D01*
X161651292Y-84178709D01*
X161650576Y-84175853D01*
X161650144Y-84172941D01*
X161650000Y-84170000D01*
X161650000Y-82830000D01*
X161650144Y-82827059D01*
X161650576Y-82824147D01*
X161651292Y-82821291D01*
X161652284Y-82818519D01*
X161653542Y-82815858D01*
X161655056Y-82813333D01*
X161656810Y-82810968D01*
X161658787Y-82808787D01*
X161660968Y-82806810D01*
X161663333Y-82805056D01*
X161665858Y-82803542D01*
X161668519Y-82802284D01*
X161671291Y-82801292D01*
X161674147Y-82800576D01*
X161677059Y-82800144D01*
X161680000Y-82800000D01*
X161920000Y-82800000D01*
X161922941Y-82800144D01*
X161922941Y-82800144D01*
G37*
D11*
X161800000Y-83500000D03*
D10*
G36*
X161422941Y-82800144D02*
G01*
X161425853Y-82800576D01*
X161428709Y-82801292D01*
X161431481Y-82802284D01*
X161434142Y-82803542D01*
X161436667Y-82805056D01*
X161439032Y-82806810D01*
X161441213Y-82808787D01*
X161443190Y-82810968D01*
X161444944Y-82813333D01*
X161446458Y-82815858D01*
X161447716Y-82818519D01*
X161448708Y-82821291D01*
X161449424Y-82824147D01*
X161449856Y-82827059D01*
X161450000Y-82830000D01*
X161450000Y-84170000D01*
X161449856Y-84172941D01*
X161449424Y-84175853D01*
X161448708Y-84178709D01*
X161447716Y-84181481D01*
X161446458Y-84184142D01*
X161444944Y-84186667D01*
X161443190Y-84189032D01*
X161441213Y-84191213D01*
X161439032Y-84193190D01*
X161436667Y-84194944D01*
X161434142Y-84196458D01*
X161431481Y-84197716D01*
X161428709Y-84198708D01*
X161425853Y-84199424D01*
X161422941Y-84199856D01*
X161420000Y-84200000D01*
X161180000Y-84200000D01*
X161177059Y-84199856D01*
X161174147Y-84199424D01*
X161171291Y-84198708D01*
X161168519Y-84197716D01*
X161165858Y-84196458D01*
X161163333Y-84194944D01*
X161160968Y-84193190D01*
X161158787Y-84191213D01*
X161156810Y-84189032D01*
X161155056Y-84186667D01*
X161153542Y-84184142D01*
X161152284Y-84181481D01*
X161151292Y-84178709D01*
X161150576Y-84175853D01*
X161150144Y-84172941D01*
X161150000Y-84170000D01*
X161150000Y-82830000D01*
X161150144Y-82827059D01*
X161150576Y-82824147D01*
X161151292Y-82821291D01*
X161152284Y-82818519D01*
X161153542Y-82815858D01*
X161155056Y-82813333D01*
X161156810Y-82810968D01*
X161158787Y-82808787D01*
X161160968Y-82806810D01*
X161163333Y-82805056D01*
X161165858Y-82803542D01*
X161168519Y-82802284D01*
X161171291Y-82801292D01*
X161174147Y-82800576D01*
X161177059Y-82800144D01*
X161180000Y-82800000D01*
X161420000Y-82800000D01*
X161422941Y-82800144D01*
X161422941Y-82800144D01*
G37*
D11*
X161300000Y-83500000D03*
D10*
G36*
X160922941Y-82800144D02*
G01*
X160925853Y-82800576D01*
X160928709Y-82801292D01*
X160931481Y-82802284D01*
X160934142Y-82803542D01*
X160936667Y-82805056D01*
X160939032Y-82806810D01*
X160941213Y-82808787D01*
X160943190Y-82810968D01*
X160944944Y-82813333D01*
X160946458Y-82815858D01*
X160947716Y-82818519D01*
X160948708Y-82821291D01*
X160949424Y-82824147D01*
X160949856Y-82827059D01*
X160950000Y-82830000D01*
X160950000Y-84170000D01*
X160949856Y-84172941D01*
X160949424Y-84175853D01*
X160948708Y-84178709D01*
X160947716Y-84181481D01*
X160946458Y-84184142D01*
X160944944Y-84186667D01*
X160943190Y-84189032D01*
X160941213Y-84191213D01*
X160939032Y-84193190D01*
X160936667Y-84194944D01*
X160934142Y-84196458D01*
X160931481Y-84197716D01*
X160928709Y-84198708D01*
X160925853Y-84199424D01*
X160922941Y-84199856D01*
X160920000Y-84200000D01*
X160680000Y-84200000D01*
X160677059Y-84199856D01*
X160674147Y-84199424D01*
X160671291Y-84198708D01*
X160668519Y-84197716D01*
X160665858Y-84196458D01*
X160663333Y-84194944D01*
X160660968Y-84193190D01*
X160658787Y-84191213D01*
X160656810Y-84189032D01*
X160655056Y-84186667D01*
X160653542Y-84184142D01*
X160652284Y-84181481D01*
X160651292Y-84178709D01*
X160650576Y-84175853D01*
X160650144Y-84172941D01*
X160650000Y-84170000D01*
X160650000Y-82830000D01*
X160650144Y-82827059D01*
X160650576Y-82824147D01*
X160651292Y-82821291D01*
X160652284Y-82818519D01*
X160653542Y-82815858D01*
X160655056Y-82813333D01*
X160656810Y-82810968D01*
X160658787Y-82808787D01*
X160660968Y-82806810D01*
X160663333Y-82805056D01*
X160665858Y-82803542D01*
X160668519Y-82802284D01*
X160671291Y-82801292D01*
X160674147Y-82800576D01*
X160677059Y-82800144D01*
X160680000Y-82800000D01*
X160920000Y-82800000D01*
X160922941Y-82800144D01*
X160922941Y-82800144D01*
G37*
D11*
X160800000Y-83500000D03*
D10*
G36*
X160422941Y-82800144D02*
G01*
X160425853Y-82800576D01*
X160428709Y-82801292D01*
X160431481Y-82802284D01*
X160434142Y-82803542D01*
X160436667Y-82805056D01*
X160439032Y-82806810D01*
X160441213Y-82808787D01*
X160443190Y-82810968D01*
X160444944Y-82813333D01*
X160446458Y-82815858D01*
X160447716Y-82818519D01*
X160448708Y-82821291D01*
X160449424Y-82824147D01*
X160449856Y-82827059D01*
X160450000Y-82830000D01*
X160450000Y-84170000D01*
X160449856Y-84172941D01*
X160449424Y-84175853D01*
X160448708Y-84178709D01*
X160447716Y-84181481D01*
X160446458Y-84184142D01*
X160444944Y-84186667D01*
X160443190Y-84189032D01*
X160441213Y-84191213D01*
X160439032Y-84193190D01*
X160436667Y-84194944D01*
X160434142Y-84196458D01*
X160431481Y-84197716D01*
X160428709Y-84198708D01*
X160425853Y-84199424D01*
X160422941Y-84199856D01*
X160420000Y-84200000D01*
X160180000Y-84200000D01*
X160177059Y-84199856D01*
X160174147Y-84199424D01*
X160171291Y-84198708D01*
X160168519Y-84197716D01*
X160165858Y-84196458D01*
X160163333Y-84194944D01*
X160160968Y-84193190D01*
X160158787Y-84191213D01*
X160156810Y-84189032D01*
X160155056Y-84186667D01*
X160153542Y-84184142D01*
X160152284Y-84181481D01*
X160151292Y-84178709D01*
X160150576Y-84175853D01*
X160150144Y-84172941D01*
X160150000Y-84170000D01*
X160150000Y-82830000D01*
X160150144Y-82827059D01*
X160150576Y-82824147D01*
X160151292Y-82821291D01*
X160152284Y-82818519D01*
X160153542Y-82815858D01*
X160155056Y-82813333D01*
X160156810Y-82810968D01*
X160158787Y-82808787D01*
X160160968Y-82806810D01*
X160163333Y-82805056D01*
X160165858Y-82803542D01*
X160168519Y-82802284D01*
X160171291Y-82801292D01*
X160174147Y-82800576D01*
X160177059Y-82800144D01*
X160180000Y-82800000D01*
X160420000Y-82800000D01*
X160422941Y-82800144D01*
X160422941Y-82800144D01*
G37*
D11*
X160300000Y-83500000D03*
D10*
G36*
X158877841Y-80850385D02*
G01*
X158885607Y-80851537D01*
X158893223Y-80853445D01*
X158900615Y-80856090D01*
X158907712Y-80859446D01*
X158914446Y-80863482D01*
X158920751Y-80868159D01*
X158926569Y-80873431D01*
X158931841Y-80879249D01*
X158936518Y-80885554D01*
X158940554Y-80892288D01*
X158943910Y-80899385D01*
X158946555Y-80906777D01*
X158948463Y-80914393D01*
X158949615Y-80922159D01*
X158950000Y-80930000D01*
X158950000Y-82570000D01*
X158949615Y-82577841D01*
X158948463Y-82585607D01*
X158946555Y-82593223D01*
X158943910Y-82600615D01*
X158940554Y-82607712D01*
X158936518Y-82614446D01*
X158931841Y-82620751D01*
X158926569Y-82626569D01*
X158920751Y-82631841D01*
X158914446Y-82636518D01*
X158907712Y-82640554D01*
X158900615Y-82643910D01*
X158893223Y-82646555D01*
X158885607Y-82648463D01*
X158877841Y-82649615D01*
X158870000Y-82650000D01*
X158230000Y-82650000D01*
X158222159Y-82649615D01*
X158214393Y-82648463D01*
X158206777Y-82646555D01*
X158199385Y-82643910D01*
X158192288Y-82640554D01*
X158185554Y-82636518D01*
X158179249Y-82631841D01*
X158173431Y-82626569D01*
X158168159Y-82620751D01*
X158163482Y-82614446D01*
X158159446Y-82607712D01*
X158156090Y-82600615D01*
X158153445Y-82593223D01*
X158151537Y-82585607D01*
X158150385Y-82577841D01*
X158150000Y-82570000D01*
X158150000Y-80930000D01*
X158150385Y-80922159D01*
X158151537Y-80914393D01*
X158153445Y-80906777D01*
X158156090Y-80899385D01*
X158159446Y-80892288D01*
X158163482Y-80885554D01*
X158168159Y-80879249D01*
X158173431Y-80873431D01*
X158179249Y-80868159D01*
X158185554Y-80863482D01*
X158192288Y-80859446D01*
X158199385Y-80856090D01*
X158206777Y-80853445D01*
X158214393Y-80851537D01*
X158222159Y-80850385D01*
X158230000Y-80850000D01*
X158870000Y-80850000D01*
X158877841Y-80850385D01*
X158877841Y-80850385D01*
G37*
D12*
X158550000Y-81750000D03*
D10*
G36*
X164377841Y-80850385D02*
G01*
X164385607Y-80851537D01*
X164393223Y-80853445D01*
X164400615Y-80856090D01*
X164407712Y-80859446D01*
X164414446Y-80863482D01*
X164420751Y-80868159D01*
X164426569Y-80873431D01*
X164431841Y-80879249D01*
X164436518Y-80885554D01*
X164440554Y-80892288D01*
X164443910Y-80899385D01*
X164446555Y-80906777D01*
X164448463Y-80914393D01*
X164449615Y-80922159D01*
X164450000Y-80930000D01*
X164450000Y-82570000D01*
X164449615Y-82577841D01*
X164448463Y-82585607D01*
X164446555Y-82593223D01*
X164443910Y-82600615D01*
X164440554Y-82607712D01*
X164436518Y-82614446D01*
X164431841Y-82620751D01*
X164426569Y-82626569D01*
X164420751Y-82631841D01*
X164414446Y-82636518D01*
X164407712Y-82640554D01*
X164400615Y-82643910D01*
X164393223Y-82646555D01*
X164385607Y-82648463D01*
X164377841Y-82649615D01*
X164370000Y-82650000D01*
X163730000Y-82650000D01*
X163722159Y-82649615D01*
X163714393Y-82648463D01*
X163706777Y-82646555D01*
X163699385Y-82643910D01*
X163692288Y-82640554D01*
X163685554Y-82636518D01*
X163679249Y-82631841D01*
X163673431Y-82626569D01*
X163668159Y-82620751D01*
X163663482Y-82614446D01*
X163659446Y-82607712D01*
X163656090Y-82600615D01*
X163653445Y-82593223D01*
X163651537Y-82585607D01*
X163650385Y-82577841D01*
X163650000Y-82570000D01*
X163650000Y-80930000D01*
X163650385Y-80922159D01*
X163651537Y-80914393D01*
X163653445Y-80906777D01*
X163656090Y-80899385D01*
X163659446Y-80892288D01*
X163663482Y-80885554D01*
X163668159Y-80879249D01*
X163673431Y-80873431D01*
X163679249Y-80868159D01*
X163685554Y-80863482D01*
X163692288Y-80859446D01*
X163699385Y-80856090D01*
X163706777Y-80853445D01*
X163714393Y-80851537D01*
X163722159Y-80850385D01*
X163730000Y-80850000D01*
X164370000Y-80850000D01*
X164377841Y-80850385D01*
X164377841Y-80850385D01*
G37*
D12*
X164050000Y-81750000D03*
D13*
X162350000Y-81550000D03*
X161650003Y-80949997D03*
X163300000Y-81650000D03*
X159708465Y-80761905D03*
X159600000Y-81250000D03*
X159803070Y-81706908D03*
D14*
X162067158Y-81550000D02*
X162350000Y-81550000D01*
X162300000Y-81600000D02*
X162350000Y-81550000D01*
X162300000Y-83500000D02*
X162300000Y-81600000D01*
X160300000Y-80800000D02*
X161050000Y-81550000D01*
X161050000Y-81550000D02*
X162067158Y-81550000D01*
X160300000Y-80000000D02*
X160300000Y-80800000D01*
X161800000Y-80000000D02*
X161800000Y-80800000D01*
X161800000Y-80800000D02*
X161650003Y-80949997D01*
X159496093Y-80761905D02*
X159708465Y-80761905D01*
X159150010Y-81107988D02*
X159496093Y-80761905D01*
X160300000Y-83500000D02*
X159150010Y-82350010D01*
X159150010Y-82350010D02*
X159150010Y-81107988D01*
X163100000Y-81650000D02*
X163300000Y-81650000D01*
X162300000Y-80000000D02*
X162300000Y-80850000D01*
X162300000Y-80850000D02*
X163100000Y-81650000D01*
X161800000Y-83500000D02*
X161800000Y-82650000D01*
X161800000Y-82650000D02*
X161000000Y-81850000D01*
X161000000Y-81850000D02*
X160650000Y-81850000D01*
X160650000Y-81850000D02*
X160050000Y-81250000D01*
X160050000Y-81250000D02*
X159600000Y-81250000D01*
X159803070Y-81706908D02*
X160346162Y-82250000D01*
X160346162Y-82250000D02*
X160950000Y-82250000D01*
X161300000Y-82600000D02*
X161300000Y-83500000D01*
X160950000Y-82250000D02*
X161300000Y-82600000D01*
M02*
