G04 This is an RS-274x file exported by *
G04 gerbv version 2.6.0 *
G04 More information is available about gerbv at *
G04 http://gerbv.gpleda.org/ *
G04 --End of header info--*
%MOIN*%
%FSLAX34Y34*%
%IPPOS*%
G04 --Define apertures--*
%ADD10C,0.0276*%
%ADD11C,0.0059*%
%ADD12C,0.0039*%
%ADD13C,0.0235*%
%ADD14C,0.0098*%
%ADD15C,0.0472*%
%ADD16C,0.0157*%
%ADD17C,0.0079*%
G04 --Start main section--*
G54D10*
G01X0063189Y-031555D02*
G01X0063189Y-031358D01*
G01X0063898Y-031358D02*
G01X0063898Y-031555D01*
G01X0063898Y-031358D02*
G01X0063189Y-031358D01*
G01X0063189Y-031555D02*
G01X0063898Y-031555D01*
G01X0062402Y-031890D02*
G01X0062598Y-031890D01*
G01X0062598Y-032598D02*
G01X0062402Y-032598D01*
G01X0062598Y-032598D02*
G01X0062598Y-031890D01*
G01X0062402Y-031890D02*
G01X0062402Y-032598D01*
G01X0063071Y-032303D02*
G01X0063268Y-032303D01*
G01X0063268Y-033012D02*
G01X0063071Y-033012D01*
G01X0063268Y-033012D02*
G01X0063268Y-032303D01*
G01X0063071Y-032303D02*
G01X0063071Y-033012D01*
G01X0063740Y-032303D02*
G01X0063937Y-032303D01*
G01X0063937Y-033012D02*
G01X0063740Y-033012D01*
G01X0063937Y-033012D02*
G01X0063937Y-032303D01*
G01X0063740Y-032303D02*
G01X0063740Y-033012D01*
G01X0064606Y-033012D02*
G01X0064409Y-033012D01*
G01X0064606Y-033012D02*
G01X0064606Y-032303D01*
G01X0064409Y-032303D02*
G01X0064409Y-033012D01*
G01X0064409Y-032303D02*
G01X0064606Y-032303D01*
%LPC*%
G54D11*
G01X0063314Y-031581D02*
G01X0063314Y-031306D01*
G01X0063314Y-031306D02*
G01X0063406Y-031503D01*
G01X0063406Y-031503D02*
G01X0063497Y-031306D01*
G01X0063497Y-031306D02*
G01X0063497Y-031581D01*
G01X0063629Y-031581D02*
G01X0063629Y-031306D01*
G01X0063629Y-031306D02*
G01X0063734Y-031306D01*
G01X0063734Y-031306D02*
G01X0063760Y-031319D01*
G01X0063760Y-031319D02*
G01X0063773Y-031332D01*
G01X0063773Y-031332D02*
G01X0063786Y-031358D01*
G01X0063786Y-031358D02*
G01X0063786Y-031398D01*
G01X0063786Y-031398D02*
G01X0063773Y-031424D01*
G01X0063773Y-031424D02*
G01X0063760Y-031437D01*
G01X0063760Y-031437D02*
G01X0063734Y-031450D01*
G01X0063734Y-031450D02*
G01X0063629Y-031450D01*
G01X0064390Y-032848D02*
G01X0064377Y-032874D01*
G01X0064377Y-032874D02*
G01X0064377Y-032913D01*
G01X0064377Y-032913D02*
G01X0064390Y-032953D01*
G01X0064390Y-032953D02*
G01X0064416Y-032979D01*
G01X0064416Y-032979D02*
G01X0064442Y-032992D01*
G01X0064442Y-032992D02*
G01X0064495Y-033005D01*
G01X0064495Y-033005D02*
G01X0064534Y-033005D01*
G01X0064534Y-033005D02*
G01X0064587Y-032992D01*
G01X0064587Y-032992D02*
G01X0064613Y-032979D01*
G01X0064613Y-032979D02*
G01X0064639Y-032953D01*
G01X0064639Y-032953D02*
G01X0064652Y-032913D01*
G01X0064652Y-032913D02*
G01X0064652Y-032887D01*
G01X0064652Y-032887D02*
G01X0064639Y-032848D01*
G01X0064639Y-032848D02*
G01X0064626Y-032835D01*
G01X0064626Y-032835D02*
G01X0064534Y-032835D01*
G01X0064534Y-032835D02*
G01X0064534Y-032887D01*
G01X0064652Y-032717D02*
G01X0064377Y-032717D01*
G01X0064377Y-032717D02*
G01X0064652Y-032559D01*
G01X0064652Y-032559D02*
G01X0064377Y-032559D01*
G01X0064652Y-032428D02*
G01X0064377Y-032428D01*
G01X0064377Y-032428D02*
G01X0064377Y-032362D01*
G01X0064377Y-032362D02*
G01X0064390Y-032323D01*
G01X0064390Y-032323D02*
G01X0064416Y-032297D01*
G01X0064416Y-032297D02*
G01X0064442Y-032283D01*
G01X0064442Y-032283D02*
G01X0064495Y-032270D01*
G01X0064495Y-032270D02*
G01X0064534Y-032270D01*
G01X0064534Y-032270D02*
G01X0064587Y-032283D01*
G01X0064587Y-032283D02*
G01X0064613Y-032297D01*
G01X0064613Y-032297D02*
G01X0064639Y-032323D01*
G01X0064639Y-032323D02*
G01X0064652Y-032362D01*
G01X0064652Y-032362D02*
G01X0064652Y-032428D01*
G01X0063878Y-033031D02*
G01X0063878Y-032822D01*
G01X0063983Y-032927D02*
G01X0063773Y-032927D01*
G01X0063707Y-032559D02*
G01X0063707Y-032690D01*
G01X0063707Y-032690D02*
G01X0063839Y-032703D01*
G01X0063839Y-032703D02*
G01X0063825Y-032690D01*
G01X0063825Y-032690D02*
G01X0063812Y-032664D01*
G01X0063812Y-032664D02*
G01X0063812Y-032598D01*
G01X0063812Y-032598D02*
G01X0063825Y-032572D01*
G01X0063825Y-032572D02*
G01X0063839Y-032559D01*
G01X0063839Y-032559D02*
G01X0063865Y-032546D01*
G01X0063865Y-032546D02*
G01X0063930Y-032546D01*
G01X0063930Y-032546D02*
G01X0063957Y-032559D01*
G01X0063957Y-032559D02*
G01X0063970Y-032572D01*
G01X0063970Y-032572D02*
G01X0063983Y-032598D01*
G01X0063983Y-032598D02*
G01X0063983Y-032664D01*
G01X0063983Y-032664D02*
G01X0063970Y-032690D01*
G01X0063970Y-032690D02*
G01X0063957Y-032703D01*
G01X0063707Y-032467D02*
G01X0063983Y-032375D01*
G01X0063983Y-032375D02*
G01X0063707Y-032283D01*
G01X0063314Y-032703D02*
G01X0063182Y-032795D01*
G01X0063314Y-032861D02*
G01X0063038Y-032861D01*
G01X0063038Y-032861D02*
G01X0063038Y-032756D01*
G01X0063038Y-032756D02*
G01X0063051Y-032730D01*
G01X0063051Y-032730D02*
G01X0063064Y-032717D01*
G01X0063064Y-032717D02*
G01X0063091Y-032703D01*
G01X0063091Y-032703D02*
G01X0063130Y-032703D01*
G01X0063130Y-032703D02*
G01X0063156Y-032717D01*
G01X0063156Y-032717D02*
G01X0063169Y-032730D01*
G01X0063169Y-032730D02*
G01X0063182Y-032756D01*
G01X0063182Y-032756D02*
G01X0063182Y-032861D01*
G01X0063038Y-032612D02*
G01X0063314Y-032428D01*
G01X0063038Y-032428D02*
G01X0063314Y-032612D01*
G54D12*
G36*
G01X0062992Y-031476D02*
G01X0062736Y-031358D01*
G01X0062992Y-031201D01*
G01X0062992Y-031476D01*
G37*
G01X0062992Y-031476D02*
G01X0062736Y-031358D01*
G01X0062736Y-031358D02*
G01X0062992Y-031201D01*
G01X0062992Y-031201D02*
G01X0062992Y-031476D01*
G54D11*
G01X0062369Y-032434D02*
G01X0062369Y-032277D01*
G01X0062644Y-032356D02*
G01X0062369Y-032356D01*
G01X0062369Y-032211D02*
G01X0062644Y-032028D01*
G01X0062369Y-032028D02*
G01X0062644Y-032211D01*
G54D13*
G01X0062697Y-031594D03*
G01X0064311Y-031594D03*
G01X0000000Y0000000D02*
%LPD*%
G54D16*
G01X0063917Y-032106D03*
G01X0063642Y-031870D03*
G01X0064291Y-032146D03*
G01X0062877Y-031796D03*
G01X0062835Y-031988D03*
G01X0062915Y-032168D03*
G54D12*
G01X0063858Y-032106D02*
G01X0063917Y-032106D01*
G54D17*
G01X0063917Y-032106D02*
G01X0063917Y-032218D01*
G01X0063642Y-031870D02*
G01X0063642Y-031870D01*
G01X0063642Y-031870D02*
G01X0063642Y-031752D01*
G01X0063642Y-031752D02*
G01X0063563Y-031673D01*
G01X0063030Y-031949D02*
G01X0062877Y-031796D01*
G01X0063109Y-032028D02*
G01X0063030Y-031949D01*
G01X0063717Y-032028D02*
G01X0063109Y-032028D01*
G01X0063796Y-031949D02*
G01X0063717Y-032028D01*
G01X0064094Y-031949D02*
G01X0063796Y-031949D01*
G01X0064291Y-032146D02*
G01X0064094Y-031949D01*
G01X0064291Y-032146D02*
G01X0064370Y-032224D01*
G01X0062835Y-031988D02*
G01X0062756Y-031988D01*
G01X0062756Y-031969D02*
G01X0062677Y-031890D01*
G01X0062756Y-031988D02*
G01X0062756Y-031969D01*
G01X0063169Y-032423D02*
G01X0062915Y-032168D01*
G54D12*
G36*
G01X0062953Y-031426D02*
G01X0062797Y-031355D01*
G01X0062953Y-031256D01*
G01X0062953Y-031426D01*
G01X0062953Y-031426D01*
G37*
G01X0062953Y-031426D02*
G01X0062797Y-031355D01*
G01X0062797Y-031355D02*
G01X0062953Y-031256D01*
G01X0062953Y-031256D02*
G01X0062953Y-031426D01*
M02*
