G04 #@! TF.GenerationSoftware,KiCad,Pcbnew,(5.1.4)-1*
G04 #@! TF.CreationDate,2021-03-30T21:44:34+02:00*
G04 #@! TF.ProjectId,padadapters,70616461-6461-4707-9465-72732e6b6963,rev?*
G04 #@! TF.SameCoordinates,Original*
G04 #@! TF.FileFunction,Legend,Bot*
G04 #@! TF.FilePolarity,Positive*
%FSLAX46Y46*%
G04 Gerber Fmt 4.6, Leading zero omitted, Abs format (unit mm)*
G04 Created by KiCad (PCBNEW (5.1.4)-1) date 2021-03-30 21:44:34*
%MOMM*%
%LPD*%
G04 APERTURE LIST*
%ADD10C,0.200000*%
%ADD11C,0.050000*%
%ADD12C,0.250000*%
%ADD13C,0.400000*%
%ADD14C,0.900000*%
%ADD15C,0.598000*%
G04 APERTURE END LIST*
D10*
X158900000Y-82750000D02*
X158900000Y-83050000D01*
X158900000Y-83050000D02*
X160050000Y-83050000D01*
X163700000Y-83050000D02*
X163700000Y-82750000D01*
X163700000Y-83050000D02*
X162550000Y-83050000D01*
X159800000Y-80350000D02*
X160000000Y-80350000D01*
X162600000Y-80350000D02*
X162800000Y-80350000D01*
X159950000Y-79400000D02*
X159950000Y-79600000D01*
D11*
X161400000Y-81985714D02*
X161400000Y-82200000D01*
X161414285Y-82242857D01*
X161442857Y-82271428D01*
X161485714Y-82285714D01*
X161514285Y-82285714D01*
X161100000Y-82285714D02*
X161271428Y-82285714D01*
X161185714Y-82285714D02*
X161185714Y-81985714D01*
X161214285Y-82028571D01*
X161242857Y-82057142D01*
X161271428Y-82071428D01*
%LPC*%
D12*
G36*
X160463921Y-79250193D02*
G01*
X160467804Y-79250769D01*
X160471611Y-79251722D01*
X160475307Y-79253045D01*
X160478856Y-79254723D01*
X160482223Y-79256741D01*
X160485376Y-79259080D01*
X160488284Y-79261716D01*
X160490920Y-79264624D01*
X160493259Y-79267777D01*
X160495277Y-79271144D01*
X160496955Y-79274693D01*
X160498278Y-79278389D01*
X160499231Y-79282196D01*
X160499807Y-79286079D01*
X160500000Y-79290000D01*
X160500000Y-80710000D01*
X160499807Y-80713921D01*
X160499231Y-80717804D01*
X160498278Y-80721611D01*
X160496955Y-80725307D01*
X160495277Y-80728856D01*
X160493259Y-80732223D01*
X160490920Y-80735376D01*
X160488284Y-80738284D01*
X160485376Y-80740920D01*
X160482223Y-80743259D01*
X160478856Y-80745277D01*
X160475307Y-80746955D01*
X160471611Y-80748278D01*
X160467804Y-80749231D01*
X160463921Y-80749807D01*
X160460000Y-80750000D01*
X160140000Y-80750000D01*
X160136079Y-80749807D01*
X160132196Y-80749231D01*
X160128389Y-80748278D01*
X160124693Y-80746955D01*
X160121144Y-80745277D01*
X160117777Y-80743259D01*
X160114624Y-80740920D01*
X160111716Y-80738284D01*
X160109080Y-80735376D01*
X160106741Y-80732223D01*
X160104723Y-80728856D01*
X160103045Y-80725307D01*
X160101722Y-80721611D01*
X160100769Y-80717804D01*
X160100193Y-80713921D01*
X160100000Y-80710000D01*
X160100000Y-79290000D01*
X160100193Y-79286079D01*
X160100769Y-79282196D01*
X160101722Y-79278389D01*
X160103045Y-79274693D01*
X160104723Y-79271144D01*
X160106741Y-79267777D01*
X160109080Y-79264624D01*
X160111716Y-79261716D01*
X160114624Y-79259080D01*
X160117777Y-79256741D01*
X160121144Y-79254723D01*
X160124693Y-79253045D01*
X160128389Y-79251722D01*
X160132196Y-79250769D01*
X160136079Y-79250193D01*
X160140000Y-79250000D01*
X160460000Y-79250000D01*
X160463921Y-79250193D01*
X160463921Y-79250193D01*
G37*
D13*
X160300000Y-80000000D03*
D12*
G36*
X160963921Y-79250193D02*
G01*
X160967804Y-79250769D01*
X160971611Y-79251722D01*
X160975307Y-79253045D01*
X160978856Y-79254723D01*
X160982223Y-79256741D01*
X160985376Y-79259080D01*
X160988284Y-79261716D01*
X160990920Y-79264624D01*
X160993259Y-79267777D01*
X160995277Y-79271144D01*
X160996955Y-79274693D01*
X160998278Y-79278389D01*
X160999231Y-79282196D01*
X160999807Y-79286079D01*
X161000000Y-79290000D01*
X161000000Y-80710000D01*
X160999807Y-80713921D01*
X160999231Y-80717804D01*
X160998278Y-80721611D01*
X160996955Y-80725307D01*
X160995277Y-80728856D01*
X160993259Y-80732223D01*
X160990920Y-80735376D01*
X160988284Y-80738284D01*
X160985376Y-80740920D01*
X160982223Y-80743259D01*
X160978856Y-80745277D01*
X160975307Y-80746955D01*
X160971611Y-80748278D01*
X160967804Y-80749231D01*
X160963921Y-80749807D01*
X160960000Y-80750000D01*
X160640000Y-80750000D01*
X160636079Y-80749807D01*
X160632196Y-80749231D01*
X160628389Y-80748278D01*
X160624693Y-80746955D01*
X160621144Y-80745277D01*
X160617777Y-80743259D01*
X160614624Y-80740920D01*
X160611716Y-80738284D01*
X160609080Y-80735376D01*
X160606741Y-80732223D01*
X160604723Y-80728856D01*
X160603045Y-80725307D01*
X160601722Y-80721611D01*
X160600769Y-80717804D01*
X160600193Y-80713921D01*
X160600000Y-80710000D01*
X160600000Y-79290000D01*
X160600193Y-79286079D01*
X160600769Y-79282196D01*
X160601722Y-79278389D01*
X160603045Y-79274693D01*
X160604723Y-79271144D01*
X160606741Y-79267777D01*
X160609080Y-79264624D01*
X160611716Y-79261716D01*
X160614624Y-79259080D01*
X160617777Y-79256741D01*
X160621144Y-79254723D01*
X160624693Y-79253045D01*
X160628389Y-79251722D01*
X160632196Y-79250769D01*
X160636079Y-79250193D01*
X160640000Y-79250000D01*
X160960000Y-79250000D01*
X160963921Y-79250193D01*
X160963921Y-79250193D01*
G37*
D13*
X160800000Y-80000000D03*
D12*
G36*
X161463921Y-79250193D02*
G01*
X161467804Y-79250769D01*
X161471611Y-79251722D01*
X161475307Y-79253045D01*
X161478856Y-79254723D01*
X161482223Y-79256741D01*
X161485376Y-79259080D01*
X161488284Y-79261716D01*
X161490920Y-79264624D01*
X161493259Y-79267777D01*
X161495277Y-79271144D01*
X161496955Y-79274693D01*
X161498278Y-79278389D01*
X161499231Y-79282196D01*
X161499807Y-79286079D01*
X161500000Y-79290000D01*
X161500000Y-80710000D01*
X161499807Y-80713921D01*
X161499231Y-80717804D01*
X161498278Y-80721611D01*
X161496955Y-80725307D01*
X161495277Y-80728856D01*
X161493259Y-80732223D01*
X161490920Y-80735376D01*
X161488284Y-80738284D01*
X161485376Y-80740920D01*
X161482223Y-80743259D01*
X161478856Y-80745277D01*
X161475307Y-80746955D01*
X161471611Y-80748278D01*
X161467804Y-80749231D01*
X161463921Y-80749807D01*
X161460000Y-80750000D01*
X161140000Y-80750000D01*
X161136079Y-80749807D01*
X161132196Y-80749231D01*
X161128389Y-80748278D01*
X161124693Y-80746955D01*
X161121144Y-80745277D01*
X161117777Y-80743259D01*
X161114624Y-80740920D01*
X161111716Y-80738284D01*
X161109080Y-80735376D01*
X161106741Y-80732223D01*
X161104723Y-80728856D01*
X161103045Y-80725307D01*
X161101722Y-80721611D01*
X161100769Y-80717804D01*
X161100193Y-80713921D01*
X161100000Y-80710000D01*
X161100000Y-79290000D01*
X161100193Y-79286079D01*
X161100769Y-79282196D01*
X161101722Y-79278389D01*
X161103045Y-79274693D01*
X161104723Y-79271144D01*
X161106741Y-79267777D01*
X161109080Y-79264624D01*
X161111716Y-79261716D01*
X161114624Y-79259080D01*
X161117777Y-79256741D01*
X161121144Y-79254723D01*
X161124693Y-79253045D01*
X161128389Y-79251722D01*
X161132196Y-79250769D01*
X161136079Y-79250193D01*
X161140000Y-79250000D01*
X161460000Y-79250000D01*
X161463921Y-79250193D01*
X161463921Y-79250193D01*
G37*
D13*
X161300000Y-80000000D03*
D12*
G36*
X161963921Y-79250193D02*
G01*
X161967804Y-79250769D01*
X161971611Y-79251722D01*
X161975307Y-79253045D01*
X161978856Y-79254723D01*
X161982223Y-79256741D01*
X161985376Y-79259080D01*
X161988284Y-79261716D01*
X161990920Y-79264624D01*
X161993259Y-79267777D01*
X161995277Y-79271144D01*
X161996955Y-79274693D01*
X161998278Y-79278389D01*
X161999231Y-79282196D01*
X161999807Y-79286079D01*
X162000000Y-79290000D01*
X162000000Y-80710000D01*
X161999807Y-80713921D01*
X161999231Y-80717804D01*
X161998278Y-80721611D01*
X161996955Y-80725307D01*
X161995277Y-80728856D01*
X161993259Y-80732223D01*
X161990920Y-80735376D01*
X161988284Y-80738284D01*
X161985376Y-80740920D01*
X161982223Y-80743259D01*
X161978856Y-80745277D01*
X161975307Y-80746955D01*
X161971611Y-80748278D01*
X161967804Y-80749231D01*
X161963921Y-80749807D01*
X161960000Y-80750000D01*
X161640000Y-80750000D01*
X161636079Y-80749807D01*
X161632196Y-80749231D01*
X161628389Y-80748278D01*
X161624693Y-80746955D01*
X161621144Y-80745277D01*
X161617777Y-80743259D01*
X161614624Y-80740920D01*
X161611716Y-80738284D01*
X161609080Y-80735376D01*
X161606741Y-80732223D01*
X161604723Y-80728856D01*
X161603045Y-80725307D01*
X161601722Y-80721611D01*
X161600769Y-80717804D01*
X161600193Y-80713921D01*
X161600000Y-80710000D01*
X161600000Y-79290000D01*
X161600193Y-79286079D01*
X161600769Y-79282196D01*
X161601722Y-79278389D01*
X161603045Y-79274693D01*
X161604723Y-79271144D01*
X161606741Y-79267777D01*
X161609080Y-79264624D01*
X161611716Y-79261716D01*
X161614624Y-79259080D01*
X161617777Y-79256741D01*
X161621144Y-79254723D01*
X161624693Y-79253045D01*
X161628389Y-79251722D01*
X161632196Y-79250769D01*
X161636079Y-79250193D01*
X161640000Y-79250000D01*
X161960000Y-79250000D01*
X161963921Y-79250193D01*
X161963921Y-79250193D01*
G37*
D13*
X161800000Y-80000000D03*
D12*
G36*
X162463921Y-79250193D02*
G01*
X162467804Y-79250769D01*
X162471611Y-79251722D01*
X162475307Y-79253045D01*
X162478856Y-79254723D01*
X162482223Y-79256741D01*
X162485376Y-79259080D01*
X162488284Y-79261716D01*
X162490920Y-79264624D01*
X162493259Y-79267777D01*
X162495277Y-79271144D01*
X162496955Y-79274693D01*
X162498278Y-79278389D01*
X162499231Y-79282196D01*
X162499807Y-79286079D01*
X162500000Y-79290000D01*
X162500000Y-80710000D01*
X162499807Y-80713921D01*
X162499231Y-80717804D01*
X162498278Y-80721611D01*
X162496955Y-80725307D01*
X162495277Y-80728856D01*
X162493259Y-80732223D01*
X162490920Y-80735376D01*
X162488284Y-80738284D01*
X162485376Y-80740920D01*
X162482223Y-80743259D01*
X162478856Y-80745277D01*
X162475307Y-80746955D01*
X162471611Y-80748278D01*
X162467804Y-80749231D01*
X162463921Y-80749807D01*
X162460000Y-80750000D01*
X162140000Y-80750000D01*
X162136079Y-80749807D01*
X162132196Y-80749231D01*
X162128389Y-80748278D01*
X162124693Y-80746955D01*
X162121144Y-80745277D01*
X162117777Y-80743259D01*
X162114624Y-80740920D01*
X162111716Y-80738284D01*
X162109080Y-80735376D01*
X162106741Y-80732223D01*
X162104723Y-80728856D01*
X162103045Y-80725307D01*
X162101722Y-80721611D01*
X162100769Y-80717804D01*
X162100193Y-80713921D01*
X162100000Y-80710000D01*
X162100000Y-79290000D01*
X162100193Y-79286079D01*
X162100769Y-79282196D01*
X162101722Y-79278389D01*
X162103045Y-79274693D01*
X162104723Y-79271144D01*
X162106741Y-79267777D01*
X162109080Y-79264624D01*
X162111716Y-79261716D01*
X162114624Y-79259080D01*
X162117777Y-79256741D01*
X162121144Y-79254723D01*
X162124693Y-79253045D01*
X162128389Y-79251722D01*
X162132196Y-79250769D01*
X162136079Y-79250193D01*
X162140000Y-79250000D01*
X162460000Y-79250000D01*
X162463921Y-79250193D01*
X162463921Y-79250193D01*
G37*
D13*
X162300000Y-80000000D03*
D12*
G36*
X162463921Y-82750193D02*
G01*
X162467804Y-82750769D01*
X162471611Y-82751722D01*
X162475307Y-82753045D01*
X162478856Y-82754723D01*
X162482223Y-82756741D01*
X162485376Y-82759080D01*
X162488284Y-82761716D01*
X162490920Y-82764624D01*
X162493259Y-82767777D01*
X162495277Y-82771144D01*
X162496955Y-82774693D01*
X162498278Y-82778389D01*
X162499231Y-82782196D01*
X162499807Y-82786079D01*
X162500000Y-82790000D01*
X162500000Y-84210000D01*
X162499807Y-84213921D01*
X162499231Y-84217804D01*
X162498278Y-84221611D01*
X162496955Y-84225307D01*
X162495277Y-84228856D01*
X162493259Y-84232223D01*
X162490920Y-84235376D01*
X162488284Y-84238284D01*
X162485376Y-84240920D01*
X162482223Y-84243259D01*
X162478856Y-84245277D01*
X162475307Y-84246955D01*
X162471611Y-84248278D01*
X162467804Y-84249231D01*
X162463921Y-84249807D01*
X162460000Y-84250000D01*
X162140000Y-84250000D01*
X162136079Y-84249807D01*
X162132196Y-84249231D01*
X162128389Y-84248278D01*
X162124693Y-84246955D01*
X162121144Y-84245277D01*
X162117777Y-84243259D01*
X162114624Y-84240920D01*
X162111716Y-84238284D01*
X162109080Y-84235376D01*
X162106741Y-84232223D01*
X162104723Y-84228856D01*
X162103045Y-84225307D01*
X162101722Y-84221611D01*
X162100769Y-84217804D01*
X162100193Y-84213921D01*
X162100000Y-84210000D01*
X162100000Y-82790000D01*
X162100193Y-82786079D01*
X162100769Y-82782196D01*
X162101722Y-82778389D01*
X162103045Y-82774693D01*
X162104723Y-82771144D01*
X162106741Y-82767777D01*
X162109080Y-82764624D01*
X162111716Y-82761716D01*
X162114624Y-82759080D01*
X162117777Y-82756741D01*
X162121144Y-82754723D01*
X162124693Y-82753045D01*
X162128389Y-82751722D01*
X162132196Y-82750769D01*
X162136079Y-82750193D01*
X162140000Y-82750000D01*
X162460000Y-82750000D01*
X162463921Y-82750193D01*
X162463921Y-82750193D01*
G37*
D13*
X162300000Y-83500000D03*
D12*
G36*
X161963921Y-82750193D02*
G01*
X161967804Y-82750769D01*
X161971611Y-82751722D01*
X161975307Y-82753045D01*
X161978856Y-82754723D01*
X161982223Y-82756741D01*
X161985376Y-82759080D01*
X161988284Y-82761716D01*
X161990920Y-82764624D01*
X161993259Y-82767777D01*
X161995277Y-82771144D01*
X161996955Y-82774693D01*
X161998278Y-82778389D01*
X161999231Y-82782196D01*
X161999807Y-82786079D01*
X162000000Y-82790000D01*
X162000000Y-84210000D01*
X161999807Y-84213921D01*
X161999231Y-84217804D01*
X161998278Y-84221611D01*
X161996955Y-84225307D01*
X161995277Y-84228856D01*
X161993259Y-84232223D01*
X161990920Y-84235376D01*
X161988284Y-84238284D01*
X161985376Y-84240920D01*
X161982223Y-84243259D01*
X161978856Y-84245277D01*
X161975307Y-84246955D01*
X161971611Y-84248278D01*
X161967804Y-84249231D01*
X161963921Y-84249807D01*
X161960000Y-84250000D01*
X161640000Y-84250000D01*
X161636079Y-84249807D01*
X161632196Y-84249231D01*
X161628389Y-84248278D01*
X161624693Y-84246955D01*
X161621144Y-84245277D01*
X161617777Y-84243259D01*
X161614624Y-84240920D01*
X161611716Y-84238284D01*
X161609080Y-84235376D01*
X161606741Y-84232223D01*
X161604723Y-84228856D01*
X161603045Y-84225307D01*
X161601722Y-84221611D01*
X161600769Y-84217804D01*
X161600193Y-84213921D01*
X161600000Y-84210000D01*
X161600000Y-82790000D01*
X161600193Y-82786079D01*
X161600769Y-82782196D01*
X161601722Y-82778389D01*
X161603045Y-82774693D01*
X161604723Y-82771144D01*
X161606741Y-82767777D01*
X161609080Y-82764624D01*
X161611716Y-82761716D01*
X161614624Y-82759080D01*
X161617777Y-82756741D01*
X161621144Y-82754723D01*
X161624693Y-82753045D01*
X161628389Y-82751722D01*
X161632196Y-82750769D01*
X161636079Y-82750193D01*
X161640000Y-82750000D01*
X161960000Y-82750000D01*
X161963921Y-82750193D01*
X161963921Y-82750193D01*
G37*
D13*
X161800000Y-83500000D03*
D12*
G36*
X161463921Y-82750193D02*
G01*
X161467804Y-82750769D01*
X161471611Y-82751722D01*
X161475307Y-82753045D01*
X161478856Y-82754723D01*
X161482223Y-82756741D01*
X161485376Y-82759080D01*
X161488284Y-82761716D01*
X161490920Y-82764624D01*
X161493259Y-82767777D01*
X161495277Y-82771144D01*
X161496955Y-82774693D01*
X161498278Y-82778389D01*
X161499231Y-82782196D01*
X161499807Y-82786079D01*
X161500000Y-82790000D01*
X161500000Y-84210000D01*
X161499807Y-84213921D01*
X161499231Y-84217804D01*
X161498278Y-84221611D01*
X161496955Y-84225307D01*
X161495277Y-84228856D01*
X161493259Y-84232223D01*
X161490920Y-84235376D01*
X161488284Y-84238284D01*
X161485376Y-84240920D01*
X161482223Y-84243259D01*
X161478856Y-84245277D01*
X161475307Y-84246955D01*
X161471611Y-84248278D01*
X161467804Y-84249231D01*
X161463921Y-84249807D01*
X161460000Y-84250000D01*
X161140000Y-84250000D01*
X161136079Y-84249807D01*
X161132196Y-84249231D01*
X161128389Y-84248278D01*
X161124693Y-84246955D01*
X161121144Y-84245277D01*
X161117777Y-84243259D01*
X161114624Y-84240920D01*
X161111716Y-84238284D01*
X161109080Y-84235376D01*
X161106741Y-84232223D01*
X161104723Y-84228856D01*
X161103045Y-84225307D01*
X161101722Y-84221611D01*
X161100769Y-84217804D01*
X161100193Y-84213921D01*
X161100000Y-84210000D01*
X161100000Y-82790000D01*
X161100193Y-82786079D01*
X161100769Y-82782196D01*
X161101722Y-82778389D01*
X161103045Y-82774693D01*
X161104723Y-82771144D01*
X161106741Y-82767777D01*
X161109080Y-82764624D01*
X161111716Y-82761716D01*
X161114624Y-82759080D01*
X161117777Y-82756741D01*
X161121144Y-82754723D01*
X161124693Y-82753045D01*
X161128389Y-82751722D01*
X161132196Y-82750769D01*
X161136079Y-82750193D01*
X161140000Y-82750000D01*
X161460000Y-82750000D01*
X161463921Y-82750193D01*
X161463921Y-82750193D01*
G37*
D13*
X161300000Y-83500000D03*
D12*
G36*
X160963921Y-82750193D02*
G01*
X160967804Y-82750769D01*
X160971611Y-82751722D01*
X160975307Y-82753045D01*
X160978856Y-82754723D01*
X160982223Y-82756741D01*
X160985376Y-82759080D01*
X160988284Y-82761716D01*
X160990920Y-82764624D01*
X160993259Y-82767777D01*
X160995277Y-82771144D01*
X160996955Y-82774693D01*
X160998278Y-82778389D01*
X160999231Y-82782196D01*
X160999807Y-82786079D01*
X161000000Y-82790000D01*
X161000000Y-84210000D01*
X160999807Y-84213921D01*
X160999231Y-84217804D01*
X160998278Y-84221611D01*
X160996955Y-84225307D01*
X160995277Y-84228856D01*
X160993259Y-84232223D01*
X160990920Y-84235376D01*
X160988284Y-84238284D01*
X160985376Y-84240920D01*
X160982223Y-84243259D01*
X160978856Y-84245277D01*
X160975307Y-84246955D01*
X160971611Y-84248278D01*
X160967804Y-84249231D01*
X160963921Y-84249807D01*
X160960000Y-84250000D01*
X160640000Y-84250000D01*
X160636079Y-84249807D01*
X160632196Y-84249231D01*
X160628389Y-84248278D01*
X160624693Y-84246955D01*
X160621144Y-84245277D01*
X160617777Y-84243259D01*
X160614624Y-84240920D01*
X160611716Y-84238284D01*
X160609080Y-84235376D01*
X160606741Y-84232223D01*
X160604723Y-84228856D01*
X160603045Y-84225307D01*
X160601722Y-84221611D01*
X160600769Y-84217804D01*
X160600193Y-84213921D01*
X160600000Y-84210000D01*
X160600000Y-82790000D01*
X160600193Y-82786079D01*
X160600769Y-82782196D01*
X160601722Y-82778389D01*
X160603045Y-82774693D01*
X160604723Y-82771144D01*
X160606741Y-82767777D01*
X160609080Y-82764624D01*
X160611716Y-82761716D01*
X160614624Y-82759080D01*
X160617777Y-82756741D01*
X160621144Y-82754723D01*
X160624693Y-82753045D01*
X160628389Y-82751722D01*
X160632196Y-82750769D01*
X160636079Y-82750193D01*
X160640000Y-82750000D01*
X160960000Y-82750000D01*
X160963921Y-82750193D01*
X160963921Y-82750193D01*
G37*
D13*
X160800000Y-83500000D03*
D12*
G36*
X160463921Y-82750193D02*
G01*
X160467804Y-82750769D01*
X160471611Y-82751722D01*
X160475307Y-82753045D01*
X160478856Y-82754723D01*
X160482223Y-82756741D01*
X160485376Y-82759080D01*
X160488284Y-82761716D01*
X160490920Y-82764624D01*
X160493259Y-82767777D01*
X160495277Y-82771144D01*
X160496955Y-82774693D01*
X160498278Y-82778389D01*
X160499231Y-82782196D01*
X160499807Y-82786079D01*
X160500000Y-82790000D01*
X160500000Y-84210000D01*
X160499807Y-84213921D01*
X160499231Y-84217804D01*
X160498278Y-84221611D01*
X160496955Y-84225307D01*
X160495277Y-84228856D01*
X160493259Y-84232223D01*
X160490920Y-84235376D01*
X160488284Y-84238284D01*
X160485376Y-84240920D01*
X160482223Y-84243259D01*
X160478856Y-84245277D01*
X160475307Y-84246955D01*
X160471611Y-84248278D01*
X160467804Y-84249231D01*
X160463921Y-84249807D01*
X160460000Y-84250000D01*
X160140000Y-84250000D01*
X160136079Y-84249807D01*
X160132196Y-84249231D01*
X160128389Y-84248278D01*
X160124693Y-84246955D01*
X160121144Y-84245277D01*
X160117777Y-84243259D01*
X160114624Y-84240920D01*
X160111716Y-84238284D01*
X160109080Y-84235376D01*
X160106741Y-84232223D01*
X160104723Y-84228856D01*
X160103045Y-84225307D01*
X160101722Y-84221611D01*
X160100769Y-84217804D01*
X160100193Y-84213921D01*
X160100000Y-84210000D01*
X160100000Y-82790000D01*
X160100193Y-82786079D01*
X160100769Y-82782196D01*
X160101722Y-82778389D01*
X160103045Y-82774693D01*
X160104723Y-82771144D01*
X160106741Y-82767777D01*
X160109080Y-82764624D01*
X160111716Y-82761716D01*
X160114624Y-82759080D01*
X160117777Y-82756741D01*
X160121144Y-82754723D01*
X160124693Y-82753045D01*
X160128389Y-82751722D01*
X160132196Y-82750769D01*
X160136079Y-82750193D01*
X160140000Y-82750000D01*
X160460000Y-82750000D01*
X160463921Y-82750193D01*
X160463921Y-82750193D01*
G37*
D13*
X160300000Y-83500000D03*
D12*
G36*
X158918822Y-80800433D02*
G01*
X158927558Y-80801729D01*
X158936126Y-80803875D01*
X158944442Y-80806851D01*
X158952426Y-80810627D01*
X158960001Y-80815168D01*
X158967095Y-80820429D01*
X158973640Y-80826360D01*
X158979571Y-80832905D01*
X158984832Y-80839999D01*
X158989373Y-80847574D01*
X158993149Y-80855558D01*
X158996125Y-80863874D01*
X158998271Y-80872442D01*
X158999567Y-80881178D01*
X159000000Y-80890000D01*
X159000000Y-82610000D01*
X158999567Y-82618822D01*
X158998271Y-82627558D01*
X158996125Y-82636126D01*
X158993149Y-82644442D01*
X158989373Y-82652426D01*
X158984832Y-82660001D01*
X158979571Y-82667095D01*
X158973640Y-82673640D01*
X158967095Y-82679571D01*
X158960001Y-82684832D01*
X158952426Y-82689373D01*
X158944442Y-82693149D01*
X158936126Y-82696125D01*
X158927558Y-82698271D01*
X158918822Y-82699567D01*
X158910000Y-82700000D01*
X158190000Y-82700000D01*
X158181178Y-82699567D01*
X158172442Y-82698271D01*
X158163874Y-82696125D01*
X158155558Y-82693149D01*
X158147574Y-82689373D01*
X158139999Y-82684832D01*
X158132905Y-82679571D01*
X158126360Y-82673640D01*
X158120429Y-82667095D01*
X158115168Y-82660001D01*
X158110627Y-82652426D01*
X158106851Y-82644442D01*
X158103875Y-82636126D01*
X158101729Y-82627558D01*
X158100433Y-82618822D01*
X158100000Y-82610000D01*
X158100000Y-80890000D01*
X158100433Y-80881178D01*
X158101729Y-80872442D01*
X158103875Y-80863874D01*
X158106851Y-80855558D01*
X158110627Y-80847574D01*
X158115168Y-80839999D01*
X158120429Y-80832905D01*
X158126360Y-80826360D01*
X158132905Y-80820429D01*
X158139999Y-80815168D01*
X158147574Y-80810627D01*
X158155558Y-80806851D01*
X158163874Y-80803875D01*
X158172442Y-80801729D01*
X158181178Y-80800433D01*
X158190000Y-80800000D01*
X158910000Y-80800000D01*
X158918822Y-80800433D01*
X158918822Y-80800433D01*
G37*
D14*
X158550000Y-81750000D03*
D12*
G36*
X164418822Y-80800433D02*
G01*
X164427558Y-80801729D01*
X164436126Y-80803875D01*
X164444442Y-80806851D01*
X164452426Y-80810627D01*
X164460001Y-80815168D01*
X164467095Y-80820429D01*
X164473640Y-80826360D01*
X164479571Y-80832905D01*
X164484832Y-80839999D01*
X164489373Y-80847574D01*
X164493149Y-80855558D01*
X164496125Y-80863874D01*
X164498271Y-80872442D01*
X164499567Y-80881178D01*
X164500000Y-80890000D01*
X164500000Y-82610000D01*
X164499567Y-82618822D01*
X164498271Y-82627558D01*
X164496125Y-82636126D01*
X164493149Y-82644442D01*
X164489373Y-82652426D01*
X164484832Y-82660001D01*
X164479571Y-82667095D01*
X164473640Y-82673640D01*
X164467095Y-82679571D01*
X164460001Y-82684832D01*
X164452426Y-82689373D01*
X164444442Y-82693149D01*
X164436126Y-82696125D01*
X164427558Y-82698271D01*
X164418822Y-82699567D01*
X164410000Y-82700000D01*
X163690000Y-82700000D01*
X163681178Y-82699567D01*
X163672442Y-82698271D01*
X163663874Y-82696125D01*
X163655558Y-82693149D01*
X163647574Y-82689373D01*
X163639999Y-82684832D01*
X163632905Y-82679571D01*
X163626360Y-82673640D01*
X163620429Y-82667095D01*
X163615168Y-82660001D01*
X163610627Y-82652426D01*
X163606851Y-82644442D01*
X163603875Y-82636126D01*
X163601729Y-82627558D01*
X163600433Y-82618822D01*
X163600000Y-82610000D01*
X163600000Y-80890000D01*
X163600433Y-80881178D01*
X163601729Y-80872442D01*
X163603875Y-80863874D01*
X163606851Y-80855558D01*
X163610627Y-80847574D01*
X163615168Y-80839999D01*
X163620429Y-80832905D01*
X163626360Y-80826360D01*
X163632905Y-80820429D01*
X163639999Y-80815168D01*
X163647574Y-80810627D01*
X163655558Y-80806851D01*
X163663874Y-80803875D01*
X163672442Y-80801729D01*
X163681178Y-80800433D01*
X163690000Y-80800000D01*
X164410000Y-80800000D01*
X164418822Y-80800433D01*
X164418822Y-80800433D01*
G37*
D14*
X164050000Y-81750000D03*
D15*
X159250000Y-80250000D03*
X163350000Y-80250000D03*
M02*
