G04 #@! TF.GenerationSoftware,KiCad,Pcbnew,(5.1.4)-1*
G04 #@! TF.CreationDate,2021-03-30T21:44:34+02:00*
G04 #@! TF.ProjectId,padadapters,70616461-6461-4707-9465-72732e6b6963,rev?*
G04 #@! TF.SameCoordinates,Original*
G04 #@! TF.FileFunction,Soldermask,Top*
G04 #@! TF.FilePolarity,Negative*
%FSLAX46Y46*%
G04 Gerber Fmt 4.6, Leading zero omitted, Abs format (unit mm)*
G04 Created by KiCad (PCBNEW (5.1.4)-1) date 2021-03-30 21:44:34*
%MOMM*%
%LPD*%
G04 APERTURE LIST*
%ADD10C,0.150000*%
%ADD11C,0.100000*%
%ADD12C,0.250000*%
G04 APERTURE END LIST*
D10*
X160816666Y-80216666D02*
X160816666Y-79516666D01*
X161050000Y-80016666D01*
X161283333Y-79516666D01*
X161283333Y-80216666D01*
X161616666Y-80216666D02*
X161616666Y-79516666D01*
X161883333Y-79516666D01*
X161950000Y-79550000D01*
X161983333Y-79583333D01*
X162016666Y-79650000D01*
X162016666Y-79750000D01*
X161983333Y-79816666D01*
X161950000Y-79850000D01*
X161883333Y-79883333D01*
X161616666Y-79883333D01*
X163550000Y-83433333D02*
X163516666Y-83500000D01*
X163516666Y-83600000D01*
X163550000Y-83700000D01*
X163616666Y-83766666D01*
X163683333Y-83800000D01*
X163816666Y-83833333D01*
X163916666Y-83833333D01*
X164050000Y-83800000D01*
X164116666Y-83766666D01*
X164183333Y-83700000D01*
X164216666Y-83600000D01*
X164216666Y-83533333D01*
X164183333Y-83433333D01*
X164150000Y-83400000D01*
X163916666Y-83400000D01*
X163916666Y-83533333D01*
X164216666Y-83100000D02*
X163516666Y-83100000D01*
X164216666Y-82700000D01*
X163516666Y-82700000D01*
X164216666Y-82366666D02*
X163516666Y-82366666D01*
X163516666Y-82200000D01*
X163550000Y-82100000D01*
X163616666Y-82033333D01*
X163683333Y-82000000D01*
X163816666Y-81966666D01*
X163916666Y-81966666D01*
X164050000Y-82000000D01*
X164116666Y-82033333D01*
X164183333Y-82100000D01*
X164216666Y-82200000D01*
X164216666Y-82366666D01*
X162250000Y-83900000D02*
X162250000Y-83366666D01*
X162516666Y-83633333D02*
X161983333Y-83633333D01*
X161816666Y-82700000D02*
X161816666Y-83033333D01*
X162150000Y-83066666D01*
X162116666Y-83033333D01*
X162083333Y-82966666D01*
X162083333Y-82800000D01*
X162116666Y-82733333D01*
X162150000Y-82700000D01*
X162216666Y-82666666D01*
X162383333Y-82666666D01*
X162450000Y-82700000D01*
X162483333Y-82733333D01*
X162516666Y-82800000D01*
X162516666Y-82966666D01*
X162483333Y-83033333D01*
X162450000Y-83066666D01*
X161816666Y-82466666D02*
X162516666Y-82233333D01*
X161816666Y-82000000D01*
X160816666Y-83066666D02*
X160483333Y-83300000D01*
X160816666Y-83466666D02*
X160116666Y-83466666D01*
X160116666Y-83200000D01*
X160150000Y-83133333D01*
X160183333Y-83100000D01*
X160250000Y-83066666D01*
X160350000Y-83066666D01*
X160416666Y-83100000D01*
X160450000Y-83133333D01*
X160483333Y-83200000D01*
X160483333Y-83466666D01*
X160116666Y-82833333D02*
X160816666Y-82366666D01*
X160116666Y-82366666D02*
X160816666Y-82833333D01*
D11*
G36*
X160000000Y-79950000D02*
G01*
X159350000Y-79650000D01*
X160000000Y-79250000D01*
X160000000Y-79950000D01*
G37*
X160000000Y-79950000D02*
X159350000Y-79650000D01*
X160000000Y-79250000D01*
X160000000Y-79950000D01*
D10*
X158416666Y-82383333D02*
X158416666Y-81983333D01*
X159116666Y-82183333D02*
X158416666Y-82183333D01*
X158416666Y-81816666D02*
X159116666Y-81350000D01*
X158416666Y-81350000D02*
X159116666Y-81816666D01*
D12*
G36*
X164211151Y-81657131D02*
G01*
X164278416Y-81677536D01*
X164340403Y-81710668D01*
X164394739Y-81755261D01*
X164439332Y-81809597D01*
X164472464Y-81871584D01*
X164492869Y-81938849D01*
X164500000Y-82011254D01*
X164500000Y-83888746D01*
X164492869Y-83961151D01*
X164472464Y-84028416D01*
X164439332Y-84090403D01*
X164394739Y-84144739D01*
X164340403Y-84189332D01*
X164278416Y-84222464D01*
X164211151Y-84242869D01*
X164138746Y-84250000D01*
X163561254Y-84250000D01*
X163488849Y-84242869D01*
X163421584Y-84222464D01*
X163359597Y-84189332D01*
X163305261Y-84144739D01*
X163260668Y-84090403D01*
X163227536Y-84028416D01*
X163207131Y-83961151D01*
X163200000Y-83888746D01*
X163200000Y-82011254D01*
X163207131Y-81938849D01*
X163227536Y-81871584D01*
X163260668Y-81809597D01*
X163305261Y-81755261D01*
X163359597Y-81710668D01*
X163421584Y-81677536D01*
X163488849Y-81657131D01*
X163561254Y-81650000D01*
X164138746Y-81650000D01*
X164211151Y-81657131D01*
X164211151Y-81657131D01*
G37*
G36*
X162511151Y-81657131D02*
G01*
X162578416Y-81677536D01*
X162640403Y-81710668D01*
X162694739Y-81755261D01*
X162739332Y-81809597D01*
X162772464Y-81871584D01*
X162792869Y-81938849D01*
X162800000Y-82011254D01*
X162800000Y-83888746D01*
X162792869Y-83961151D01*
X162772464Y-84028416D01*
X162739332Y-84090403D01*
X162694739Y-84144739D01*
X162640403Y-84189332D01*
X162578416Y-84222464D01*
X162511151Y-84242869D01*
X162438746Y-84250000D01*
X161861254Y-84250000D01*
X161788849Y-84242869D01*
X161721584Y-84222464D01*
X161659597Y-84189332D01*
X161605261Y-84144739D01*
X161560668Y-84090403D01*
X161527536Y-84028416D01*
X161507131Y-83961151D01*
X161500000Y-83888746D01*
X161500000Y-82011254D01*
X161507131Y-81938849D01*
X161527536Y-81871584D01*
X161560668Y-81809597D01*
X161605261Y-81755261D01*
X161659597Y-81710668D01*
X161721584Y-81677536D01*
X161788849Y-81657131D01*
X161861254Y-81650000D01*
X162438746Y-81650000D01*
X162511151Y-81657131D01*
X162511151Y-81657131D01*
G37*
G36*
X160811151Y-81657131D02*
G01*
X160878416Y-81677536D01*
X160940403Y-81710668D01*
X160994739Y-81755261D01*
X161039332Y-81809597D01*
X161072464Y-81871584D01*
X161092869Y-81938849D01*
X161100000Y-82011254D01*
X161100000Y-83888746D01*
X161092869Y-83961151D01*
X161072464Y-84028416D01*
X161039332Y-84090403D01*
X160994739Y-84144739D01*
X160940403Y-84189332D01*
X160878416Y-84222464D01*
X160811151Y-84242869D01*
X160738746Y-84250000D01*
X160161254Y-84250000D01*
X160088849Y-84242869D01*
X160021584Y-84222464D01*
X159959597Y-84189332D01*
X159905261Y-84144739D01*
X159860668Y-84090403D01*
X159827536Y-84028416D01*
X159807131Y-83961151D01*
X159800000Y-83888746D01*
X159800000Y-82011254D01*
X159807131Y-81938849D01*
X159827536Y-81871584D01*
X159860668Y-81809597D01*
X159905261Y-81755261D01*
X159959597Y-81710668D01*
X160021584Y-81677536D01*
X160088849Y-81657131D01*
X160161254Y-81650000D01*
X160738746Y-81650000D01*
X160811151Y-81657131D01*
X160811151Y-81657131D01*
G37*
G36*
X159298704Y-79954830D02*
G01*
X159337215Y-79962490D01*
X159391630Y-79985029D01*
X159440602Y-80017751D01*
X159482249Y-80059398D01*
X159514971Y-80108370D01*
X159537510Y-80162785D01*
X159549000Y-80220551D01*
X159549000Y-80279449D01*
X159537510Y-80337215D01*
X159514971Y-80391630D01*
X159482249Y-80440602D01*
X159440602Y-80482249D01*
X159391630Y-80514971D01*
X159337215Y-80537510D01*
X159298704Y-80545170D01*
X159279450Y-80549000D01*
X159231092Y-80549000D01*
X159221338Y-80549961D01*
X159211958Y-80552806D01*
X159203314Y-80557426D01*
X159195737Y-80563644D01*
X159189519Y-80571221D01*
X159184899Y-80579865D01*
X159182054Y-80589245D01*
X159181093Y-80598999D01*
X159182054Y-80608753D01*
X159184899Y-80618133D01*
X159189519Y-80626777D01*
X159195737Y-80634354D01*
X159203314Y-80640572D01*
X159207523Y-80643094D01*
X159240403Y-80660668D01*
X159294739Y-80705261D01*
X159339332Y-80759597D01*
X159372464Y-80821584D01*
X159392869Y-80888849D01*
X159400000Y-80961254D01*
X159400000Y-82838746D01*
X159392869Y-82911151D01*
X159372464Y-82978416D01*
X159339332Y-83040403D01*
X159294739Y-83094739D01*
X159240403Y-83139332D01*
X159178416Y-83172464D01*
X159111151Y-83192869D01*
X159038746Y-83200000D01*
X158461254Y-83200000D01*
X158388849Y-83192869D01*
X158321584Y-83172464D01*
X158259597Y-83139332D01*
X158205261Y-83094739D01*
X158160668Y-83040403D01*
X158127536Y-82978416D01*
X158107131Y-82911151D01*
X158100000Y-82838746D01*
X158100000Y-80961254D01*
X158107131Y-80888849D01*
X158127536Y-80821584D01*
X158160668Y-80759597D01*
X158205261Y-80705261D01*
X158259597Y-80660668D01*
X158321584Y-80627536D01*
X158388849Y-80607131D01*
X158461254Y-80600000D01*
X159038746Y-80600000D01*
X159071018Y-80603179D01*
X159080819Y-80603179D01*
X159090432Y-80601267D01*
X159099488Y-80597517D01*
X159107638Y-80592071D01*
X159114568Y-80585141D01*
X159120014Y-80576991D01*
X159123765Y-80567936D01*
X159125677Y-80558322D01*
X159125677Y-80548521D01*
X159123765Y-80538908D01*
X159120015Y-80529852D01*
X159114569Y-80521702D01*
X159107639Y-80514772D01*
X159103697Y-80511849D01*
X159079934Y-80495971D01*
X159059398Y-80482249D01*
X159017751Y-80440602D01*
X158985029Y-80391630D01*
X158962490Y-80337215D01*
X158951000Y-80279449D01*
X158951000Y-80220551D01*
X158962490Y-80162785D01*
X158985029Y-80108370D01*
X159017751Y-80059398D01*
X159059398Y-80017751D01*
X159108370Y-79985029D01*
X159162785Y-79962490D01*
X159201296Y-79954830D01*
X159220550Y-79951000D01*
X159279450Y-79951000D01*
X159298704Y-79954830D01*
X159298704Y-79954830D01*
G37*
G36*
X162411151Y-79257131D02*
G01*
X162478416Y-79277536D01*
X162540403Y-79310668D01*
X162594739Y-79355261D01*
X162639332Y-79409597D01*
X162672464Y-79471584D01*
X162692869Y-79538849D01*
X162700000Y-79611254D01*
X162700000Y-80188746D01*
X162692869Y-80261151D01*
X162672464Y-80328416D01*
X162639332Y-80390403D01*
X162594739Y-80444739D01*
X162540403Y-80489332D01*
X162478416Y-80522464D01*
X162411151Y-80542869D01*
X162338746Y-80550000D01*
X160461254Y-80550000D01*
X160388849Y-80542869D01*
X160321584Y-80522464D01*
X160259597Y-80489332D01*
X160205261Y-80444739D01*
X160160668Y-80390403D01*
X160127536Y-80328416D01*
X160107131Y-80261151D01*
X160100000Y-80188746D01*
X160100000Y-79611254D01*
X160107131Y-79538849D01*
X160127536Y-79471584D01*
X160160668Y-79409597D01*
X160205261Y-79355261D01*
X160259597Y-79310668D01*
X160321584Y-79277536D01*
X160388849Y-79257131D01*
X160461254Y-79250000D01*
X162338746Y-79250000D01*
X162411151Y-79257131D01*
X162411151Y-79257131D01*
G37*
G36*
X163398704Y-79954830D02*
G01*
X163437215Y-79962490D01*
X163491630Y-79985029D01*
X163540602Y-80017751D01*
X163582249Y-80059398D01*
X163614971Y-80108370D01*
X163637510Y-80162785D01*
X163649000Y-80220551D01*
X163649000Y-80279449D01*
X163637510Y-80337215D01*
X163614971Y-80391630D01*
X163582249Y-80440602D01*
X163540602Y-80482249D01*
X163491630Y-80514971D01*
X163437215Y-80537510D01*
X163398704Y-80545170D01*
X163379450Y-80549000D01*
X163320550Y-80549000D01*
X163301296Y-80545170D01*
X163262785Y-80537510D01*
X163208370Y-80514971D01*
X163159398Y-80482249D01*
X163117751Y-80440602D01*
X163085029Y-80391630D01*
X163062490Y-80337215D01*
X163051000Y-80279449D01*
X163051000Y-80220551D01*
X163062490Y-80162785D01*
X163085029Y-80108370D01*
X163117751Y-80059398D01*
X163159398Y-80017751D01*
X163208370Y-79985029D01*
X163262785Y-79962490D01*
X163301296Y-79954830D01*
X163320550Y-79951000D01*
X163379450Y-79951000D01*
X163398704Y-79954830D01*
X163398704Y-79954830D01*
G37*
M02*
