G04 #@! TF.GenerationSoftware,KiCad,Pcbnew,(5.1.4)-1*
G04 #@! TF.CreationDate,2021-03-30T21:44:34+02:00*
G04 #@! TF.ProjectId,padadapters,70616461-6461-4707-9465-72732e6b6963,rev?*
G04 #@! TF.SameCoordinates,Original*
G04 #@! TF.FileFunction,Soldermask,Bot*
G04 #@! TF.FilePolarity,Negative*
%FSLAX46Y46*%
G04 Gerber Fmt 4.6, Leading zero omitted, Abs format (unit mm)*
G04 Created by KiCad (PCBNEW (5.1.4)-1) date 2021-03-30 21:44:34*
%MOMM*%
%LPD*%
G04 APERTURE LIST*
%ADD10C,0.250000*%
G04 APERTURE END LIST*
D10*
G36*
X161999780Y-82750220D02*
G01*
X162000000Y-82752456D01*
X162000000Y-84247544D01*
X161999780Y-84249780D01*
X161997544Y-84250000D01*
X161602456Y-84250000D01*
X161600220Y-84249780D01*
X161600000Y-84247544D01*
X161600000Y-82752456D01*
X161600220Y-82750220D01*
X161602456Y-82750000D01*
X161997544Y-82750000D01*
X161999780Y-82750220D01*
X161999780Y-82750220D01*
G37*
G36*
X161499780Y-82750220D02*
G01*
X161500000Y-82752456D01*
X161500000Y-84247544D01*
X161499780Y-84249780D01*
X161497544Y-84250000D01*
X161102456Y-84250000D01*
X161100220Y-84249780D01*
X161100000Y-84247544D01*
X161100000Y-82752456D01*
X161100220Y-82750220D01*
X161102456Y-82750000D01*
X161497544Y-82750000D01*
X161499780Y-82750220D01*
X161499780Y-82750220D01*
G37*
G36*
X160999780Y-82750220D02*
G01*
X161000000Y-82752456D01*
X161000000Y-84247544D01*
X160999780Y-84249780D01*
X160997544Y-84250000D01*
X160602456Y-84250000D01*
X160600220Y-84249780D01*
X160600000Y-84247544D01*
X160600000Y-82752456D01*
X160600220Y-82750220D01*
X160602456Y-82750000D01*
X160997544Y-82750000D01*
X160999780Y-82750220D01*
X160999780Y-82750220D01*
G37*
G36*
X160499780Y-82750220D02*
G01*
X160500000Y-82752456D01*
X160500000Y-84247544D01*
X160499780Y-84249780D01*
X160497544Y-84250000D01*
X160102456Y-84250000D01*
X160100220Y-84249780D01*
X160100000Y-84247544D01*
X160100000Y-82752456D01*
X160100220Y-82750220D01*
X160102456Y-82750000D01*
X160497544Y-82750000D01*
X160499780Y-82750220D01*
X160499780Y-82750220D01*
G37*
G36*
X162499780Y-82750220D02*
G01*
X162500000Y-82752456D01*
X162500000Y-84247544D01*
X162499780Y-84249780D01*
X162497544Y-84250000D01*
X162102456Y-84250000D01*
X162100220Y-84249780D01*
X162100000Y-84247544D01*
X162100000Y-82752456D01*
X162100220Y-82750220D01*
X162102456Y-82750000D01*
X162497544Y-82750000D01*
X162499780Y-82750220D01*
X162499780Y-82750220D01*
G37*
G36*
X158959705Y-80801197D02*
G01*
X158969041Y-80804030D01*
X158977646Y-80808629D01*
X158985185Y-80814815D01*
X158991371Y-80822354D01*
X158995970Y-80830959D01*
X158998803Y-80840295D01*
X159000000Y-80852452D01*
X159000000Y-82647548D01*
X158998803Y-82659705D01*
X158995970Y-82669041D01*
X158991371Y-82677646D01*
X158985185Y-82685185D01*
X158977646Y-82691371D01*
X158969041Y-82695970D01*
X158959705Y-82698803D01*
X158947548Y-82700000D01*
X158152452Y-82700000D01*
X158140295Y-82698803D01*
X158130959Y-82695970D01*
X158122354Y-82691371D01*
X158114815Y-82685185D01*
X158108629Y-82677646D01*
X158104030Y-82669041D01*
X158101197Y-82659705D01*
X158100000Y-82647548D01*
X158100000Y-80852452D01*
X158101197Y-80840295D01*
X158104030Y-80830959D01*
X158108629Y-80822354D01*
X158114815Y-80814815D01*
X158122354Y-80808629D01*
X158130959Y-80804030D01*
X158140295Y-80801197D01*
X158152452Y-80800000D01*
X158947548Y-80800000D01*
X158959705Y-80801197D01*
X158959705Y-80801197D01*
G37*
G36*
X164459705Y-80801197D02*
G01*
X164469041Y-80804030D01*
X164477646Y-80808629D01*
X164485185Y-80814815D01*
X164491371Y-80822354D01*
X164495970Y-80830959D01*
X164498803Y-80840295D01*
X164500000Y-80852452D01*
X164500000Y-82647548D01*
X164498803Y-82659705D01*
X164495970Y-82669041D01*
X164491371Y-82677646D01*
X164485185Y-82685185D01*
X164477646Y-82691371D01*
X164469041Y-82695970D01*
X164459705Y-82698803D01*
X164447548Y-82700000D01*
X163652452Y-82700000D01*
X163640295Y-82698803D01*
X163630959Y-82695970D01*
X163622354Y-82691371D01*
X163614815Y-82685185D01*
X163608629Y-82677646D01*
X163604030Y-82669041D01*
X163601197Y-82659705D01*
X163600000Y-82647548D01*
X163600000Y-80852452D01*
X163601197Y-80840295D01*
X163604030Y-80830959D01*
X163608629Y-80822354D01*
X163614815Y-80814815D01*
X163622354Y-80808629D01*
X163630959Y-80804030D01*
X163640295Y-80801197D01*
X163652452Y-80800000D01*
X164447548Y-80800000D01*
X164459705Y-80801197D01*
X164459705Y-80801197D01*
G37*
G36*
X160499780Y-79250220D02*
G01*
X160500000Y-79252456D01*
X160500000Y-80747544D01*
X160499780Y-80749780D01*
X160497544Y-80750000D01*
X160102456Y-80750000D01*
X160100220Y-80749780D01*
X160100000Y-80747544D01*
X160100000Y-79252456D01*
X160100220Y-79250220D01*
X160102456Y-79250000D01*
X160497544Y-79250000D01*
X160499780Y-79250220D01*
X160499780Y-79250220D01*
G37*
G36*
X162499780Y-79250220D02*
G01*
X162500000Y-79252456D01*
X162500000Y-80747544D01*
X162499780Y-80749780D01*
X162497544Y-80750000D01*
X162102456Y-80750000D01*
X162100220Y-80749780D01*
X162100000Y-80747544D01*
X162100000Y-79252456D01*
X162100220Y-79250220D01*
X162102456Y-79250000D01*
X162497544Y-79250000D01*
X162499780Y-79250220D01*
X162499780Y-79250220D01*
G37*
G36*
X161999780Y-79250220D02*
G01*
X162000000Y-79252456D01*
X162000000Y-80747544D01*
X161999780Y-80749780D01*
X161997544Y-80750000D01*
X161602456Y-80750000D01*
X161600220Y-80749780D01*
X161600000Y-80747544D01*
X161600000Y-79252456D01*
X161600220Y-79250220D01*
X161602456Y-79250000D01*
X161997544Y-79250000D01*
X161999780Y-79250220D01*
X161999780Y-79250220D01*
G37*
G36*
X161499780Y-79250220D02*
G01*
X161500000Y-79252456D01*
X161500000Y-80747544D01*
X161499780Y-80749780D01*
X161497544Y-80750000D01*
X161102456Y-80750000D01*
X161100220Y-80749780D01*
X161100000Y-80747544D01*
X161100000Y-79252456D01*
X161100220Y-79250220D01*
X161102456Y-79250000D01*
X161497544Y-79250000D01*
X161499780Y-79250220D01*
X161499780Y-79250220D01*
G37*
G36*
X160999780Y-79250220D02*
G01*
X161000000Y-79252456D01*
X161000000Y-80747544D01*
X160999780Y-80749780D01*
X160997544Y-80750000D01*
X160602456Y-80750000D01*
X160600220Y-80749780D01*
X160600000Y-80747544D01*
X160600000Y-79252456D01*
X160600220Y-79250220D01*
X160602456Y-79250000D01*
X160997544Y-79250000D01*
X160999780Y-79250220D01*
X160999780Y-79250220D01*
G37*
G36*
X159298704Y-79954830D02*
G01*
X159337215Y-79962490D01*
X159391630Y-79985029D01*
X159440602Y-80017751D01*
X159482249Y-80059398D01*
X159514971Y-80108370D01*
X159537510Y-80162785D01*
X159549000Y-80220551D01*
X159549000Y-80279449D01*
X159537510Y-80337215D01*
X159514971Y-80391630D01*
X159482249Y-80440602D01*
X159440602Y-80482249D01*
X159391630Y-80514971D01*
X159337215Y-80537510D01*
X159298704Y-80545170D01*
X159279450Y-80549000D01*
X159220550Y-80549000D01*
X159201296Y-80545170D01*
X159162785Y-80537510D01*
X159108370Y-80514971D01*
X159059398Y-80482249D01*
X159017751Y-80440602D01*
X158985029Y-80391630D01*
X158962490Y-80337215D01*
X158951000Y-80279449D01*
X158951000Y-80220551D01*
X158962490Y-80162785D01*
X158985029Y-80108370D01*
X159017751Y-80059398D01*
X159059398Y-80017751D01*
X159108370Y-79985029D01*
X159162785Y-79962490D01*
X159201296Y-79954830D01*
X159220550Y-79951000D01*
X159279450Y-79951000D01*
X159298704Y-79954830D01*
X159298704Y-79954830D01*
G37*
G36*
X163398704Y-79954830D02*
G01*
X163437215Y-79962490D01*
X163491630Y-79985029D01*
X163540602Y-80017751D01*
X163582249Y-80059398D01*
X163614971Y-80108370D01*
X163637510Y-80162785D01*
X163649000Y-80220551D01*
X163649000Y-80279449D01*
X163637510Y-80337215D01*
X163614971Y-80391630D01*
X163582249Y-80440602D01*
X163540602Y-80482249D01*
X163491630Y-80514971D01*
X163437215Y-80537510D01*
X163398704Y-80545170D01*
X163379450Y-80549000D01*
X163320550Y-80549000D01*
X163301296Y-80545170D01*
X163262785Y-80537510D01*
X163208370Y-80514971D01*
X163159398Y-80482249D01*
X163117751Y-80440602D01*
X163085029Y-80391630D01*
X163062490Y-80337215D01*
X163051000Y-80279449D01*
X163051000Y-80220551D01*
X163062490Y-80162785D01*
X163085029Y-80108370D01*
X163117751Y-80059398D01*
X163159398Y-80017751D01*
X163208370Y-79985029D01*
X163262785Y-79962490D01*
X163301296Y-79954830D01*
X163320550Y-79951000D01*
X163379450Y-79951000D01*
X163398704Y-79954830D01*
X163398704Y-79954830D01*
G37*
M02*
