G04 #@! TF.GenerationSoftware,KiCad,Pcbnew,6.0.4-6f826c9f35~116~ubuntu18.04.1*
G04 #@! TF.CreationDate,2022-03-27T23:14:13+02:00*
G04 #@! TF.ProjectId,ultimateFC,756c7469-6d61-4746-9546-432e6b696361,rev?*
G04 #@! TF.SameCoordinates,Original*
G04 #@! TF.FileFunction,Soldermask,Top*
G04 #@! TF.FilePolarity,Negative*
%FSLAX46Y46*%
G04 Gerber Fmt 4.6, Leading zero omitted, Abs format (unit mm)*
G04 Created by KiCad (PCBNEW 6.0.4-6f826c9f35~116~ubuntu18.04.1) date 2022-03-27 23:14:13*
%MOMM*%
%LPD*%
G01*
G04 APERTURE LIST*
G04 Aperture macros list*
%AMRoundRect*
0 Rectangle with rounded corners*
0 $1 Rounding radius*
0 $2 $3 $4 $5 $6 $7 $8 $9 X,Y pos of 4 corners*
0 Add a 4 corners polygon primitive as box body*
4,1,4,$2,$3,$4,$5,$6,$7,$8,$9,$2,$3,0*
0 Add four circle primitives for the rounded corners*
1,1,$1+$1,$2,$3*
1,1,$1+$1,$4,$5*
1,1,$1+$1,$6,$7*
1,1,$1+$1,$8,$9*
0 Add four rect primitives between the rounded corners*
20,1,$1+$1,$2,$3,$4,$5,0*
20,1,$1+$1,$4,$5,$6,$7,0*
20,1,$1+$1,$6,$7,$8,$9,0*
20,1,$1+$1,$8,$9,$2,$3,0*%
%AMFreePoly0*
4,1,13,0.014884,0.386047,0.026047,0.374884,0.346047,-0.185116,0.348943,-0.207894,0.334884,-0.226047,0.320000,-0.230000,-0.320000,-0.230000,-0.341212,-0.221213,-0.350000,-0.200000,-0.346047,-0.185116,-0.026046,0.374884,-0.007894,0.388943,0.014884,0.386047,0.014884,0.386047,$1*%
G04 Aperture macros list end*
%ADD10C,2.000000*%
G04 #@! TA.AperFunction,Profile*
%ADD11C,0.200000*%
G04 #@! TD*
%ADD12RoundRect,0.070000X0.130000X-0.080000X0.130000X0.080000X-0.130000X0.080000X-0.130000X-0.080000X0*%
%ADD13RoundRect,0.070000X-0.130000X0.080000X-0.130000X-0.080000X0.130000X-0.080000X0.130000X0.080000X0*%
%ADD14RoundRect,0.112500X0.062500X-0.287500X0.062500X0.287500X-0.062500X0.287500X-0.062500X-0.287500X0*%
%ADD15RoundRect,0.050000X0.650000X-0.450000X0.650000X0.450000X-0.650000X0.450000X-0.650000X-0.450000X0*%
%ADD16RoundRect,0.050000X-0.225000X0.225000X-0.225000X-0.225000X0.225000X-0.225000X0.225000X0.225000X0*%
%ADD17RoundRect,0.050000X-0.450000X1.380000X-0.450000X-1.380000X0.450000X-1.380000X0.450000X1.380000X0*%
%ADD18RoundRect,0.050000X-0.485000X1.380000X-0.485000X-1.380000X0.485000X-1.380000X0.485000X1.380000X0*%
%ADD19RoundRect,0.197500X0.172500X-0.147500X0.172500X0.147500X-0.172500X0.147500X-0.172500X-0.147500X0*%
%ADD20C,3.700000*%
%ADD21RoundRect,0.300000X0.412500X0.925000X-0.412500X0.925000X-0.412500X-0.925000X0.412500X-0.925000X0*%
%ADD22RoundRect,0.197500X-0.147500X-0.172500X0.147500X-0.172500X0.147500X0.172500X-0.147500X0.172500X0*%
%ADD23RoundRect,0.080000X0.120000X-0.220000X0.120000X0.220000X-0.120000X0.220000X-0.120000X-0.220000X0*%
%ADD24RoundRect,0.300000X-0.425000X0.450000X-0.425000X-0.450000X0.425000X-0.450000X0.425000X0.450000X0*%
%ADD25RoundRect,0.300000X0.425000X-0.450000X0.425000X0.450000X-0.425000X0.450000X-0.425000X-0.450000X0*%
%ADD26RoundRect,0.197500X-0.172500X0.147500X-0.172500X-0.147500X0.172500X-0.147500X0.172500X0.147500X0*%
%ADD27RoundRect,0.197500X0.147500X0.172500X-0.147500X0.172500X-0.147500X-0.172500X0.147500X-0.172500X0*%
%ADD28RoundRect,0.130000X0.320000X0.820000X-0.320000X0.820000X-0.320000X-0.820000X0.320000X-0.820000X0*%
%ADD29RoundRect,0.105000X-0.220000X-0.845000X0.220000X-0.845000X0.220000X0.845000X-0.220000X0.845000X0*%
%ADD30RoundRect,0.080000X-0.120000X-0.770000X0.120000X-0.770000X0.120000X0.770000X-0.120000X0.770000X0*%
%ADD31RoundRect,0.080000X0.120000X0.770000X-0.120000X0.770000X-0.120000X-0.770000X0.120000X-0.770000X0*%
%ADD32RoundRect,0.302500X0.252500X-0.891000X0.252500X0.891000X-0.252500X0.891000X-0.252500X-0.891000X0*%
%ADD33RoundRect,0.240500X0.314500X-0.190500X0.314500X0.190500X-0.314500X0.190500X-0.314500X-0.190500X0*%
%ADD34O,0.500000X0.500000*%
%ADD35O,2.100000X1.400000*%
%ADD36O,4.100000X2.700000*%
%ADD37O,3.100000X2.100000*%
%ADD38RoundRect,0.050000X-1.000000X-1.000000X1.000000X-1.000000X1.000000X1.000000X-1.000000X1.000000X0*%
%ADD39RoundRect,0.050000X0.150000X-0.150000X0.150000X0.150000X-0.150000X0.150000X-0.150000X-0.150000X0*%
%ADD40RoundRect,0.050000X0.150000X-0.450000X0.150000X0.450000X-0.150000X0.450000X-0.150000X-0.450000X0*%
%ADD41RoundRect,0.050000X0.450000X0.150000X-0.450000X0.150000X-0.450000X-0.150000X0.450000X-0.150000X0*%
%ADD42RoundRect,0.050000X0.900000X-0.900000X0.900000X0.900000X-0.900000X0.900000X-0.900000X-0.900000X0*%
%ADD43RoundRect,0.112500X-0.287500X-0.062500X0.287500X-0.062500X0.287500X0.062500X-0.287500X0.062500X0*%
%ADD44RoundRect,0.050000X-0.450000X-0.650000X0.450000X-0.650000X0.450000X0.650000X-0.450000X0.650000X0*%
%ADD45RoundRect,0.112500X-0.062500X0.287500X-0.062500X-0.287500X0.062500X-0.287500X0.062500X0.287500X0*%
%ADD46RoundRect,0.050000X-0.650000X0.450000X-0.650000X-0.450000X0.650000X-0.450000X0.650000X0.450000X0*%
%ADD47RoundRect,0.050000X0.225000X-0.225000X0.225000X0.225000X-0.225000X0.225000X-0.225000X-0.225000X0*%
%ADD48RoundRect,0.050000X0.450000X-1.380000X0.450000X1.380000X-0.450000X1.380000X-0.450000X-1.380000X0*%
%ADD49RoundRect,0.050000X0.485000X-1.380000X0.485000X1.380000X-0.485000X1.380000X-0.485000X-1.380000X0*%
%ADD50RoundRect,0.112500X0.287500X0.062500X-0.287500X0.062500X-0.287500X-0.062500X0.287500X-0.062500X0*%
%ADD51RoundRect,0.050000X0.450000X0.650000X-0.450000X0.650000X-0.450000X-0.650000X0.450000X-0.650000X0*%
%ADD52FreePoly0,50.000000*%
%ADD53FreePoly0,230.000000*%
%ADD54C,0.370000*%
%ADD55RoundRect,0.050000X0.500000X-0.500000X0.500000X0.500000X-0.500000X0.500000X-0.500000X-0.500000X0*%
%ADD56RoundRect,0.050000X1.100000X-0.525000X1.100000X0.525000X-1.100000X0.525000X-1.100000X-0.525000X0*%
%ADD57RoundRect,0.050000X1.100000X-0.500000X1.100000X0.500000X-1.100000X0.500000X-1.100000X-0.500000X0*%
%ADD58RoundRect,0.150000X-0.100000X0.130000X-0.100000X-0.130000X0.100000X-0.130000X0.100000X0.130000X0*%
%ADD59RoundRect,0.050000X0.950000X-0.200000X0.950000X0.200000X-0.950000X0.200000X-0.950000X-0.200000X0*%
%ADD60FreePoly0,235.000000*%
%ADD61RoundRect,0.050000X0.325000X0.200000X-0.325000X0.200000X-0.325000X-0.200000X0.325000X-0.200000X0*%
%ADD62RoundRect,0.137500X0.187500X0.087500X-0.187500X0.087500X-0.187500X-0.087500X0.187500X-0.087500X0*%
%ADD63RoundRect,0.137500X0.087500X0.187500X-0.087500X0.187500X-0.087500X-0.187500X0.087500X-0.187500X0*%
%ADD64RoundRect,0.050000X-0.300000X0.150000X-0.300000X-0.150000X0.300000X-0.150000X0.300000X0.150000X0*%
%ADD65RoundRect,0.050000X-1.000000X-1.300000X1.000000X-1.300000X1.000000X1.300000X-1.000000X1.300000X0*%
%ADD66RoundRect,0.050000X0.550000X0.200000X-0.550000X0.200000X-0.550000X-0.200000X0.550000X-0.200000X0*%
%ADD67RoundRect,0.125000X0.075000X0.125000X-0.075000X0.125000X-0.075000X-0.125000X0.075000X-0.125000X0*%
%ADD68RoundRect,0.268750X0.218750X0.256250X-0.218750X0.256250X-0.218750X-0.256250X0.218750X-0.256250X0*%
%ADD69RoundRect,0.050000X0.175000X-0.250000X0.175000X0.250000X-0.175000X0.250000X-0.175000X-0.250000X0*%
%ADD70RoundRect,0.050000X-0.150000X0.150000X-0.150000X-0.150000X0.150000X-0.150000X0.150000X0.150000X0*%
%ADD71RoundRect,0.050000X-0.150000X0.450000X-0.150000X-0.450000X0.150000X-0.450000X0.150000X0.450000X0*%
%ADD72RoundRect,0.050000X-0.450000X-0.150000X0.450000X-0.150000X0.450000X0.150000X-0.450000X0.150000X0*%
%ADD73RoundRect,0.050000X-0.900000X0.900000X-0.900000X-0.900000X0.900000X-0.900000X0.900000X0.900000X0*%
%ADD74RoundRect,0.130000X-0.320000X-0.820000X0.320000X-0.820000X0.320000X0.820000X-0.320000X0.820000X0*%
%ADD75C,0.750000*%
%ADD76RoundRect,0.150000X0.100000X-0.130000X0.100000X0.130000X-0.100000X0.130000X-0.100000X-0.130000X0*%
%ADD77C,1.000000*%
%ADD78C,0.800000*%
%ADD79RoundRect,0.268750X-0.218750X-0.256250X0.218750X-0.256250X0.218750X0.256250X-0.218750X0.256250X0*%
%ADD80RoundRect,0.125000X0.125000X-0.075000X0.125000X0.075000X-0.125000X0.075000X-0.125000X-0.075000X0*%
%ADD81RoundRect,0.125000X-0.075000X-0.125000X0.075000X-0.125000X0.075000X0.125000X-0.075000X0.125000X0*%
%ADD82RoundRect,0.125000X-0.125000X0.075000X-0.125000X-0.075000X0.125000X-0.075000X0.125000X0.075000X0*%
%ADD83RoundRect,0.050000X-0.200000X0.250000X-0.200000X-0.250000X0.200000X-0.250000X0.200000X0.250000X0*%
%ADD84RoundRect,0.050000X-0.150000X0.250000X-0.150000X-0.250000X0.150000X-0.250000X0.150000X0.250000X0*%
%ADD85RoundRect,0.050000X0.200000X-0.250000X0.200000X0.250000X-0.200000X0.250000X-0.200000X-0.250000X0*%
%ADD86RoundRect,0.050000X0.150000X-0.250000X0.150000X0.250000X-0.150000X0.250000X-0.150000X-0.250000X0*%
%ADD87RoundRect,0.050000X0.200000X0.500000X-0.200000X0.500000X-0.200000X-0.500000X0.200000X-0.500000X0*%
%ADD88RoundRect,0.050000X0.225000X0.350000X-0.225000X0.350000X-0.225000X-0.350000X0.225000X-0.350000X0*%
%ADD89RoundRect,0.050000X-0.353553X0.000000X0.000000X-0.353553X0.353553X0.000000X0.000000X0.353553X0*%
G04 APERTURE END LIST*
D10*
X192498992Y-83844652D02*
G75*
G03*
X193900000Y-83200000I-292J1845352D01*
G01*
X172631284Y-60101407D02*
G75*
G03*
X170750000Y-61325000I-141884J-1839893D01*
G01*
X170760111Y-82614891D02*
G75*
G03*
X172641421Y-83838478I1739389J616291D01*
G01*
X193901032Y-60794663D02*
G75*
G03*
X192500000Y-60150000I-1401332J-1200737D01*
G01*
D11*
X198000000Y-73000000D02*
X196820000Y-73000000D01*
X196820000Y-74600000D02*
X197020000Y-74600000D01*
X197020000Y-74600000D02*
X197600000Y-74600000D01*
X196020000Y-73800000D02*
G75*
G03*
X196820000Y-74600000I800000J0D01*
G01*
X196820000Y-73000000D02*
G75*
G03*
X196020000Y-73800000I0J-800000D01*
G01*
X180080000Y-59950000D02*
X180570000Y-59949602D01*
X180570000Y-59949600D02*
G75*
G03*
X180820000Y-59699602I0J250000D01*
G01*
X180820000Y-59400000D02*
X181340000Y-59400000D01*
X180820000Y-59400000D02*
X180820000Y-59699602D01*
X179819800Y-59700000D02*
G75*
G03*
X180080000Y-59950000I250200J0D01*
G01*
X196820000Y-69400000D02*
G75*
G03*
X196020000Y-70200000I0J-800000D01*
G01*
X197020000Y-69400000D02*
X197600000Y-69400000D01*
X196820000Y-69400000D02*
X197020000Y-69400000D01*
X182700000Y-60100000D02*
X182300000Y-60100000D01*
X181367432Y-59460994D02*
X181340000Y-59400000D01*
X181367432Y-59460994D02*
G75*
G03*
X182300000Y-60100000I932568J360994D01*
G01*
X179820000Y-59400000D02*
X179470000Y-59400000D01*
X179820000Y-59400000D02*
X179820000Y-59699602D01*
X179170000Y-59560555D02*
G75*
G03*
X179470000Y-59400000I0J360555D01*
G01*
X178260000Y-59949999D02*
G75*
G03*
X178520199Y-59700000I10000J249999D01*
G01*
X178260000Y-59950000D02*
X177780000Y-59950000D01*
X178520001Y-59400000D02*
X178520000Y-59699602D01*
X175960000Y-59949999D02*
G75*
G03*
X176220199Y-59700000I10000J249999D01*
G01*
X176220001Y-59400000D02*
X176220000Y-59699601D01*
X177519800Y-59700000D02*
G75*
G03*
X177780000Y-59950000I250200J0D01*
G01*
X177520000Y-59400000D02*
X177520000Y-59699602D01*
X175220000Y-59400000D02*
X175220000Y-59699602D01*
X175960000Y-59950000D02*
X175480000Y-59950000D01*
X175219800Y-59700000D02*
G75*
G03*
X175480000Y-59950000I250200J0D01*
G01*
X174698768Y-59536778D02*
X174675268Y-59549435D01*
X178520001Y-59400000D02*
X178870000Y-59400000D01*
X178869999Y-59400000D02*
G75*
G03*
X179169999Y-59560556I300001J200000D01*
G01*
X177520000Y-59400000D02*
X177170000Y-59400000D01*
X176870000Y-59560555D02*
G75*
G03*
X177170000Y-59400000I0J360555D01*
G01*
X176220001Y-59400000D02*
X176570000Y-59400000D01*
X176569999Y-59400000D02*
G75*
G03*
X176869999Y-59560556I300001J200000D01*
G01*
X174698768Y-59536778D02*
G75*
G03*
X174870001Y-59400000I-128768J336778D01*
G01*
X175220000Y-59400000D02*
X174870001Y-59400000D01*
X184180000Y-59400000D02*
X183660000Y-59400000D01*
X184920000Y-59949999D02*
G75*
G03*
X185180199Y-59700000I10000J249999D01*
G01*
X184180000Y-59400000D02*
X184180000Y-59699602D01*
X184179999Y-59699602D02*
G75*
G03*
X184430001Y-59949601I250001J2D01*
G01*
X184920000Y-59950000D02*
X184430000Y-59949602D01*
X185180000Y-59400000D02*
X185530000Y-59400000D01*
X185530000Y-59400000D02*
G75*
G03*
X185830000Y-59560555I300000J200000D01*
G01*
X185180000Y-59400000D02*
X185180000Y-59699601D01*
X188779999Y-59400000D02*
X188780000Y-59699601D01*
X186479800Y-59700000D02*
G75*
G03*
X186740000Y-59950000I250200J0D01*
G01*
X187480000Y-59400000D02*
X187480000Y-59699602D01*
X186740000Y-59950000D02*
X187219999Y-59950000D01*
X187219999Y-59949998D02*
G75*
G03*
X187480198Y-59700000I10001J249998D01*
G01*
X186479999Y-59400000D02*
X186480000Y-59699601D01*
X188779800Y-59700000D02*
G75*
G03*
X189040000Y-59950000I250200J0D01*
G01*
X189780000Y-59400000D02*
X189780000Y-59699602D01*
X189040000Y-59950000D02*
X189520000Y-59950000D01*
X186479999Y-59400000D02*
X186130000Y-59400000D01*
X189780000Y-59400000D02*
X190129999Y-59400000D01*
X188130001Y-59560555D02*
G75*
G03*
X188430000Y-59400000I-1J360555D01*
G01*
X189520000Y-59949999D02*
G75*
G03*
X189780199Y-59700000I10000J249999D01*
G01*
X187830000Y-59400000D02*
G75*
G03*
X188130001Y-59560555I300000J200000D01*
G01*
X187480000Y-59400000D02*
X187830000Y-59400000D01*
X190301232Y-59536777D02*
X190324732Y-59549435D01*
X185830002Y-59560555D02*
G75*
G03*
X186130000Y-59400000I-2J360555D01*
G01*
X190129999Y-59400000D02*
G75*
G03*
X190301232Y-59536778I300001J200000D01*
G01*
X188779999Y-59400000D02*
X188430000Y-59400000D01*
X183632567Y-59460994D02*
X183660000Y-59400000D01*
X182700000Y-60100000D02*
G75*
G03*
X183632568Y-59460994I0J1000000D01*
G01*
X180820000Y-84600000D02*
X181340000Y-84600000D01*
X180080000Y-84050001D02*
G75*
G03*
X179819801Y-84300000I-10000J-249999D01*
G01*
X180820000Y-84600000D02*
X180820000Y-84300398D01*
X180820002Y-84300398D02*
G75*
G03*
X180570000Y-84050398I-250002J-2D01*
G01*
X180080000Y-84050000D02*
X180570000Y-84050398D01*
X179820000Y-84600000D02*
X179470000Y-84600000D01*
X179470000Y-84600000D02*
G75*
G03*
X179170000Y-84439445I-300000J-200000D01*
G01*
X179820000Y-84600000D02*
X179820000Y-84300398D01*
X176220001Y-84600000D02*
X176220000Y-84300399D01*
X178520200Y-84300000D02*
G75*
G03*
X178260000Y-84050000I-250200J0D01*
G01*
X177520000Y-84600000D02*
X177520000Y-84300398D01*
X178260000Y-84050000D02*
X177780000Y-84050000D01*
X177780000Y-84050001D02*
G75*
G03*
X177519801Y-84300000I-10000J-249999D01*
G01*
X178520001Y-84600000D02*
X178520000Y-84300398D01*
X176220200Y-84300000D02*
G75*
G03*
X175960000Y-84050000I-250200J0D01*
G01*
X175220000Y-84600000D02*
X175220000Y-84300398D01*
X175960000Y-84050000D02*
X175480000Y-84050000D01*
X178520001Y-84600000D02*
X178870000Y-84600000D01*
X175220000Y-84600000D02*
X174870001Y-84600000D01*
X176869999Y-84439445D02*
G75*
G03*
X176570000Y-84600000I1J-360555D01*
G01*
X175480000Y-84050001D02*
G75*
G03*
X175219801Y-84300000I-10000J-249999D01*
G01*
X177170000Y-84600000D02*
G75*
G03*
X176870000Y-84439445I-300000J-200000D01*
G01*
X177520000Y-84600000D02*
X177170000Y-84600000D01*
X174698768Y-84463222D02*
X174675268Y-84450565D01*
X179169999Y-84439445D02*
G75*
G03*
X178870000Y-84600000I1J-360555D01*
G01*
X174870001Y-84600000D02*
G75*
G03*
X174698768Y-84463222I-300001J-200000D01*
G01*
X176220001Y-84600000D02*
X176570000Y-84600000D01*
X184180000Y-84600000D02*
X184180000Y-84300398D01*
X188779999Y-84600000D02*
X188780000Y-84300399D01*
X187480200Y-84300000D02*
G75*
G03*
X187219999Y-84050000I-250200J0D01*
G01*
X185180000Y-84600000D02*
X185180000Y-84300399D01*
X186740000Y-84050000D02*
X187219999Y-84050000D01*
X186479999Y-84600000D02*
X186480000Y-84300399D01*
X189040000Y-84050001D02*
G75*
G03*
X188779801Y-84300000I-10000J-249999D01*
G01*
X190301232Y-84463222D02*
G75*
G03*
X190129999Y-84600000I128768J-336778D01*
G01*
X186740000Y-84050001D02*
G75*
G03*
X186479801Y-84300000I-10000J-249999D01*
G01*
X189780000Y-84600000D02*
X190129999Y-84600000D01*
X188130001Y-84439445D02*
G75*
G03*
X187830000Y-84600000I-1J-360555D01*
G01*
X185830000Y-84439445D02*
G75*
G03*
X185530000Y-84600000I0J-360555D01*
G01*
X187480000Y-84600000D02*
X187480000Y-84300398D01*
X184430001Y-84050400D02*
G75*
G03*
X184180000Y-84300398I-1J-250000D01*
G01*
X188779999Y-84600000D02*
X188430000Y-84600000D01*
X188430001Y-84600000D02*
G75*
G03*
X188130001Y-84439444I-300001J-200000D01*
G01*
X189780200Y-84300000D02*
G75*
G03*
X189520000Y-84050000I-250200J0D01*
G01*
X184920000Y-84050000D02*
X184430000Y-84050398D01*
X184180000Y-84600000D02*
X183660000Y-84600000D01*
X187480000Y-84600000D02*
X187830000Y-84600000D01*
X186130001Y-84600000D02*
G75*
G03*
X185830002Y-84439444I-300001J-200000D01*
G01*
X183632568Y-84539006D02*
G75*
G03*
X182700000Y-83900000I-932568J-360994D01*
G01*
X185180200Y-84300000D02*
G75*
G03*
X184920000Y-84050000I-250200J0D01*
G01*
X189780000Y-84600000D02*
X189780000Y-84300398D01*
X189040000Y-84050000D02*
X189520000Y-84050000D01*
X186479999Y-84600000D02*
X186130000Y-84600000D01*
X190301232Y-84463223D02*
X190324732Y-84450565D01*
X185180000Y-84600000D02*
X185530000Y-84600000D01*
X183632567Y-84539006D02*
X183660000Y-84600000D01*
X181367432Y-84539006D02*
X181340000Y-84600000D01*
X182300000Y-83900000D02*
G75*
G03*
X181367432Y-84539006I0J-1000000D01*
G01*
X182700000Y-83900000D02*
X182300000Y-83900000D01*
X191250326Y-83968348D02*
G75*
G03*
X190324732Y-84450565I-50626J-1032252D01*
G01*
X195072693Y-82785418D02*
G75*
G03*
X194750000Y-82750000I-323893J-1463282D01*
G01*
X192624881Y-83994654D02*
X191250328Y-83968303D01*
X197600000Y-82500000D02*
X197300000Y-82800000D01*
X193403000Y-83584694D02*
X193469647Y-83471754D01*
X197600000Y-74600000D02*
X197600000Y-82500000D01*
X195150000Y-82800000D02*
X197300000Y-82800000D01*
X195072691Y-82785428D02*
X195150000Y-82800000D01*
X194750000Y-82749942D02*
G75*
G03*
X193469647Y-83471754I1300J-1498758D01*
G01*
X192624881Y-83994657D02*
G75*
G03*
X193403000Y-83584694I-21881J984957D01*
G01*
X171600020Y-83574985D02*
G75*
G03*
X172300790Y-83956406I771280J582585D01*
G01*
X172300002Y-60043627D02*
G75*
G03*
X171600000Y-60425000I71298J-963973D01*
G01*
X168000000Y-63000000D02*
X170250000Y-61250000D01*
X171531783Y-60529123D02*
X171600000Y-60425000D01*
X168000000Y-63000000D02*
X168000000Y-66750000D01*
X167600000Y-67700000D02*
X167600000Y-72150000D01*
X172300790Y-83956406D02*
X173799998Y-83967062D01*
X167706139Y-67555170D02*
G75*
G03*
X168000000Y-66750000I-956139J805170D01*
G01*
X171531783Y-83470877D02*
X171600000Y-83575000D01*
X168000000Y-81000000D02*
X170250000Y-82750000D01*
X174675305Y-84450540D02*
G75*
G03*
X173799998Y-83967062I-875005J-550060D01*
G01*
X172300790Y-60043594D02*
X173799998Y-60032938D01*
X171531783Y-83470877D02*
G75*
G03*
X170250000Y-82750000I-1281783J-779123D01*
G01*
X167600000Y-67700000D02*
X167706139Y-67555170D01*
X170250000Y-61250000D02*
G75*
G03*
X171531783Y-60529123I0J1500000D01*
G01*
X167600000Y-76300001D02*
X167600000Y-72150000D01*
X168000000Y-77250001D02*
G75*
G03*
X167706139Y-76444831I-1250000J1D01*
G01*
X168000000Y-81000000D02*
X168000000Y-77250001D01*
X167600000Y-76300001D02*
X167706139Y-76444831D01*
X173800000Y-60032894D02*
G75*
G03*
X174675268Y-59549437I300J1033494D01*
G01*
X192624881Y-60005346D02*
X191250328Y-60031697D01*
X198000000Y-71000000D02*
X196820000Y-71000000D01*
X193469697Y-60528216D02*
G75*
G03*
X194750000Y-61250000I1281603J776916D01*
G01*
X197600000Y-61500000D02*
X197300000Y-61200000D01*
X190324694Y-59549459D02*
G75*
G03*
X191250328Y-60031697I875006J550059D01*
G01*
X198000000Y-71000000D02*
X198000000Y-73000000D01*
X195072691Y-61214572D02*
X195150000Y-61200000D01*
X193403000Y-60415306D02*
X193469647Y-60528246D01*
X195150000Y-61200000D02*
X197300000Y-61200000D01*
X197600000Y-69400000D02*
X197600000Y-61500000D01*
X196020000Y-70200000D02*
G75*
G03*
X196820000Y-71000000I800000J0D01*
G01*
X194750000Y-61249990D02*
G75*
G03*
X195072691Y-61214572I-1200J1498690D01*
G01*
X193402998Y-60415307D02*
G75*
G03*
X192624881Y-60005346I-799998J-574993D01*
G01*
D10*
X192498992Y-83844652D02*
G75*
G03*
X193900000Y-83200000I-292J1845352D01*
G01*
X172631284Y-60101407D02*
G75*
G03*
X170750000Y-61325000I-141884J-1839893D01*
G01*
X170760111Y-82614891D02*
G75*
G03*
X172641421Y-83838478I1739389J616291D01*
G01*
X193901032Y-60794663D02*
G75*
G03*
X192500000Y-60150000I-1401332J-1200737D01*
G01*
D11*
X198000000Y-73000000D02*
X196820000Y-73000000D01*
X196820000Y-74600000D02*
X197020000Y-74600000D01*
X197020000Y-74600000D02*
X197600000Y-74600000D01*
X196020000Y-73800000D02*
G75*
G03*
X196820000Y-74600000I800000J0D01*
G01*
X196820000Y-73000000D02*
G75*
G03*
X196020000Y-73800000I0J-800000D01*
G01*
X180080000Y-59950000D02*
X180570000Y-59949602D01*
X180570000Y-59949600D02*
G75*
G03*
X180820000Y-59699602I0J250000D01*
G01*
X180820000Y-59400000D02*
X181340000Y-59400000D01*
X180820000Y-59400000D02*
X180820000Y-59699602D01*
X179819800Y-59700000D02*
G75*
G03*
X180080000Y-59950000I250200J0D01*
G01*
X196820000Y-69400000D02*
G75*
G03*
X196020000Y-70200000I0J-800000D01*
G01*
X197020000Y-69400000D02*
X197600000Y-69400000D01*
X196820000Y-69400000D02*
X197020000Y-69400000D01*
X182700000Y-60100000D02*
X182300000Y-60100000D01*
X181367432Y-59460994D02*
X181340000Y-59400000D01*
X181367432Y-59460994D02*
G75*
G03*
X182300000Y-60100000I932568J360994D01*
G01*
X179820000Y-59400000D02*
X179470000Y-59400000D01*
X179820000Y-59400000D02*
X179820000Y-59699602D01*
X179170000Y-59560555D02*
G75*
G03*
X179470000Y-59400000I0J360555D01*
G01*
X178260000Y-59949999D02*
G75*
G03*
X178520199Y-59700000I10000J249999D01*
G01*
X178260000Y-59950000D02*
X177780000Y-59950000D01*
X178520001Y-59400000D02*
X178520000Y-59699602D01*
X175960000Y-59949999D02*
G75*
G03*
X176220199Y-59700000I10000J249999D01*
G01*
X176220001Y-59400000D02*
X176220000Y-59699601D01*
X177519800Y-59700000D02*
G75*
G03*
X177780000Y-59950000I250200J0D01*
G01*
X177520000Y-59400000D02*
X177520000Y-59699602D01*
X175220000Y-59400000D02*
X175220000Y-59699602D01*
X175960000Y-59950000D02*
X175480000Y-59950000D01*
X175219800Y-59700000D02*
G75*
G03*
X175480000Y-59950000I250200J0D01*
G01*
X174698768Y-59536778D02*
X174675268Y-59549435D01*
X178520001Y-59400000D02*
X178870000Y-59400000D01*
X178869999Y-59400000D02*
G75*
G03*
X179169999Y-59560556I300001J200000D01*
G01*
X177520000Y-59400000D02*
X177170000Y-59400000D01*
X176870000Y-59560555D02*
G75*
G03*
X177170000Y-59400000I0J360555D01*
G01*
X176220001Y-59400000D02*
X176570000Y-59400000D01*
X176569999Y-59400000D02*
G75*
G03*
X176869999Y-59560556I300001J200000D01*
G01*
X174698768Y-59536778D02*
G75*
G03*
X174870001Y-59400000I-128768J336778D01*
G01*
X175220000Y-59400000D02*
X174870001Y-59400000D01*
X184180000Y-59400000D02*
X183660000Y-59400000D01*
X184920000Y-59949999D02*
G75*
G03*
X185180199Y-59700000I10000J249999D01*
G01*
X184180000Y-59400000D02*
X184180000Y-59699602D01*
X184179999Y-59699602D02*
G75*
G03*
X184430001Y-59949601I250001J2D01*
G01*
X184920000Y-59950000D02*
X184430000Y-59949602D01*
X185180000Y-59400000D02*
X185530000Y-59400000D01*
X185530000Y-59400000D02*
G75*
G03*
X185830000Y-59560555I300000J200000D01*
G01*
X185180000Y-59400000D02*
X185180000Y-59699601D01*
X188779999Y-59400000D02*
X188780000Y-59699601D01*
X186479800Y-59700000D02*
G75*
G03*
X186740000Y-59950000I250200J0D01*
G01*
X187480000Y-59400000D02*
X187480000Y-59699602D01*
X186740000Y-59950000D02*
X187219999Y-59950000D01*
X187219999Y-59949998D02*
G75*
G03*
X187480198Y-59700000I10001J249998D01*
G01*
X186479999Y-59400000D02*
X186480000Y-59699601D01*
X188779800Y-59700000D02*
G75*
G03*
X189040000Y-59950000I250200J0D01*
G01*
X189780000Y-59400000D02*
X189780000Y-59699602D01*
X189040000Y-59950000D02*
X189520000Y-59950000D01*
X186479999Y-59400000D02*
X186130000Y-59400000D01*
X189780000Y-59400000D02*
X190129999Y-59400000D01*
X188130001Y-59560555D02*
G75*
G03*
X188430000Y-59400000I-1J360555D01*
G01*
X189520000Y-59949999D02*
G75*
G03*
X189780199Y-59700000I10000J249999D01*
G01*
X187830000Y-59400000D02*
G75*
G03*
X188130001Y-59560555I300000J200000D01*
G01*
X187480000Y-59400000D02*
X187830000Y-59400000D01*
X190301232Y-59536777D02*
X190324732Y-59549435D01*
X185830002Y-59560555D02*
G75*
G03*
X186130000Y-59400000I-2J360555D01*
G01*
X190129999Y-59400000D02*
G75*
G03*
X190301232Y-59536778I300001J200000D01*
G01*
X188779999Y-59400000D02*
X188430000Y-59400000D01*
X183632567Y-59460994D02*
X183660000Y-59400000D01*
X182700000Y-60100000D02*
G75*
G03*
X183632568Y-59460994I0J1000000D01*
G01*
X180820000Y-84600000D02*
X181340000Y-84600000D01*
X180080000Y-84050001D02*
G75*
G03*
X179819801Y-84300000I-10000J-249999D01*
G01*
X180820000Y-84600000D02*
X180820000Y-84300398D01*
X180820002Y-84300398D02*
G75*
G03*
X180570000Y-84050398I-250002J-2D01*
G01*
X180080000Y-84050000D02*
X180570000Y-84050398D01*
X179820000Y-84600000D02*
X179470000Y-84600000D01*
X179470000Y-84600000D02*
G75*
G03*
X179170000Y-84439445I-300000J-200000D01*
G01*
X179820000Y-84600000D02*
X179820000Y-84300398D01*
X176220001Y-84600000D02*
X176220000Y-84300399D01*
X178520200Y-84300000D02*
G75*
G03*
X178260000Y-84050000I-250200J0D01*
G01*
X177520000Y-84600000D02*
X177520000Y-84300398D01*
X178260000Y-84050000D02*
X177780000Y-84050000D01*
X177780000Y-84050001D02*
G75*
G03*
X177519801Y-84300000I-10000J-249999D01*
G01*
X178520001Y-84600000D02*
X178520000Y-84300398D01*
X176220200Y-84300000D02*
G75*
G03*
X175960000Y-84050000I-250200J0D01*
G01*
X175220000Y-84600000D02*
X175220000Y-84300398D01*
X175960000Y-84050000D02*
X175480000Y-84050000D01*
X178520001Y-84600000D02*
X178870000Y-84600000D01*
X175220000Y-84600000D02*
X174870001Y-84600000D01*
X176869999Y-84439445D02*
G75*
G03*
X176570000Y-84600000I1J-360555D01*
G01*
X175480000Y-84050001D02*
G75*
G03*
X175219801Y-84300000I-10000J-249999D01*
G01*
X177170000Y-84600000D02*
G75*
G03*
X176870000Y-84439445I-300000J-200000D01*
G01*
X177520000Y-84600000D02*
X177170000Y-84600000D01*
X174698768Y-84463222D02*
X174675268Y-84450565D01*
X179169999Y-84439445D02*
G75*
G03*
X178870000Y-84600000I1J-360555D01*
G01*
X174870001Y-84600000D02*
G75*
G03*
X174698768Y-84463222I-300001J-200000D01*
G01*
X176220001Y-84600000D02*
X176570000Y-84600000D01*
X184180000Y-84600000D02*
X184180000Y-84300398D01*
X188779999Y-84600000D02*
X188780000Y-84300399D01*
X187480200Y-84300000D02*
G75*
G03*
X187219999Y-84050000I-250200J0D01*
G01*
X185180000Y-84600000D02*
X185180000Y-84300399D01*
X186740000Y-84050000D02*
X187219999Y-84050000D01*
X186479999Y-84600000D02*
X186480000Y-84300399D01*
X189040000Y-84050001D02*
G75*
G03*
X188779801Y-84300000I-10000J-249999D01*
G01*
X190301232Y-84463222D02*
G75*
G03*
X190129999Y-84600000I128768J-336778D01*
G01*
X186740000Y-84050001D02*
G75*
G03*
X186479801Y-84300000I-10000J-249999D01*
G01*
X189780000Y-84600000D02*
X190129999Y-84600000D01*
X188130001Y-84439445D02*
G75*
G03*
X187830000Y-84600000I-1J-360555D01*
G01*
X185830000Y-84439445D02*
G75*
G03*
X185530000Y-84600000I0J-360555D01*
G01*
X187480000Y-84600000D02*
X187480000Y-84300398D01*
X184430001Y-84050400D02*
G75*
G03*
X184180000Y-84300398I-1J-250000D01*
G01*
X188779999Y-84600000D02*
X188430000Y-84600000D01*
X188430001Y-84600000D02*
G75*
G03*
X188130001Y-84439444I-300001J-200000D01*
G01*
X189780200Y-84300000D02*
G75*
G03*
X189520000Y-84050000I-250200J0D01*
G01*
X184920000Y-84050000D02*
X184430000Y-84050398D01*
X184180000Y-84600000D02*
X183660000Y-84600000D01*
X187480000Y-84600000D02*
X187830000Y-84600000D01*
X186130001Y-84600000D02*
G75*
G03*
X185830002Y-84439444I-300001J-200000D01*
G01*
X183632568Y-84539006D02*
G75*
G03*
X182700000Y-83900000I-932568J-360994D01*
G01*
X185180200Y-84300000D02*
G75*
G03*
X184920000Y-84050000I-250200J0D01*
G01*
X189780000Y-84600000D02*
X189780000Y-84300398D01*
X189040000Y-84050000D02*
X189520000Y-84050000D01*
X186479999Y-84600000D02*
X186130000Y-84600000D01*
X190301232Y-84463223D02*
X190324732Y-84450565D01*
X185180000Y-84600000D02*
X185530000Y-84600000D01*
X183632567Y-84539006D02*
X183660000Y-84600000D01*
X181367432Y-84539006D02*
X181340000Y-84600000D01*
X182300000Y-83900000D02*
G75*
G03*
X181367432Y-84539006I0J-1000000D01*
G01*
X182700000Y-83900000D02*
X182300000Y-83900000D01*
X191250326Y-83968348D02*
G75*
G03*
X190324732Y-84450565I-50626J-1032252D01*
G01*
X195072693Y-82785418D02*
G75*
G03*
X194750000Y-82750000I-323893J-1463282D01*
G01*
X192624881Y-83994654D02*
X191250328Y-83968303D01*
X197600000Y-82500000D02*
X197300000Y-82800000D01*
X193403000Y-83584694D02*
X193469647Y-83471754D01*
X197600000Y-74600000D02*
X197600000Y-82500000D01*
X195150000Y-82800000D02*
X197300000Y-82800000D01*
X195072691Y-82785428D02*
X195150000Y-82800000D01*
X194750000Y-82749942D02*
G75*
G03*
X193469647Y-83471754I1300J-1498758D01*
G01*
X192624881Y-83994657D02*
G75*
G03*
X193403000Y-83584694I-21881J984957D01*
G01*
X171600020Y-83574985D02*
G75*
G03*
X172300790Y-83956406I771280J582585D01*
G01*
X172300002Y-60043627D02*
G75*
G03*
X171600000Y-60425000I71298J-963973D01*
G01*
X168000000Y-63000000D02*
X170250000Y-61250000D01*
X171531783Y-60529123D02*
X171600000Y-60425000D01*
X168000000Y-63000000D02*
X168000000Y-66750000D01*
X167600000Y-67700000D02*
X167600000Y-72150000D01*
X172300790Y-83956406D02*
X173799998Y-83967062D01*
X167706139Y-67555170D02*
G75*
G03*
X168000000Y-66750000I-956139J805170D01*
G01*
X171531783Y-83470877D02*
X171600000Y-83575000D01*
X168000000Y-81000000D02*
X170250000Y-82750000D01*
X174675305Y-84450540D02*
G75*
G03*
X173799998Y-83967062I-875005J-550060D01*
G01*
X172300790Y-60043594D02*
X173799998Y-60032938D01*
X171531783Y-83470877D02*
G75*
G03*
X170250000Y-82750000I-1281783J-779123D01*
G01*
X167600000Y-67700000D02*
X167706139Y-67555170D01*
X170250000Y-61250000D02*
G75*
G03*
X171531783Y-60529123I0J1500000D01*
G01*
X167600000Y-76300001D02*
X167600000Y-72150000D01*
X168000000Y-77250001D02*
G75*
G03*
X167706139Y-76444831I-1250000J1D01*
G01*
X168000000Y-81000000D02*
X168000000Y-77250001D01*
X167600000Y-76300001D02*
X167706139Y-76444831D01*
X173800000Y-60032894D02*
G75*
G03*
X174675268Y-59549437I300J1033494D01*
G01*
X192624881Y-60005346D02*
X191250328Y-60031697D01*
X198000000Y-71000000D02*
X196820000Y-71000000D01*
X193469697Y-60528216D02*
G75*
G03*
X194750000Y-61250000I1281603J776916D01*
G01*
X197600000Y-61500000D02*
X197300000Y-61200000D01*
X190324694Y-59549459D02*
G75*
G03*
X191250328Y-60031697I875006J550059D01*
G01*
X198000000Y-71000000D02*
X198000000Y-73000000D01*
X195072691Y-61214572D02*
X195150000Y-61200000D01*
X193403000Y-60415306D02*
X193469647Y-60528246D01*
X195150000Y-61200000D02*
X197300000Y-61200000D01*
X197600000Y-69400000D02*
X197600000Y-61500000D01*
X196020000Y-70200000D02*
G75*
G03*
X196820000Y-71000000I800000J0D01*
G01*
X194750000Y-61249990D02*
G75*
G03*
X195072691Y-61214572I-1200J1498690D01*
G01*
X193402998Y-60415307D02*
G75*
G03*
X192624881Y-60005346I-799998J-574993D01*
G01*
D12*
X182070000Y-63100000D03*
X182070000Y-62700000D03*
D13*
X182070000Y-62300000D03*
X182070000Y-61900000D03*
X181470000Y-61900000D03*
X181470000Y-62300000D03*
D12*
X181470000Y-62700000D03*
X181470000Y-63100000D03*
D14*
X174880000Y-66280000D03*
X175380000Y-66280000D03*
X175880000Y-66280000D03*
X176380000Y-66280000D03*
X176380000Y-64280000D03*
X175880000Y-64280000D03*
X175380000Y-64280000D03*
X174880000Y-64280000D03*
D15*
X175630000Y-65280000D03*
D16*
X174920000Y-61110000D03*
X174920000Y-62410000D03*
X174920000Y-63060000D03*
D17*
X175796000Y-62085000D03*
D16*
X174920000Y-61760000D03*
D18*
X177011000Y-62085000D03*
D16*
X177992000Y-61760000D03*
X177992000Y-62410000D03*
X177992000Y-63060000D03*
X177992000Y-61110000D03*
D13*
X177130000Y-65660000D03*
X177130000Y-66060000D03*
D12*
X177130000Y-66460000D03*
X177130000Y-66860000D03*
X177730000Y-66860000D03*
X177730000Y-66460000D03*
D13*
X177730000Y-66060000D03*
X177730000Y-65660000D03*
D19*
X174090000Y-66450000D03*
X174090000Y-65480000D03*
D20*
X172500000Y-82000000D03*
X172500000Y-62000000D03*
D19*
X184860000Y-65490000D03*
X184860000Y-64520000D03*
D21*
X172175000Y-65400000D03*
X169100000Y-65400000D03*
D22*
X188105000Y-64110000D03*
X189075000Y-64110000D03*
D23*
X173050000Y-78400000D03*
X172050000Y-78400000D03*
X172550000Y-79400000D03*
X171550000Y-79400000D03*
X172550000Y-78400000D03*
X173050000Y-79400000D03*
X172050000Y-79400000D03*
X171550000Y-78400000D03*
D24*
X181460000Y-76510000D03*
X181460000Y-79210000D03*
D25*
X183450000Y-67300000D03*
X183450000Y-64600000D03*
D26*
X190840000Y-77525000D03*
X190840000Y-78495000D03*
X180150000Y-78490000D03*
X180150000Y-79460000D03*
D27*
X176895000Y-79870000D03*
X175925000Y-79870000D03*
D28*
X191760000Y-77570000D03*
D29*
X197110000Y-77570000D03*
D30*
X193510000Y-79370000D03*
X194010000Y-79370000D03*
X194510000Y-79370000D03*
X195010000Y-79370000D03*
X195510000Y-79370000D03*
D31*
X195510000Y-75770000D03*
X195010000Y-75770000D03*
X194510000Y-75770000D03*
X194010000Y-75770000D03*
X193510000Y-75770000D03*
D28*
X191800000Y-66425000D03*
D29*
X197100000Y-66425000D03*
D31*
X195550000Y-64625000D03*
X195050000Y-64625000D03*
X194550000Y-64625000D03*
X194050000Y-64625000D03*
X193550000Y-64625000D03*
D30*
X193550000Y-68225000D03*
X194050000Y-68225000D03*
X194550000Y-68225000D03*
X195050000Y-68225000D03*
X195550000Y-68225000D03*
D32*
X192865000Y-73597000D03*
D33*
X192865000Y-71691000D03*
X194635000Y-71691000D03*
D32*
X194635000Y-73596500D03*
D13*
X182930000Y-80900000D03*
X182930000Y-81300000D03*
D12*
X182930000Y-81700000D03*
X182930000Y-82100000D03*
X183530000Y-82100000D03*
X183530000Y-81700000D03*
D13*
X183530000Y-81300000D03*
X183530000Y-80900000D03*
D12*
X187870000Y-78340000D03*
X187870000Y-77940000D03*
D13*
X187870000Y-77540000D03*
X187870000Y-77140000D03*
X187270000Y-77140000D03*
X187270000Y-77540000D03*
D12*
X187270000Y-77940000D03*
X187270000Y-78340000D03*
D34*
X185280000Y-60050000D03*
D35*
X184680000Y-59700000D03*
D34*
X184880000Y-60150000D03*
X185480000Y-59700000D03*
X184480000Y-60150000D03*
X184080000Y-60050000D03*
X183880000Y-59700000D03*
X187580000Y-60050000D03*
X187180000Y-60150000D03*
X186380000Y-60050000D03*
D35*
X186980000Y-59700000D03*
D34*
X186780000Y-60150000D03*
X187780000Y-59700000D03*
X186180000Y-59700000D03*
X190080000Y-59700000D03*
X189480000Y-60150000D03*
X189880000Y-60050000D03*
X188480000Y-59700000D03*
X188680000Y-60050000D03*
D35*
X189280000Y-59700000D03*
D34*
X189080000Y-60150000D03*
D36*
X197350000Y-73500000D03*
D37*
X197350000Y-73800000D03*
D38*
X197550000Y-74600000D03*
D34*
X179520000Y-84300000D03*
X181120000Y-84300000D03*
X179720000Y-83950000D03*
X180520000Y-83850000D03*
X180120000Y-83850000D03*
D35*
X180320000Y-84300000D03*
D34*
X180920000Y-83950000D03*
X178220000Y-83850000D03*
D35*
X178020000Y-84300000D03*
D34*
X177420000Y-83950000D03*
X178620000Y-83950000D03*
X177820000Y-83850000D03*
X178820000Y-84300000D03*
X177220000Y-84300000D03*
X175920000Y-83850000D03*
X175520000Y-83850000D03*
X174920000Y-84300000D03*
D35*
X175720000Y-84300000D03*
D34*
X175120000Y-83950000D03*
X176520000Y-84300000D03*
X176320000Y-83950000D03*
D39*
X183530000Y-80200000D03*
D40*
X184030000Y-80500000D03*
X184530000Y-80500000D03*
X185030000Y-80500000D03*
X185530000Y-80500000D03*
D39*
X186030000Y-80200000D03*
D41*
X186330000Y-79700000D03*
X186330000Y-79200000D03*
X186330000Y-78700000D03*
X186330000Y-78200000D03*
D39*
X186030000Y-77700000D03*
D40*
X185530000Y-77400000D03*
X185030000Y-77400000D03*
X184530000Y-77400000D03*
X184030000Y-77400000D03*
D39*
X183530000Y-77700000D03*
D41*
X183230000Y-78200000D03*
X183230000Y-78700000D03*
X183230000Y-79200000D03*
X183230000Y-79700000D03*
D42*
X184780000Y-78950000D03*
D14*
X185580000Y-66650000D03*
X186080000Y-66650000D03*
X186580000Y-66650000D03*
X187080000Y-66650000D03*
X187080000Y-64650000D03*
X186580000Y-64650000D03*
X186080000Y-64650000D03*
X185580000Y-64650000D03*
D15*
X186330000Y-65650000D03*
D16*
X183110000Y-61130000D03*
X183110000Y-62430000D03*
X183110000Y-63080000D03*
D17*
X183986000Y-62105000D03*
D16*
X183110000Y-61780000D03*
D18*
X185201000Y-62105000D03*
D16*
X186182000Y-62430000D03*
X186182000Y-63080000D03*
X186182000Y-61780000D03*
X186182000Y-61130000D03*
D43*
X188560000Y-64850000D03*
X188560000Y-65350000D03*
X188560000Y-65850000D03*
X188560000Y-66350000D03*
X190560000Y-66350000D03*
X190560000Y-65850000D03*
X190560000Y-65350000D03*
X190560000Y-64850000D03*
D44*
X189560000Y-65600000D03*
D45*
X190120000Y-77720000D03*
X189620000Y-77720000D03*
X189120000Y-77720000D03*
X188620000Y-77720000D03*
X188620000Y-79720000D03*
X189120000Y-79720000D03*
X189620000Y-79720000D03*
X190120000Y-79720000D03*
D46*
X189370000Y-78720000D03*
D47*
X190100000Y-63050000D03*
D48*
X189224000Y-62075000D03*
D47*
X190100000Y-61100000D03*
X190100000Y-61750000D03*
X190100000Y-62400000D03*
D49*
X188009000Y-62075000D03*
D47*
X187028000Y-62400000D03*
X187028000Y-61100000D03*
X187028000Y-61750000D03*
X187028000Y-63050000D03*
X190080000Y-82890000D03*
X190080000Y-82240000D03*
X190080000Y-80940000D03*
D48*
X189204000Y-81915000D03*
D47*
X190080000Y-81590000D03*
D49*
X187989000Y-81915000D03*
D47*
X187008000Y-82240000D03*
X187008000Y-80940000D03*
X187008000Y-81590000D03*
X187008000Y-82890000D03*
D45*
X179420000Y-77350000D03*
X178920000Y-77350000D03*
X178420000Y-77350000D03*
X177920000Y-77350000D03*
X177920000Y-79350000D03*
X178420000Y-79350000D03*
X178920000Y-79350000D03*
X179420000Y-79350000D03*
D46*
X178670000Y-78350000D03*
D47*
X181890000Y-82870000D03*
X181890000Y-82220000D03*
X181890000Y-81570000D03*
D48*
X181014000Y-81895000D03*
D47*
X181890000Y-80920000D03*
D49*
X179799000Y-81895000D03*
D47*
X178818000Y-82220000D03*
X178818000Y-81570000D03*
X178818000Y-80920000D03*
X178818000Y-82870000D03*
D50*
X176440000Y-79150000D03*
X176440000Y-78650000D03*
X176440000Y-78150000D03*
X176440000Y-77650000D03*
X174440000Y-77650000D03*
X174440000Y-78150000D03*
X174440000Y-78650000D03*
X174440000Y-79150000D03*
D51*
X175440000Y-78400000D03*
D16*
X174900000Y-80950000D03*
D17*
X175776000Y-81925000D03*
D16*
X174900000Y-82900000D03*
X174900000Y-82250000D03*
X174900000Y-81600000D03*
D18*
X176991000Y-81925000D03*
D16*
X177972000Y-82250000D03*
X177972000Y-82900000D03*
X177972000Y-81600000D03*
X177972000Y-80950000D03*
D52*
X170807660Y-80556428D03*
D53*
X174242340Y-83343572D03*
D54*
X174600000Y-75850000D03*
X172600000Y-75850000D03*
X172600000Y-75350000D03*
X172600000Y-74850000D03*
X172600000Y-74350000D03*
X172600000Y-73850000D03*
X172600000Y-73350000D03*
X172600000Y-72850000D03*
X172600000Y-72350000D03*
X172600000Y-71850000D03*
X173100000Y-75850000D03*
X173100000Y-71850000D03*
X173600000Y-75850000D03*
X173600000Y-74850000D03*
X173600000Y-74350000D03*
X173600000Y-73850000D03*
X173600000Y-73350000D03*
X173600000Y-72850000D03*
X173600000Y-71850000D03*
X174100000Y-75850000D03*
X174100000Y-74850000D03*
X174100000Y-74350000D03*
X174100000Y-73350000D03*
X174100000Y-71850000D03*
X174600000Y-74850000D03*
X174600000Y-72850000D03*
X174600000Y-71850000D03*
X175100000Y-75850000D03*
X175100000Y-74850000D03*
X175100000Y-74350000D03*
X175100000Y-73350000D03*
X175100000Y-72850000D03*
X175100000Y-71850000D03*
X175600000Y-75850000D03*
X175600000Y-74850000D03*
X175600000Y-74350000D03*
X175600000Y-73850000D03*
X175600000Y-73350000D03*
X175600000Y-72850000D03*
X175600000Y-71850000D03*
X176100000Y-75850000D03*
X176100000Y-71850000D03*
X176600000Y-75850000D03*
X176600000Y-75350000D03*
X176600000Y-74850000D03*
X176600000Y-74350000D03*
X176600000Y-73850000D03*
X176600000Y-73350000D03*
X176600000Y-72850000D03*
X176600000Y-72350000D03*
X176600000Y-71850000D03*
D55*
X170975000Y-74175000D03*
X167975000Y-74175000D03*
D56*
X169475000Y-75650000D03*
D57*
X169475000Y-72700000D03*
D58*
X168600000Y-76580000D03*
X168600000Y-77220000D03*
D59*
X181625000Y-70075000D03*
X181625000Y-68875000D03*
X181625000Y-67675000D03*
D23*
X169350000Y-77700000D03*
X170350000Y-77700000D03*
X170850000Y-76700000D03*
X169850000Y-76700000D03*
X169850000Y-77700000D03*
X170850000Y-77700000D03*
X169350000Y-76700000D03*
X170350000Y-76700000D03*
X172550000Y-77700000D03*
X173050000Y-76700000D03*
X171550000Y-77700000D03*
X172050000Y-76700000D03*
X172550000Y-76700000D03*
X172050000Y-77700000D03*
X173050000Y-77700000D03*
X171550000Y-76700000D03*
X169350000Y-79400000D03*
X170350000Y-79400000D03*
X169850000Y-78400000D03*
X170850000Y-78400000D03*
X170850000Y-79400000D03*
X170350000Y-78400000D03*
X169850000Y-79400000D03*
X169350000Y-78400000D03*
D60*
X194241808Y-63344264D03*
D52*
X190800589Y-60549357D03*
D61*
X194750000Y-70750000D03*
X194750000Y-70100000D03*
X194750000Y-69450000D03*
X192850000Y-69450000D03*
X192850000Y-70100000D03*
X192850000Y-70750000D03*
D62*
X181125000Y-73600000D03*
X181125000Y-73100000D03*
X181125000Y-72600000D03*
X181125000Y-72100000D03*
X181125000Y-71600000D03*
D63*
X180400000Y-71375000D03*
X179900000Y-71375000D03*
X179400000Y-71375000D03*
D62*
X178675000Y-71600000D03*
X178675000Y-72100000D03*
X178675000Y-72600000D03*
X178675000Y-73100000D03*
X178675000Y-73600000D03*
D63*
X179400000Y-73825000D03*
X179900000Y-73825000D03*
X180400000Y-73825000D03*
D64*
X174300000Y-68050000D03*
X174300000Y-68850000D03*
X174300000Y-69650000D03*
X174300000Y-70450000D03*
X178100000Y-70450000D03*
X178100000Y-69650000D03*
X178100000Y-68850000D03*
X178100000Y-68050000D03*
D65*
X176200000Y-69250000D03*
D66*
X191250000Y-76225000D03*
X191250000Y-75575000D03*
X191250000Y-74925000D03*
X191250000Y-74275000D03*
X191250000Y-73625000D03*
X191250000Y-72975000D03*
X191250000Y-72325000D03*
X191250000Y-71675000D03*
X191250000Y-71025000D03*
X191250000Y-70375000D03*
X191250000Y-69725000D03*
X191250000Y-69075000D03*
X191250000Y-68425000D03*
X191250000Y-67775000D03*
X185550000Y-67775000D03*
X185550000Y-68425000D03*
X185550000Y-69075000D03*
X185550000Y-69725000D03*
X185550000Y-70375000D03*
X185550000Y-71025000D03*
X185550000Y-71675000D03*
X185550000Y-72325000D03*
X185550000Y-72975000D03*
X185550000Y-73625000D03*
X185550000Y-74275000D03*
X185550000Y-74925000D03*
X185550000Y-75575000D03*
X185550000Y-76225000D03*
D67*
X184200000Y-72300000D03*
X183600000Y-72300000D03*
D68*
X184350000Y-76150000D03*
X182775000Y-76150000D03*
X184200000Y-75000000D03*
X182625000Y-75000000D03*
D27*
X184485000Y-74000000D03*
X183515000Y-74000000D03*
X184485000Y-73100000D03*
X183515000Y-73100000D03*
D19*
X177800000Y-74000000D03*
X177800000Y-73030000D03*
D69*
X178025000Y-74800000D03*
X178675000Y-74800000D03*
X179325000Y-74800000D03*
X179975000Y-74800000D03*
X179975000Y-76400000D03*
X179325000Y-76400000D03*
X178675000Y-76400000D03*
X178025000Y-76400000D03*
D27*
X184485000Y-71550000D03*
X183515000Y-71550000D03*
D22*
X180700000Y-75250000D03*
X181670000Y-75250000D03*
D70*
X181470000Y-63800000D03*
D71*
X180970000Y-63500000D03*
X180470000Y-63500000D03*
X179970000Y-63500000D03*
X179470000Y-63500000D03*
D70*
X178970000Y-63800000D03*
D72*
X178670000Y-64300000D03*
X178670000Y-64800000D03*
X178670000Y-65300000D03*
X178670000Y-65800000D03*
D70*
X178970000Y-66300000D03*
D71*
X179470000Y-66600000D03*
X179970000Y-66600000D03*
X180470000Y-66600000D03*
X180970000Y-66600000D03*
D70*
X181470000Y-66300000D03*
D72*
X181770000Y-65800000D03*
X181770000Y-65300000D03*
X181770000Y-64800000D03*
X181770000Y-64300000D03*
D73*
X180220000Y-65050000D03*
D28*
X167900000Y-69400000D03*
D74*
X173400000Y-69400000D03*
D75*
X172700000Y-67900000D03*
X168600000Y-67900000D03*
D31*
X171650000Y-67600000D03*
X171150000Y-67600000D03*
X170650000Y-67600000D03*
X170150000Y-67600000D03*
X169650000Y-67600000D03*
D30*
X169650000Y-71200000D03*
X170150000Y-71200000D03*
X170650000Y-71200000D03*
X171150000Y-71200000D03*
X171650000Y-71200000D03*
D58*
X168600000Y-80180000D03*
X168600000Y-80820000D03*
X168600000Y-78280000D03*
X168600000Y-78920000D03*
D67*
X171675000Y-72400000D03*
X171075000Y-72400000D03*
D76*
X171900000Y-74440000D03*
X171900000Y-73800000D03*
D77*
X169875000Y-81200000D03*
D78*
X197150000Y-64175000D03*
D68*
X196937500Y-63150000D03*
X195362500Y-63150000D03*
X196937500Y-82000000D03*
X195362500Y-82000000D03*
D79*
X195362500Y-80850000D03*
X196937500Y-80850000D03*
D68*
X196937500Y-62000000D03*
X195362500Y-62000000D03*
D80*
X184050000Y-69150000D03*
X184050000Y-68550000D03*
D81*
X174705000Y-76800000D03*
X175305000Y-76800000D03*
X176020000Y-76800000D03*
X176620000Y-76800000D03*
D67*
X171750000Y-73000000D03*
X171150000Y-73000000D03*
X183850000Y-82650000D03*
X183250000Y-82650000D03*
X183850000Y-83250000D03*
X183250000Y-83250000D03*
X187870000Y-78840000D03*
X187270000Y-78840000D03*
X187820000Y-79440000D03*
X187220000Y-79440000D03*
D81*
X181170000Y-61360000D03*
X181770000Y-61360000D03*
X181170000Y-60760000D03*
X181770000Y-60760000D03*
X177130000Y-65160000D03*
X177730000Y-65160000D03*
X177130000Y-64560000D03*
X177730000Y-64560000D03*
D82*
X168750000Y-63250000D03*
X168750000Y-63850000D03*
D83*
X185980000Y-81870000D03*
D84*
X185480000Y-81870000D03*
X184980000Y-81870000D03*
D83*
X184480000Y-81870000D03*
X184480000Y-82870000D03*
D84*
X184980000Y-82870000D03*
X185480000Y-82870000D03*
D83*
X185980000Y-82870000D03*
D85*
X179020000Y-62130000D03*
D86*
X179520000Y-62130000D03*
X180020000Y-62130000D03*
D85*
X180520000Y-62130000D03*
X180520000Y-61130000D03*
D86*
X180020000Y-61130000D03*
X179520000Y-61130000D03*
D85*
X179020000Y-61130000D03*
D87*
X169960000Y-62900000D03*
X169360000Y-62900000D03*
D88*
X180225000Y-67925000D03*
X178925000Y-67925000D03*
X179575000Y-69925000D03*
D20*
X192500000Y-82000000D03*
D34*
X175120000Y-60050000D03*
X175520000Y-60150000D03*
X174920000Y-59700000D03*
X176320000Y-60050000D03*
X175920000Y-60150000D03*
X176520000Y-59700000D03*
D35*
X175720000Y-59700000D03*
X180320000Y-59700000D03*
D34*
X179520000Y-59700000D03*
X179720000Y-60050000D03*
X180520000Y-60150000D03*
X180120000Y-60150000D03*
X180920000Y-60050000D03*
X181120000Y-59700000D03*
X177220000Y-59700000D03*
X178620000Y-60050000D03*
X178820000Y-59700000D03*
D35*
X178020000Y-59700000D03*
D34*
X178220000Y-60150000D03*
X177420000Y-60050000D03*
X177820000Y-60150000D03*
D75*
X192460000Y-79070000D03*
X196560000Y-79070000D03*
X196600000Y-64925000D03*
X192500000Y-64925000D03*
D34*
X184480000Y-83850000D03*
X184880000Y-83850000D03*
X185280000Y-83950000D03*
D35*
X184680000Y-84300000D03*
D34*
X183880000Y-84300000D03*
X185480000Y-84300000D03*
X184080000Y-83950000D03*
D35*
X186980000Y-84300000D03*
D34*
X187180000Y-83850000D03*
X186180000Y-84300000D03*
X186780000Y-83850000D03*
X186380000Y-83950000D03*
X187780000Y-84300000D03*
X187580000Y-83950000D03*
D38*
X197550000Y-69400000D03*
D89*
X196550000Y-69300000D03*
X196550000Y-69300000D03*
D37*
X197350000Y-70200000D03*
D36*
X197350000Y-70500000D03*
D34*
X188680000Y-83950000D03*
X190080000Y-84300000D03*
X189080000Y-83850000D03*
X189880000Y-83950000D03*
X188480000Y-84300000D03*
D35*
X189280000Y-84300000D03*
D34*
X189480000Y-83850000D03*
D20*
X192500000Y-62000000D03*
M02*
