G04 #@! TF.GenerationSoftware,KiCad,Pcbnew,6.0.4-6f826c9f35~116~ubuntu18.04.1*
G04 #@! TF.CreationDate,2022-03-27T23:14:13+02:00*
G04 #@! TF.ProjectId,ultimateFC,756c7469-6d61-4746-9546-432e6b696361,rev?*
G04 #@! TF.SameCoordinates,Original*
G04 #@! TF.FileFunction,AssemblyDrawing,Bot*
%FSLAX46Y46*%
G04 Gerber Fmt 4.6, Leading zero omitted, Abs format (unit mm)*
G04 Created by KiCad (PCBNEW 6.0.4-6f826c9f35~116~ubuntu18.04.1) date 2022-03-27 23:14:13*
%MOMM*%
%LPD*%
G01*
G04 APERTURE LIST*
G04 #@! TA.AperFunction,Profile*
%ADD10C,0.200000*%
G04 #@! TD*
%ADD11C,0.100000*%
%ADD12C,0.040000*%
%ADD13C,0.050000*%
%ADD14C,0.120000*%
%ADD15C,0.080000*%
G04 APERTURE END LIST*
D10*
X198000000Y-73000000D02*
X196820000Y-73000000D01*
X196820000Y-74600000D02*
X197020000Y-74600000D01*
X197020000Y-74600000D02*
X197600000Y-74600000D01*
X196020000Y-73800000D02*
G75*
G03*
X196820000Y-74600000I800000J0D01*
G01*
X196820000Y-73000000D02*
G75*
G03*
X196020000Y-73800000I0J-800000D01*
G01*
X180080000Y-59950000D02*
X180570000Y-59949602D01*
X180570000Y-59949600D02*
G75*
G03*
X180820000Y-59699602I0J250000D01*
G01*
X180820000Y-59400000D02*
X181340000Y-59400000D01*
X180820000Y-59400000D02*
X180820000Y-59699602D01*
X179819800Y-59700000D02*
G75*
G03*
X180080000Y-59950000I250200J0D01*
G01*
X196820000Y-69400000D02*
G75*
G03*
X196020000Y-70200000I0J-800000D01*
G01*
X197020000Y-69400000D02*
X197600000Y-69400000D01*
X196820000Y-69400000D02*
X197020000Y-69400000D01*
X182700000Y-60100000D02*
X182300000Y-60100000D01*
X181367432Y-59460994D02*
X181340000Y-59400000D01*
X181367432Y-59460994D02*
G75*
G03*
X182300000Y-60100000I932568J360994D01*
G01*
X179820000Y-59400000D02*
X179470000Y-59400000D01*
X179820000Y-59400000D02*
X179820000Y-59699602D01*
X179170000Y-59560555D02*
G75*
G03*
X179470000Y-59400000I0J360555D01*
G01*
X178260000Y-59949999D02*
G75*
G03*
X178520199Y-59700000I10000J249999D01*
G01*
X178260000Y-59950000D02*
X177780000Y-59950000D01*
X178520001Y-59400000D02*
X178520000Y-59699602D01*
X175960000Y-59949999D02*
G75*
G03*
X176220199Y-59700000I10000J249999D01*
G01*
X176220001Y-59400000D02*
X176220000Y-59699601D01*
X177519800Y-59700000D02*
G75*
G03*
X177780000Y-59950000I250200J0D01*
G01*
X177520000Y-59400000D02*
X177520000Y-59699602D01*
X175220000Y-59400000D02*
X175220000Y-59699602D01*
X175960000Y-59950000D02*
X175480000Y-59950000D01*
X175219800Y-59700000D02*
G75*
G03*
X175480000Y-59950000I250200J0D01*
G01*
X174698768Y-59536778D02*
X174675268Y-59549435D01*
X178520001Y-59400000D02*
X178870000Y-59400000D01*
X178869999Y-59400000D02*
G75*
G03*
X179169999Y-59560556I300001J200000D01*
G01*
X177520000Y-59400000D02*
X177170000Y-59400000D01*
X176870000Y-59560555D02*
G75*
G03*
X177170000Y-59400000I0J360555D01*
G01*
X176220001Y-59400000D02*
X176570000Y-59400000D01*
X176569999Y-59400000D02*
G75*
G03*
X176869999Y-59560556I300001J200000D01*
G01*
X174698768Y-59536778D02*
G75*
G03*
X174870001Y-59400000I-128768J336778D01*
G01*
X175220000Y-59400000D02*
X174870001Y-59400000D01*
X184180000Y-59400000D02*
X183660000Y-59400000D01*
X184920000Y-59949999D02*
G75*
G03*
X185180199Y-59700000I10000J249999D01*
G01*
X184180000Y-59400000D02*
X184180000Y-59699602D01*
X184179999Y-59699602D02*
G75*
G03*
X184430001Y-59949601I250001J2D01*
G01*
X184920000Y-59950000D02*
X184430000Y-59949602D01*
X185180000Y-59400000D02*
X185530000Y-59400000D01*
X185530000Y-59400000D02*
G75*
G03*
X185830000Y-59560555I300000J200000D01*
G01*
X185180000Y-59400000D02*
X185180000Y-59699601D01*
X188779999Y-59400000D02*
X188780000Y-59699601D01*
X186479800Y-59700000D02*
G75*
G03*
X186740000Y-59950000I250200J0D01*
G01*
X187480000Y-59400000D02*
X187480000Y-59699602D01*
X186740000Y-59950000D02*
X187219999Y-59950000D01*
X187219999Y-59949998D02*
G75*
G03*
X187480198Y-59700000I10001J249998D01*
G01*
X186479999Y-59400000D02*
X186480000Y-59699601D01*
X188779800Y-59700000D02*
G75*
G03*
X189040000Y-59950000I250200J0D01*
G01*
X189780000Y-59400000D02*
X189780000Y-59699602D01*
X189040000Y-59950000D02*
X189520000Y-59950000D01*
X186479999Y-59400000D02*
X186130000Y-59400000D01*
X189780000Y-59400000D02*
X190129999Y-59400000D01*
X188130001Y-59560555D02*
G75*
G03*
X188430000Y-59400000I-1J360555D01*
G01*
X189520000Y-59949999D02*
G75*
G03*
X189780199Y-59700000I10000J249999D01*
G01*
X187830000Y-59400000D02*
G75*
G03*
X188130001Y-59560555I300000J200000D01*
G01*
X187480000Y-59400000D02*
X187830000Y-59400000D01*
X190301232Y-59536777D02*
X190324732Y-59549435D01*
X185830002Y-59560555D02*
G75*
G03*
X186130000Y-59400000I-2J360555D01*
G01*
X190129999Y-59400000D02*
G75*
G03*
X190301232Y-59536778I300001J200000D01*
G01*
X188779999Y-59400000D02*
X188430000Y-59400000D01*
X183632567Y-59460994D02*
X183660000Y-59400000D01*
X182700000Y-60100000D02*
G75*
G03*
X183632568Y-59460994I0J1000000D01*
G01*
X180820000Y-84600000D02*
X181340000Y-84600000D01*
X180080000Y-84050001D02*
G75*
G03*
X179819801Y-84300000I-10000J-249999D01*
G01*
X180820000Y-84600000D02*
X180820000Y-84300398D01*
X180820002Y-84300398D02*
G75*
G03*
X180570000Y-84050398I-250002J-2D01*
G01*
X180080000Y-84050000D02*
X180570000Y-84050398D01*
X179820000Y-84600000D02*
X179470000Y-84600000D01*
X179470000Y-84600000D02*
G75*
G03*
X179170000Y-84439445I-300000J-200000D01*
G01*
X179820000Y-84600000D02*
X179820000Y-84300398D01*
X176220001Y-84600000D02*
X176220000Y-84300399D01*
X178520200Y-84300000D02*
G75*
G03*
X178260000Y-84050000I-250200J0D01*
G01*
X177520000Y-84600000D02*
X177520000Y-84300398D01*
X178260000Y-84050000D02*
X177780000Y-84050000D01*
X177780000Y-84050001D02*
G75*
G03*
X177519801Y-84300000I-10000J-249999D01*
G01*
X178520001Y-84600000D02*
X178520000Y-84300398D01*
X176220200Y-84300000D02*
G75*
G03*
X175960000Y-84050000I-250200J0D01*
G01*
X175220000Y-84600000D02*
X175220000Y-84300398D01*
X175960000Y-84050000D02*
X175480000Y-84050000D01*
X178520001Y-84600000D02*
X178870000Y-84600000D01*
X175220000Y-84600000D02*
X174870001Y-84600000D01*
X176869999Y-84439445D02*
G75*
G03*
X176570000Y-84600000I1J-360555D01*
G01*
X175480000Y-84050001D02*
G75*
G03*
X175219801Y-84300000I-10000J-249999D01*
G01*
X177170000Y-84600000D02*
G75*
G03*
X176870000Y-84439445I-300000J-200000D01*
G01*
X177520000Y-84600000D02*
X177170000Y-84600000D01*
X174698768Y-84463222D02*
X174675268Y-84450565D01*
X179169999Y-84439445D02*
G75*
G03*
X178870000Y-84600000I1J-360555D01*
G01*
X174870001Y-84600000D02*
G75*
G03*
X174698768Y-84463222I-300001J-200000D01*
G01*
X176220001Y-84600000D02*
X176570000Y-84600000D01*
X184180000Y-84600000D02*
X184180000Y-84300398D01*
X188779999Y-84600000D02*
X188780000Y-84300399D01*
X187480200Y-84300000D02*
G75*
G03*
X187219999Y-84050000I-250200J0D01*
G01*
X185180000Y-84600000D02*
X185180000Y-84300399D01*
X186740000Y-84050000D02*
X187219999Y-84050000D01*
X186479999Y-84600000D02*
X186480000Y-84300399D01*
X189040000Y-84050001D02*
G75*
G03*
X188779801Y-84300000I-10000J-249999D01*
G01*
X190301232Y-84463222D02*
G75*
G03*
X190129999Y-84600000I128768J-336778D01*
G01*
X186740000Y-84050001D02*
G75*
G03*
X186479801Y-84300000I-10000J-249999D01*
G01*
X189780000Y-84600000D02*
X190129999Y-84600000D01*
X188130001Y-84439445D02*
G75*
G03*
X187830000Y-84600000I-1J-360555D01*
G01*
X185830000Y-84439445D02*
G75*
G03*
X185530000Y-84600000I0J-360555D01*
G01*
X187480000Y-84600000D02*
X187480000Y-84300398D01*
X184430001Y-84050400D02*
G75*
G03*
X184180000Y-84300398I-1J-250000D01*
G01*
X188779999Y-84600000D02*
X188430000Y-84600000D01*
X188430001Y-84600000D02*
G75*
G03*
X188130001Y-84439444I-300001J-200000D01*
G01*
X189780200Y-84300000D02*
G75*
G03*
X189520000Y-84050000I-250200J0D01*
G01*
X184920000Y-84050000D02*
X184430000Y-84050398D01*
X184180000Y-84600000D02*
X183660000Y-84600000D01*
X187480000Y-84600000D02*
X187830000Y-84600000D01*
X186130001Y-84600000D02*
G75*
G03*
X185830002Y-84439444I-300001J-200000D01*
G01*
X183632568Y-84539006D02*
G75*
G03*
X182700000Y-83900000I-932568J-360994D01*
G01*
X185180200Y-84300000D02*
G75*
G03*
X184920000Y-84050000I-250200J0D01*
G01*
X189780000Y-84600000D02*
X189780000Y-84300398D01*
X189040000Y-84050000D02*
X189520000Y-84050000D01*
X186479999Y-84600000D02*
X186130000Y-84600000D01*
X190301232Y-84463223D02*
X190324732Y-84450565D01*
X185180000Y-84600000D02*
X185530000Y-84600000D01*
X183632567Y-84539006D02*
X183660000Y-84600000D01*
X181367432Y-84539006D02*
X181340000Y-84600000D01*
X182300000Y-83900000D02*
G75*
G03*
X181367432Y-84539006I0J-1000000D01*
G01*
X182700000Y-83900000D02*
X182300000Y-83900000D01*
X191250326Y-83968348D02*
G75*
G03*
X190324732Y-84450565I-50626J-1032252D01*
G01*
X195072693Y-82785418D02*
G75*
G03*
X194750000Y-82750000I-323893J-1463282D01*
G01*
X192624881Y-83994654D02*
X191250328Y-83968303D01*
X197600000Y-82500000D02*
X197300000Y-82800000D01*
X193403000Y-83584694D02*
X193469647Y-83471754D01*
X197600000Y-74600000D02*
X197600000Y-82500000D01*
X195150000Y-82800000D02*
X197300000Y-82800000D01*
X195072691Y-82785428D02*
X195150000Y-82800000D01*
X194750000Y-82749942D02*
G75*
G03*
X193469647Y-83471754I1300J-1498758D01*
G01*
X192624881Y-83994657D02*
G75*
G03*
X193403000Y-83584694I-21881J984957D01*
G01*
X171600020Y-83574985D02*
G75*
G03*
X172300790Y-83956406I771280J582585D01*
G01*
X172300002Y-60043627D02*
G75*
G03*
X171600000Y-60425000I71298J-963973D01*
G01*
X168000000Y-63000000D02*
X170250000Y-61250000D01*
X171531783Y-60529123D02*
X171600000Y-60425000D01*
X168000000Y-63000000D02*
X168000000Y-66750000D01*
X167600000Y-67700000D02*
X167600000Y-72150000D01*
X172300790Y-83956406D02*
X173799998Y-83967062D01*
X167706139Y-67555170D02*
G75*
G03*
X168000000Y-66750000I-956139J805170D01*
G01*
X171531783Y-83470877D02*
X171600000Y-83575000D01*
X168000000Y-81000000D02*
X170250000Y-82750000D01*
X174675305Y-84450540D02*
G75*
G03*
X173799998Y-83967062I-875005J-550060D01*
G01*
X172300790Y-60043594D02*
X173799998Y-60032938D01*
X171531783Y-83470877D02*
G75*
G03*
X170250000Y-82750000I-1281783J-779123D01*
G01*
X167600000Y-67700000D02*
X167706139Y-67555170D01*
X170250000Y-61250000D02*
G75*
G03*
X171531783Y-60529123I0J1500000D01*
G01*
X167600000Y-76300001D02*
X167600000Y-72150000D01*
X168000000Y-77250001D02*
G75*
G03*
X167706139Y-76444831I-1250000J1D01*
G01*
X168000000Y-81000000D02*
X168000000Y-77250001D01*
X167600000Y-76300001D02*
X167706139Y-76444831D01*
X173800000Y-60032894D02*
G75*
G03*
X174675268Y-59549437I300J1033494D01*
G01*
X192624881Y-60005346D02*
X191250328Y-60031697D01*
X198000000Y-71000000D02*
X196820000Y-71000000D01*
X193469697Y-60528216D02*
G75*
G03*
X194750000Y-61250000I1281603J776916D01*
G01*
X197600000Y-61500000D02*
X197300000Y-61200000D01*
X190324694Y-59549459D02*
G75*
G03*
X191250328Y-60031697I875006J550059D01*
G01*
X198000000Y-71000000D02*
X198000000Y-73000000D01*
X195072691Y-61214572D02*
X195150000Y-61200000D01*
X193403000Y-60415306D02*
X193469647Y-60528246D01*
X195150000Y-61200000D02*
X197300000Y-61200000D01*
X197600000Y-69400000D02*
X197600000Y-61500000D01*
X196020000Y-70200000D02*
G75*
G03*
X196820000Y-71000000I800000J0D01*
G01*
X194750000Y-61249990D02*
G75*
G03*
X195072691Y-61214572I-1200J1498690D01*
G01*
X193402998Y-60415307D02*
G75*
G03*
X192624881Y-60005346I-799998J-574993D01*
G01*
D11*
X181975000Y-61025000D02*
X181425000Y-60475000D01*
X192775000Y-65125000D02*
X192225000Y-65675000D01*
X196825000Y-78275000D02*
X196275000Y-78825000D01*
X190175000Y-60975000D02*
X189625000Y-60425000D01*
X175350000Y-83525000D02*
X174800000Y-82975000D01*
X190175000Y-80825000D02*
X189625000Y-80275000D01*
X175375000Y-63725000D02*
X174825000Y-63175000D01*
X174825000Y-70825000D02*
X174275000Y-70275000D01*
X183575000Y-83525000D02*
X183025000Y-82975000D01*
D12*
X193660000Y-69987142D02*
X193674285Y-70001428D01*
X193717142Y-70015714D01*
X193745714Y-70015714D01*
X193788571Y-70001428D01*
X193817142Y-69972857D01*
X193831428Y-69944285D01*
X193845714Y-69887142D01*
X193845714Y-69844285D01*
X193831428Y-69787142D01*
X193817142Y-69758571D01*
X193788571Y-69730000D01*
X193745714Y-69715714D01*
X193717142Y-69715714D01*
X193674285Y-69730000D01*
X193660000Y-69744285D01*
X193402857Y-69715714D02*
X193460000Y-69715714D01*
X193488571Y-69730000D01*
X193502857Y-69744285D01*
X193531428Y-69787142D01*
X193545714Y-69844285D01*
X193545714Y-69958571D01*
X193531428Y-69987142D01*
X193517142Y-70001428D01*
X193488571Y-70015714D01*
X193431428Y-70015714D01*
X193402857Y-70001428D01*
X193388571Y-69987142D01*
X193374285Y-69958571D01*
X193374285Y-69887142D01*
X193388571Y-69858571D01*
X193402857Y-69844285D01*
X193431428Y-69830000D01*
X193488571Y-69830000D01*
X193517142Y-69844285D01*
X193531428Y-69858571D01*
X193545714Y-69887142D01*
X193487500Y-73867142D02*
X193501785Y-73881428D01*
X193544642Y-73895714D01*
X193573214Y-73895714D01*
X193616071Y-73881428D01*
X193644642Y-73852857D01*
X193658928Y-73824285D01*
X193673214Y-73767142D01*
X193673214Y-73724285D01*
X193658928Y-73667142D01*
X193644642Y-73638571D01*
X193616071Y-73610000D01*
X193573214Y-73595714D01*
X193544642Y-73595714D01*
X193501785Y-73610000D01*
X193487500Y-73624285D01*
X193316071Y-73724285D02*
X193344642Y-73710000D01*
X193358928Y-73695714D01*
X193373214Y-73667142D01*
X193373214Y-73652857D01*
X193358928Y-73624285D01*
X193344642Y-73610000D01*
X193316071Y-73595714D01*
X193258928Y-73595714D01*
X193230357Y-73610000D01*
X193216071Y-73624285D01*
X193201785Y-73652857D01*
X193201785Y-73667142D01*
X193216071Y-73695714D01*
X193230357Y-73710000D01*
X193258928Y-73724285D01*
X193316071Y-73724285D01*
X193344642Y-73738571D01*
X193358928Y-73752857D01*
X193373214Y-73781428D01*
X193373214Y-73838571D01*
X193358928Y-73867142D01*
X193344642Y-73881428D01*
X193316071Y-73895714D01*
X193258928Y-73895714D01*
X193230357Y-73881428D01*
X193216071Y-73867142D01*
X193201785Y-73838571D01*
X193201785Y-73781428D01*
X193216071Y-73752857D01*
X193230357Y-73738571D01*
X193258928Y-73724285D01*
X193655357Y-72717142D02*
X193669642Y-72731428D01*
X193712500Y-72745714D01*
X193741071Y-72745714D01*
X193783928Y-72731428D01*
X193812500Y-72702857D01*
X193826785Y-72674285D01*
X193841071Y-72617142D01*
X193841071Y-72574285D01*
X193826785Y-72517142D01*
X193812500Y-72488571D01*
X193783928Y-72460000D01*
X193741071Y-72445714D01*
X193712500Y-72445714D01*
X193669642Y-72460000D01*
X193655357Y-72474285D01*
X193369642Y-72745714D02*
X193541071Y-72745714D01*
X193455357Y-72745714D02*
X193455357Y-72445714D01*
X193483928Y-72488571D01*
X193512500Y-72517142D01*
X193541071Y-72531428D01*
X193083928Y-72745714D02*
X193255357Y-72745714D01*
X193169642Y-72745714D02*
X193169642Y-72445714D01*
X193198214Y-72488571D01*
X193226785Y-72517142D01*
X193255357Y-72531428D01*
X191675714Y-71082500D02*
X191675714Y-70939642D01*
X191375714Y-70939642D01*
X191404285Y-71168214D02*
X191390000Y-71182500D01*
X191375714Y-71211071D01*
X191375714Y-71282500D01*
X191390000Y-71311071D01*
X191404285Y-71325357D01*
X191432857Y-71339642D01*
X191461428Y-71339642D01*
X191504285Y-71325357D01*
X191675714Y-71153928D01*
X191675714Y-71339642D01*
X180185714Y-61871428D02*
X180428571Y-61871428D01*
X180457142Y-61885714D01*
X180471428Y-61900000D01*
X180485714Y-61928571D01*
X180485714Y-61985714D01*
X180471428Y-62014285D01*
X180457142Y-62028571D01*
X180428571Y-62042857D01*
X180185714Y-62042857D01*
X180314285Y-62228571D02*
X180300000Y-62200000D01*
X180285714Y-62185714D01*
X180257142Y-62171428D01*
X180242857Y-62171428D01*
X180214285Y-62185714D01*
X180200000Y-62200000D01*
X180185714Y-62228571D01*
X180185714Y-62285714D01*
X180200000Y-62314285D01*
X180214285Y-62328571D01*
X180242857Y-62342857D01*
X180257142Y-62342857D01*
X180285714Y-62328571D01*
X180300000Y-62314285D01*
X180314285Y-62285714D01*
X180314285Y-62228571D01*
X180328571Y-62200000D01*
X180342857Y-62185714D01*
X180371428Y-62171428D01*
X180428571Y-62171428D01*
X180457142Y-62185714D01*
X180471428Y-62200000D01*
X180485714Y-62228571D01*
X180485714Y-62285714D01*
X180471428Y-62314285D01*
X180457142Y-62328571D01*
X180428571Y-62342857D01*
X180371428Y-62342857D01*
X180342857Y-62328571D01*
X180328571Y-62314285D01*
X180314285Y-62285714D01*
X180947142Y-64837142D02*
X180961428Y-64822857D01*
X180975714Y-64780000D01*
X180975714Y-64751428D01*
X180961428Y-64708571D01*
X180932857Y-64680000D01*
X180904285Y-64665714D01*
X180847142Y-64651428D01*
X180804285Y-64651428D01*
X180747142Y-64665714D01*
X180718571Y-64680000D01*
X180690000Y-64708571D01*
X180675714Y-64751428D01*
X180675714Y-64780000D01*
X180690000Y-64822857D01*
X180704285Y-64837142D01*
X180975714Y-65122857D02*
X180975714Y-64951428D01*
X180975714Y-65037142D02*
X180675714Y-65037142D01*
X180718571Y-65008571D01*
X180747142Y-64980000D01*
X180761428Y-64951428D01*
X180675714Y-65308571D02*
X180675714Y-65337142D01*
X180690000Y-65365714D01*
X180704285Y-65380000D01*
X180732857Y-65394285D01*
X180790000Y-65408571D01*
X180861428Y-65408571D01*
X180918571Y-65394285D01*
X180947142Y-65380000D01*
X180961428Y-65365714D01*
X180975714Y-65337142D01*
X180975714Y-65308571D01*
X180961428Y-65280000D01*
X180947142Y-65265714D01*
X180918571Y-65251428D01*
X180861428Y-65237142D01*
X180790000Y-65237142D01*
X180732857Y-65251428D01*
X180704285Y-65265714D01*
X180690000Y-65280000D01*
X180675714Y-65308571D01*
X178505714Y-65421428D02*
X178748571Y-65421428D01*
X178777142Y-65435714D01*
X178791428Y-65450000D01*
X178805714Y-65478571D01*
X178805714Y-65535714D01*
X178791428Y-65564285D01*
X178777142Y-65578571D01*
X178748571Y-65592857D01*
X178505714Y-65592857D01*
X178505714Y-65707142D02*
X178505714Y-65907142D01*
X178805714Y-65778571D01*
X175668571Y-65435714D02*
X175668571Y-65678571D01*
X175654285Y-65707142D01*
X175640000Y-65721428D01*
X175611428Y-65735714D01*
X175554285Y-65735714D01*
X175525714Y-65721428D01*
X175511428Y-65707142D01*
X175497142Y-65678571D01*
X175497142Y-65435714D01*
X175340000Y-65735714D02*
X175282857Y-65735714D01*
X175254285Y-65721428D01*
X175240000Y-65707142D01*
X175211428Y-65664285D01*
X175197142Y-65607142D01*
X175197142Y-65492857D01*
X175211428Y-65464285D01*
X175225714Y-65450000D01*
X175254285Y-65435714D01*
X175311428Y-65435714D01*
X175340000Y-65450000D01*
X175354285Y-65464285D01*
X175368571Y-65492857D01*
X175368571Y-65564285D01*
X175354285Y-65592857D01*
X175340000Y-65607142D01*
X175311428Y-65621428D01*
X175254285Y-65621428D01*
X175225714Y-65607142D01*
X175211428Y-65592857D01*
X175197142Y-65564285D01*
X176235714Y-61728571D02*
X176478571Y-61728571D01*
X176507142Y-61742857D01*
X176521428Y-61757142D01*
X176535714Y-61785714D01*
X176535714Y-61842857D01*
X176521428Y-61871428D01*
X176507142Y-61885714D01*
X176478571Y-61900000D01*
X176235714Y-61900000D01*
X176535714Y-62200000D02*
X176535714Y-62028571D01*
X176535714Y-62114285D02*
X176235714Y-62114285D01*
X176278571Y-62085714D01*
X176307142Y-62057142D01*
X176321428Y-62028571D01*
X176535714Y-62485714D02*
X176535714Y-62314285D01*
X176535714Y-62400000D02*
X176235714Y-62400000D01*
X176278571Y-62371428D01*
X176307142Y-62342857D01*
X176321428Y-62314285D01*
X176607857Y-64257142D02*
X176622142Y-64271428D01*
X176665000Y-64285714D01*
X176693571Y-64285714D01*
X176736428Y-64271428D01*
X176765000Y-64242857D01*
X176779285Y-64214285D01*
X176793571Y-64157142D01*
X176793571Y-64114285D01*
X176779285Y-64057142D01*
X176765000Y-64028571D01*
X176736428Y-64000000D01*
X176693571Y-63985714D01*
X176665000Y-63985714D01*
X176622142Y-64000000D01*
X176607857Y-64014285D01*
X176322142Y-64285714D02*
X176493571Y-64285714D01*
X176407857Y-64285714D02*
X176407857Y-63985714D01*
X176436428Y-64028571D01*
X176465000Y-64057142D01*
X176493571Y-64071428D01*
X176222142Y-63985714D02*
X176022142Y-63985714D01*
X176150714Y-64285714D01*
X177657142Y-70707142D02*
X177671428Y-70692857D01*
X177685714Y-70650000D01*
X177685714Y-70621428D01*
X177671428Y-70578571D01*
X177642857Y-70550000D01*
X177614285Y-70535714D01*
X177557142Y-70521428D01*
X177514285Y-70521428D01*
X177457142Y-70535714D01*
X177428571Y-70550000D01*
X177400000Y-70578571D01*
X177385714Y-70621428D01*
X177385714Y-70650000D01*
X177400000Y-70692857D01*
X177414285Y-70707142D01*
X177385714Y-70807142D02*
X177385714Y-70992857D01*
X177500000Y-70892857D01*
X177500000Y-70935714D01*
X177514285Y-70964285D01*
X177528571Y-70978571D01*
X177557142Y-70992857D01*
X177628571Y-70992857D01*
X177657142Y-70978571D01*
X177671428Y-70964285D01*
X177685714Y-70935714D01*
X177685714Y-70850000D01*
X177671428Y-70821428D01*
X177657142Y-70807142D01*
X177385714Y-71264285D02*
X177385714Y-71121428D01*
X177528571Y-71107142D01*
X177514285Y-71121428D01*
X177500000Y-71150000D01*
X177500000Y-71221428D01*
X177514285Y-71250000D01*
X177528571Y-71264285D01*
X177557142Y-71278571D01*
X177628571Y-71278571D01*
X177657142Y-71264285D01*
X177671428Y-71250000D01*
X177685714Y-71221428D01*
X177685714Y-71150000D01*
X177671428Y-71121428D01*
X177657142Y-71107142D01*
X179657142Y-70707142D02*
X179671428Y-70692857D01*
X179685714Y-70650000D01*
X179685714Y-70621428D01*
X179671428Y-70578571D01*
X179642857Y-70550000D01*
X179614285Y-70535714D01*
X179557142Y-70521428D01*
X179514285Y-70521428D01*
X179457142Y-70535714D01*
X179428571Y-70550000D01*
X179400000Y-70578571D01*
X179385714Y-70621428D01*
X179385714Y-70650000D01*
X179400000Y-70692857D01*
X179414285Y-70707142D01*
X179385714Y-70807142D02*
X179385714Y-70992857D01*
X179500000Y-70892857D01*
X179500000Y-70935714D01*
X179514285Y-70964285D01*
X179528571Y-70978571D01*
X179557142Y-70992857D01*
X179628571Y-70992857D01*
X179657142Y-70978571D01*
X179671428Y-70964285D01*
X179685714Y-70935714D01*
X179685714Y-70850000D01*
X179671428Y-70821428D01*
X179657142Y-70807142D01*
X179385714Y-71250000D02*
X179385714Y-71192857D01*
X179400000Y-71164285D01*
X179414285Y-71150000D01*
X179457142Y-71121428D01*
X179514285Y-71107142D01*
X179628571Y-71107142D01*
X179657142Y-71121428D01*
X179671428Y-71135714D01*
X179685714Y-71164285D01*
X179685714Y-71221428D01*
X179671428Y-71250000D01*
X179657142Y-71264285D01*
X179628571Y-71278571D01*
X179557142Y-71278571D01*
X179528571Y-71264285D01*
X179514285Y-71250000D01*
X179500000Y-71221428D01*
X179500000Y-71164285D01*
X179514285Y-71135714D01*
X179528571Y-71121428D01*
X179557142Y-71107142D01*
X174627857Y-67207142D02*
X174642142Y-67221428D01*
X174685000Y-67235714D01*
X174713571Y-67235714D01*
X174756428Y-67221428D01*
X174785000Y-67192857D01*
X174799285Y-67164285D01*
X174813571Y-67107142D01*
X174813571Y-67064285D01*
X174799285Y-67007142D01*
X174785000Y-66978571D01*
X174756428Y-66950000D01*
X174713571Y-66935714D01*
X174685000Y-66935714D01*
X174642142Y-66950000D01*
X174627857Y-66964285D01*
X174527857Y-66935714D02*
X174342142Y-66935714D01*
X174442142Y-67050000D01*
X174399285Y-67050000D01*
X174370714Y-67064285D01*
X174356428Y-67078571D01*
X174342142Y-67107142D01*
X174342142Y-67178571D01*
X174356428Y-67207142D01*
X174370714Y-67221428D01*
X174399285Y-67235714D01*
X174485000Y-67235714D01*
X174513571Y-67221428D01*
X174527857Y-67207142D01*
X174242142Y-66935714D02*
X174042142Y-66935714D01*
X174170714Y-67235714D01*
X173207142Y-68707142D02*
X173221428Y-68692857D01*
X173235714Y-68650000D01*
X173235714Y-68621428D01*
X173221428Y-68578571D01*
X173192857Y-68550000D01*
X173164285Y-68535714D01*
X173107142Y-68521428D01*
X173064285Y-68521428D01*
X173007142Y-68535714D01*
X172978571Y-68550000D01*
X172950000Y-68578571D01*
X172935714Y-68621428D01*
X172935714Y-68650000D01*
X172950000Y-68692857D01*
X172964285Y-68707142D01*
X172935714Y-68807142D02*
X172935714Y-68992857D01*
X173050000Y-68892857D01*
X173050000Y-68935714D01*
X173064285Y-68964285D01*
X173078571Y-68978571D01*
X173107142Y-68992857D01*
X173178571Y-68992857D01*
X173207142Y-68978571D01*
X173221428Y-68964285D01*
X173235714Y-68935714D01*
X173235714Y-68850000D01*
X173221428Y-68821428D01*
X173207142Y-68807142D01*
X173064285Y-69164285D02*
X173050000Y-69135714D01*
X173035714Y-69121428D01*
X173007142Y-69107142D01*
X172992857Y-69107142D01*
X172964285Y-69121428D01*
X172950000Y-69135714D01*
X172935714Y-69164285D01*
X172935714Y-69221428D01*
X172950000Y-69250000D01*
X172964285Y-69264285D01*
X172992857Y-69278571D01*
X173007142Y-69278571D01*
X173035714Y-69264285D01*
X173050000Y-69250000D01*
X173064285Y-69221428D01*
X173064285Y-69164285D01*
X173078571Y-69135714D01*
X173092857Y-69121428D01*
X173121428Y-69107142D01*
X173178571Y-69107142D01*
X173207142Y-69121428D01*
X173221428Y-69135714D01*
X173235714Y-69164285D01*
X173235714Y-69221428D01*
X173221428Y-69250000D01*
X173207142Y-69264285D01*
X173178571Y-69278571D01*
X173121428Y-69278571D01*
X173092857Y-69264285D01*
X173078571Y-69250000D01*
X173064285Y-69221428D01*
X177755357Y-73857141D02*
X177769642Y-73871427D01*
X177812500Y-73885713D01*
X177841071Y-73885713D01*
X177883928Y-73871427D01*
X177912500Y-73842856D01*
X177926785Y-73814284D01*
X177941071Y-73757141D01*
X177941071Y-73714284D01*
X177926785Y-73657141D01*
X177912500Y-73628570D01*
X177883928Y-73599999D01*
X177841071Y-73585713D01*
X177812500Y-73585713D01*
X177769642Y-73599999D01*
X177755357Y-73614284D01*
X177655357Y-73585713D02*
X177469642Y-73585713D01*
X177569642Y-73699999D01*
X177526785Y-73699999D01*
X177498214Y-73714284D01*
X177483928Y-73728570D01*
X177469642Y-73757141D01*
X177469642Y-73828570D01*
X177483928Y-73857141D01*
X177498214Y-73871427D01*
X177526785Y-73885713D01*
X177612500Y-73885713D01*
X177641071Y-73871427D01*
X177655357Y-73857141D01*
X177326785Y-73885713D02*
X177269642Y-73885713D01*
X177241071Y-73871427D01*
X177226785Y-73857141D01*
X177198214Y-73814284D01*
X177183928Y-73757141D01*
X177183928Y-73642856D01*
X177198214Y-73614284D01*
X177212500Y-73599999D01*
X177241071Y-73585713D01*
X177298214Y-73585713D01*
X177326785Y-73599999D01*
X177341071Y-73614284D01*
X177355357Y-73642856D01*
X177355357Y-73714284D01*
X177341071Y-73742856D01*
X177326785Y-73757141D01*
X177298214Y-73771427D01*
X177241071Y-73771427D01*
X177212500Y-73757141D01*
X177198214Y-73742856D01*
X177183928Y-73714284D01*
X177292857Y-75357142D02*
X177307142Y-75371428D01*
X177350000Y-75385714D01*
X177378571Y-75385714D01*
X177421428Y-75371428D01*
X177450000Y-75342857D01*
X177464285Y-75314285D01*
X177478571Y-75257142D01*
X177478571Y-75214285D01*
X177464285Y-75157142D01*
X177450000Y-75128571D01*
X177421428Y-75100000D01*
X177378571Y-75085714D01*
X177350000Y-75085714D01*
X177307142Y-75100000D01*
X177292857Y-75114285D01*
X177035714Y-75185714D02*
X177035714Y-75385714D01*
X177107142Y-75071428D02*
X177178571Y-75285714D01*
X176992857Y-75285714D01*
X176821428Y-75085714D02*
X176792857Y-75085714D01*
X176764285Y-75100000D01*
X176750000Y-75114285D01*
X176735714Y-75142857D01*
X176721428Y-75200000D01*
X176721428Y-75271428D01*
X176735714Y-75328571D01*
X176750000Y-75357142D01*
X176764285Y-75371428D01*
X176792857Y-75385714D01*
X176821428Y-75385714D01*
X176850000Y-75371428D01*
X176864285Y-75357142D01*
X176878571Y-75328571D01*
X176892857Y-75271428D01*
X176892857Y-75200000D01*
X176878571Y-75142857D01*
X176864285Y-75114285D01*
X176850000Y-75100000D01*
X176821428Y-75085714D01*
X180603571Y-67012500D02*
X180603571Y-66912500D01*
X180760714Y-66912500D02*
X180460714Y-66912500D01*
X180460714Y-67055357D01*
X180603571Y-67269642D02*
X180617857Y-67312500D01*
X180632142Y-67326785D01*
X180660714Y-67341071D01*
X180703571Y-67341071D01*
X180732142Y-67326785D01*
X180746428Y-67312500D01*
X180760714Y-67283928D01*
X180760714Y-67169642D01*
X180460714Y-67169642D01*
X180460714Y-67269642D01*
X180475000Y-67298214D01*
X180489285Y-67312500D01*
X180517857Y-67326785D01*
X180546428Y-67326785D01*
X180575000Y-67312500D01*
X180589285Y-67298214D01*
X180603571Y-67269642D01*
X180603571Y-67169642D01*
X180460714Y-67612500D02*
X180460714Y-67469642D01*
X180603571Y-67455357D01*
X180589285Y-67469642D01*
X180575000Y-67498214D01*
X180575000Y-67569642D01*
X180589285Y-67598214D01*
X180603571Y-67612500D01*
X180632142Y-67626785D01*
X180703571Y-67626785D01*
X180732142Y-67612500D01*
X180746428Y-67598214D01*
X180760714Y-67569642D01*
X180760714Y-67498214D01*
X180746428Y-67469642D01*
X180732142Y-67455357D01*
X174353571Y-75425000D02*
X174353571Y-75325000D01*
X174510714Y-75325000D02*
X174210714Y-75325000D01*
X174210714Y-75467857D01*
X174353571Y-75682142D02*
X174367857Y-75725000D01*
X174382142Y-75739285D01*
X174410714Y-75753571D01*
X174453571Y-75753571D01*
X174482142Y-75739285D01*
X174496428Y-75725000D01*
X174510714Y-75696428D01*
X174510714Y-75582142D01*
X174210714Y-75582142D01*
X174210714Y-75682142D01*
X174225000Y-75710714D01*
X174239285Y-75725000D01*
X174267857Y-75739285D01*
X174296428Y-75739285D01*
X174325000Y-75725000D01*
X174339285Y-75710714D01*
X174353571Y-75682142D01*
X174353571Y-75582142D01*
X174210714Y-76010714D02*
X174210714Y-75953571D01*
X174225000Y-75925000D01*
X174239285Y-75910714D01*
X174282142Y-75882142D01*
X174339285Y-75867857D01*
X174453571Y-75867857D01*
X174482142Y-75882142D01*
X174496428Y-75896428D01*
X174510714Y-75925000D01*
X174510714Y-75982142D01*
X174496428Y-76010714D01*
X174482142Y-76025000D01*
X174453571Y-76039285D01*
X174382142Y-76039285D01*
X174353571Y-76025000D01*
X174339285Y-76010714D01*
X174325000Y-75982142D01*
X174325000Y-75925000D01*
X174339285Y-75896428D01*
X174353571Y-75882142D01*
X174382142Y-75867857D01*
X174935714Y-72700000D02*
X174935714Y-72557142D01*
X174635714Y-72557142D01*
X174635714Y-72771428D02*
X174635714Y-72957142D01*
X174750000Y-72857142D01*
X174750000Y-72900000D01*
X174764285Y-72928571D01*
X174778571Y-72942857D01*
X174807142Y-72957142D01*
X174878571Y-72957142D01*
X174907142Y-72942857D01*
X174921428Y-72928571D01*
X174935714Y-72900000D01*
X174935714Y-72814285D01*
X174921428Y-72785714D01*
X174907142Y-72771428D01*
D13*
X175621428Y-69035714D02*
X175621428Y-69278571D01*
X175607142Y-69307142D01*
X175592857Y-69321428D01*
X175564285Y-69335714D01*
X175507142Y-69335714D01*
X175478571Y-69321428D01*
X175464285Y-69307142D01*
X175450000Y-69278571D01*
X175450000Y-69035714D01*
X175335714Y-69035714D02*
X175150000Y-69035714D01*
X175250000Y-69150000D01*
X175207142Y-69150000D01*
X175178571Y-69164285D01*
X175164285Y-69178571D01*
X175150000Y-69207142D01*
X175150000Y-69278571D01*
X175164285Y-69307142D01*
X175178571Y-69321428D01*
X175207142Y-69335714D01*
X175292857Y-69335714D01*
X175321428Y-69321428D01*
X175335714Y-69307142D01*
X175035714Y-69064285D02*
X175021428Y-69050000D01*
X174992857Y-69035714D01*
X174921428Y-69035714D01*
X174892857Y-69050000D01*
X174878571Y-69064285D01*
X174864285Y-69092857D01*
X174864285Y-69121428D01*
X174878571Y-69164285D01*
X175050000Y-69335714D01*
X174864285Y-69335714D01*
D12*
X170892857Y-65807142D02*
X170907142Y-65821428D01*
X170950000Y-65835714D01*
X170978571Y-65835714D01*
X171021428Y-65821428D01*
X171050000Y-65792857D01*
X171064285Y-65764285D01*
X171078571Y-65707142D01*
X171078571Y-65664285D01*
X171064285Y-65607142D01*
X171050000Y-65578571D01*
X171021428Y-65550000D01*
X170978571Y-65535714D01*
X170950000Y-65535714D01*
X170907142Y-65550000D01*
X170892857Y-65564285D01*
X170607142Y-65835714D02*
X170778571Y-65835714D01*
X170692857Y-65835714D02*
X170692857Y-65535714D01*
X170721428Y-65578571D01*
X170750000Y-65607142D01*
X170778571Y-65621428D01*
X170492857Y-65564285D02*
X170478571Y-65550000D01*
X170450000Y-65535714D01*
X170378571Y-65535714D01*
X170350000Y-65550000D01*
X170335714Y-65564285D01*
X170321428Y-65592857D01*
X170321428Y-65621428D01*
X170335714Y-65664285D01*
X170507142Y-65835714D01*
X170321428Y-65835714D01*
X172492857Y-79107142D02*
X172507142Y-79121428D01*
X172550000Y-79135714D01*
X172578571Y-79135714D01*
X172621428Y-79121428D01*
X172650000Y-79092857D01*
X172664285Y-79064285D01*
X172678571Y-79007142D01*
X172678571Y-78964285D01*
X172664285Y-78907142D01*
X172650000Y-78878571D01*
X172621428Y-78850000D01*
X172578571Y-78835714D01*
X172550000Y-78835714D01*
X172507142Y-78850000D01*
X172492857Y-78864285D01*
X172207142Y-79135714D02*
X172378571Y-79135714D01*
X172292857Y-79135714D02*
X172292857Y-78835714D01*
X172321428Y-78878571D01*
X172350000Y-78907142D01*
X172378571Y-78921428D01*
X171950000Y-78935714D02*
X171950000Y-79135714D01*
X172021428Y-78821428D02*
X172092857Y-79035714D01*
X171907142Y-79035714D01*
X170292857Y-78907142D02*
X170307142Y-78921428D01*
X170350000Y-78935714D01*
X170378571Y-78935714D01*
X170421428Y-78921428D01*
X170450000Y-78892857D01*
X170464285Y-78864285D01*
X170478571Y-78807142D01*
X170478571Y-78764285D01*
X170464285Y-78707142D01*
X170450000Y-78678571D01*
X170421428Y-78650000D01*
X170378571Y-78635714D01*
X170350000Y-78635714D01*
X170307142Y-78650000D01*
X170292857Y-78664285D01*
X170007142Y-78935714D02*
X170178571Y-78935714D01*
X170092857Y-78935714D02*
X170092857Y-78635714D01*
X170121428Y-78678571D01*
X170150000Y-78707142D01*
X170178571Y-78721428D01*
X169735714Y-78635714D02*
X169878571Y-78635714D01*
X169892857Y-78778571D01*
X169878571Y-78764285D01*
X169850000Y-78750000D01*
X169778571Y-78750000D01*
X169750000Y-78764285D01*
X169735714Y-78778571D01*
X169721428Y-78807142D01*
X169721428Y-78878571D01*
X169735714Y-78907142D01*
X169750000Y-78921428D01*
X169778571Y-78935714D01*
X169850000Y-78935714D01*
X169878571Y-78921428D01*
X169892857Y-78907142D01*
X184957142Y-78777142D02*
X184971428Y-78762857D01*
X184985714Y-78720000D01*
X184985714Y-78691428D01*
X184971428Y-78648571D01*
X184942857Y-78620000D01*
X184914285Y-78605714D01*
X184857142Y-78591428D01*
X184814285Y-78591428D01*
X184757142Y-78605714D01*
X184728571Y-78620000D01*
X184700000Y-78648571D01*
X184685714Y-78691428D01*
X184685714Y-78720000D01*
X184700000Y-78762857D01*
X184714285Y-78777142D01*
X184985714Y-79062857D02*
X184985714Y-78891428D01*
X184985714Y-78977142D02*
X184685714Y-78977142D01*
X184728571Y-78948571D01*
X184757142Y-78920000D01*
X184771428Y-78891428D01*
X184685714Y-79320000D02*
X184685714Y-79262857D01*
X184700000Y-79234285D01*
X184714285Y-79220000D01*
X184757142Y-79191428D01*
X184814285Y-79177142D01*
X184928571Y-79177142D01*
X184957142Y-79191428D01*
X184971428Y-79205714D01*
X184985714Y-79234285D01*
X184985714Y-79291428D01*
X184971428Y-79320000D01*
X184957142Y-79334285D01*
X184928571Y-79348571D01*
X184857142Y-79348571D01*
X184828571Y-79334285D01*
X184814285Y-79320000D01*
X184800000Y-79291428D01*
X184800000Y-79234285D01*
X184814285Y-79205714D01*
X184828571Y-79191428D01*
X184857142Y-79177142D01*
X188777857Y-79967142D02*
X188792142Y-79981428D01*
X188835000Y-79995714D01*
X188863571Y-79995714D01*
X188906428Y-79981428D01*
X188935000Y-79952857D01*
X188949285Y-79924285D01*
X188963571Y-79867142D01*
X188963571Y-79824285D01*
X188949285Y-79767142D01*
X188935000Y-79738571D01*
X188906428Y-79710000D01*
X188863571Y-79695714D01*
X188835000Y-79695714D01*
X188792142Y-79710000D01*
X188777857Y-79724285D01*
X188492142Y-79995714D02*
X188663571Y-79995714D01*
X188577857Y-79995714D02*
X188577857Y-79695714D01*
X188606428Y-79738571D01*
X188635000Y-79767142D01*
X188663571Y-79781428D01*
X188349285Y-79995714D02*
X188292142Y-79995714D01*
X188263571Y-79981428D01*
X188249285Y-79967142D01*
X188220714Y-79924285D01*
X188206428Y-79867142D01*
X188206428Y-79752857D01*
X188220714Y-79724285D01*
X188235000Y-79710000D01*
X188263571Y-79695714D01*
X188320714Y-79695714D01*
X188349285Y-79710000D01*
X188363571Y-79724285D01*
X188377857Y-79752857D01*
X188377857Y-79824285D01*
X188363571Y-79852857D01*
X188349285Y-79867142D01*
X188320714Y-79881428D01*
X188263571Y-79881428D01*
X188235000Y-79867142D01*
X188220714Y-79852857D01*
X188206428Y-79824285D01*
X170292857Y-77207142D02*
X170307142Y-77221428D01*
X170350000Y-77235714D01*
X170378571Y-77235714D01*
X170421428Y-77221428D01*
X170450000Y-77192857D01*
X170464285Y-77164285D01*
X170478571Y-77107142D01*
X170478571Y-77064285D01*
X170464285Y-77007142D01*
X170450000Y-76978571D01*
X170421428Y-76950000D01*
X170378571Y-76935714D01*
X170350000Y-76935714D01*
X170307142Y-76950000D01*
X170292857Y-76964285D01*
X170178571Y-76964285D02*
X170164285Y-76950000D01*
X170135714Y-76935714D01*
X170064285Y-76935714D01*
X170035714Y-76950000D01*
X170021428Y-76964285D01*
X170007142Y-76992857D01*
X170007142Y-77021428D01*
X170021428Y-77064285D01*
X170192857Y-77235714D01*
X170007142Y-77235714D01*
X169721428Y-77235714D02*
X169892857Y-77235714D01*
X169807142Y-77235714D02*
X169807142Y-76935714D01*
X169835714Y-76978571D01*
X169864285Y-77007142D01*
X169892857Y-77021428D01*
X183307142Y-77952142D02*
X183321428Y-77937857D01*
X183335714Y-77895000D01*
X183335714Y-77866428D01*
X183321428Y-77823571D01*
X183292857Y-77795000D01*
X183264285Y-77780714D01*
X183207142Y-77766428D01*
X183164285Y-77766428D01*
X183107142Y-77780714D01*
X183078571Y-77795000D01*
X183050000Y-77823571D01*
X183035714Y-77866428D01*
X183035714Y-77895000D01*
X183050000Y-77937857D01*
X183064285Y-77952142D01*
X183064285Y-78066428D02*
X183050000Y-78080714D01*
X183035714Y-78109285D01*
X183035714Y-78180714D01*
X183050000Y-78209285D01*
X183064285Y-78223571D01*
X183092857Y-78237857D01*
X183121428Y-78237857D01*
X183164285Y-78223571D01*
X183335714Y-78052142D01*
X183335714Y-78237857D01*
X183164285Y-78409285D02*
X183150000Y-78380714D01*
X183135714Y-78366428D01*
X183107142Y-78352142D01*
X183092857Y-78352142D01*
X183064285Y-78366428D01*
X183050000Y-78380714D01*
X183035714Y-78409285D01*
X183035714Y-78466428D01*
X183050000Y-78495000D01*
X183064285Y-78509285D01*
X183092857Y-78523571D01*
X183107142Y-78523571D01*
X183135714Y-78509285D01*
X183150000Y-78495000D01*
X183164285Y-78466428D01*
X183164285Y-78409285D01*
X183178571Y-78380714D01*
X183192857Y-78366428D01*
X183221428Y-78352142D01*
X183278571Y-78352142D01*
X183307142Y-78366428D01*
X183321428Y-78380714D01*
X183335714Y-78409285D01*
X183335714Y-78466428D01*
X183321428Y-78495000D01*
X183307142Y-78509285D01*
X183278571Y-78523571D01*
X183221428Y-78523571D01*
X183192857Y-78509285D01*
X183178571Y-78495000D01*
X183164285Y-78466428D01*
X190987142Y-65852142D02*
X191001428Y-65837857D01*
X191015714Y-65795000D01*
X191015714Y-65766428D01*
X191001428Y-65723571D01*
X190972857Y-65695000D01*
X190944285Y-65680714D01*
X190887142Y-65666428D01*
X190844285Y-65666428D01*
X190787142Y-65680714D01*
X190758571Y-65695000D01*
X190730000Y-65723571D01*
X190715714Y-65766428D01*
X190715714Y-65795000D01*
X190730000Y-65837857D01*
X190744285Y-65852142D01*
X190744285Y-65966428D02*
X190730000Y-65980714D01*
X190715714Y-66009285D01*
X190715714Y-66080714D01*
X190730000Y-66109285D01*
X190744285Y-66123571D01*
X190772857Y-66137857D01*
X190801428Y-66137857D01*
X190844285Y-66123571D01*
X191015714Y-65952142D01*
X191015714Y-66137857D01*
X191015714Y-66280714D02*
X191015714Y-66337857D01*
X191001428Y-66366428D01*
X190987142Y-66380714D01*
X190944285Y-66409285D01*
X190887142Y-66423571D01*
X190772857Y-66423571D01*
X190744285Y-66409285D01*
X190730000Y-66395000D01*
X190715714Y-66366428D01*
X190715714Y-66309285D01*
X190730000Y-66280714D01*
X190744285Y-66266428D01*
X190772857Y-66252142D01*
X190844285Y-66252142D01*
X190872857Y-66266428D01*
X190887142Y-66280714D01*
X190901428Y-66309285D01*
X190901428Y-66366428D01*
X190887142Y-66395000D01*
X190872857Y-66409285D01*
X190844285Y-66423571D01*
X190607142Y-71707142D02*
X190621428Y-71692857D01*
X190635714Y-71650000D01*
X190635714Y-71621428D01*
X190621428Y-71578571D01*
X190592857Y-71550000D01*
X190564285Y-71535714D01*
X190507142Y-71521428D01*
X190464285Y-71521428D01*
X190407142Y-71535714D01*
X190378571Y-71550000D01*
X190350000Y-71578571D01*
X190335714Y-71621428D01*
X190335714Y-71650000D01*
X190350000Y-71692857D01*
X190364285Y-71707142D01*
X190335714Y-71807142D02*
X190335714Y-71992857D01*
X190450000Y-71892857D01*
X190450000Y-71935714D01*
X190464285Y-71964285D01*
X190478571Y-71978571D01*
X190507142Y-71992857D01*
X190578571Y-71992857D01*
X190607142Y-71978571D01*
X190621428Y-71964285D01*
X190635714Y-71935714D01*
X190635714Y-71850000D01*
X190621428Y-71821428D01*
X190607142Y-71807142D01*
X190335714Y-72092857D02*
X190335714Y-72278571D01*
X190450000Y-72178571D01*
X190450000Y-72221428D01*
X190464285Y-72250000D01*
X190478571Y-72264285D01*
X190507142Y-72278571D01*
X190578571Y-72278571D01*
X190607142Y-72264285D01*
X190621428Y-72250000D01*
X190635714Y-72221428D01*
X190635714Y-72135714D01*
X190621428Y-72107142D01*
X190607142Y-72092857D01*
X174167142Y-77727142D02*
X174181428Y-77712857D01*
X174195714Y-77670000D01*
X174195714Y-77641428D01*
X174181428Y-77598571D01*
X174152857Y-77570000D01*
X174124285Y-77555714D01*
X174067142Y-77541428D01*
X174024285Y-77541428D01*
X173967142Y-77555714D01*
X173938571Y-77570000D01*
X173910000Y-77598571D01*
X173895714Y-77641428D01*
X173895714Y-77670000D01*
X173910000Y-77712857D01*
X173924285Y-77727142D01*
X173895714Y-77827142D02*
X173895714Y-78012857D01*
X174010000Y-77912857D01*
X174010000Y-77955714D01*
X174024285Y-77984285D01*
X174038571Y-77998571D01*
X174067142Y-78012857D01*
X174138571Y-78012857D01*
X174167142Y-77998571D01*
X174181428Y-77984285D01*
X174195714Y-77955714D01*
X174195714Y-77870000D01*
X174181428Y-77841428D01*
X174167142Y-77827142D01*
X173995714Y-78270000D02*
X174195714Y-78270000D01*
X173881428Y-78198571D02*
X174095714Y-78127142D01*
X174095714Y-78312857D01*
X191092500Y-68798571D02*
X191192500Y-68798571D01*
X191192500Y-68955714D02*
X191192500Y-68655714D01*
X191049642Y-68655714D01*
X190835357Y-68798571D02*
X190792500Y-68812857D01*
X190778214Y-68827142D01*
X190763928Y-68855714D01*
X190763928Y-68898571D01*
X190778214Y-68927142D01*
X190792500Y-68941428D01*
X190821071Y-68955714D01*
X190935357Y-68955714D01*
X190935357Y-68655714D01*
X190835357Y-68655714D01*
X190806785Y-68670000D01*
X190792500Y-68684285D01*
X190778214Y-68712857D01*
X190778214Y-68741428D01*
X190792500Y-68770000D01*
X190806785Y-68784285D01*
X190835357Y-68798571D01*
X190935357Y-68798571D01*
X190663928Y-68655714D02*
X190478214Y-68655714D01*
X190578214Y-68770000D01*
X190535357Y-68770000D01*
X190506785Y-68784285D01*
X190492500Y-68798571D01*
X190478214Y-68827142D01*
X190478214Y-68898571D01*
X190492500Y-68927142D01*
X190506785Y-68941428D01*
X190535357Y-68955714D01*
X190621071Y-68955714D01*
X190649642Y-68941428D01*
X190663928Y-68927142D01*
X191030000Y-75518571D02*
X191130000Y-75518571D01*
X191130000Y-75675714D02*
X191130000Y-75375714D01*
X190987142Y-75375714D01*
X190772857Y-75518571D02*
X190730000Y-75532857D01*
X190715714Y-75547142D01*
X190701428Y-75575714D01*
X190701428Y-75618571D01*
X190715714Y-75647142D01*
X190730000Y-75661428D01*
X190758571Y-75675714D01*
X190872857Y-75675714D01*
X190872857Y-75375714D01*
X190772857Y-75375714D01*
X190744285Y-75390000D01*
X190730000Y-75404285D01*
X190715714Y-75432857D01*
X190715714Y-75461428D01*
X190730000Y-75490000D01*
X190744285Y-75504285D01*
X190772857Y-75518571D01*
X190872857Y-75518571D01*
X190444285Y-75475714D02*
X190444285Y-75675714D01*
X190515714Y-75361428D02*
X190587142Y-75575714D01*
X190401428Y-75575714D01*
D13*
X194610000Y-77005714D02*
X194610000Y-77220000D01*
X194624285Y-77262857D01*
X194652857Y-77291428D01*
X194695714Y-77305714D01*
X194724285Y-77305714D01*
X194338571Y-77105714D02*
X194338571Y-77305714D01*
X194410000Y-76991428D02*
X194481428Y-77205714D01*
X194295714Y-77205714D01*
X194650000Y-66660714D02*
X194650000Y-66875000D01*
X194664285Y-66917857D01*
X194692857Y-66946428D01*
X194735714Y-66960714D01*
X194764285Y-66960714D01*
X194364285Y-66660714D02*
X194507142Y-66660714D01*
X194521428Y-66803571D01*
X194507142Y-66789285D01*
X194478571Y-66775000D01*
X194407142Y-66775000D01*
X194378571Y-66789285D01*
X194364285Y-66803571D01*
X194350000Y-66832142D01*
X194350000Y-66903571D01*
X194364285Y-66932142D01*
X194378571Y-66946428D01*
X194407142Y-66960714D01*
X194478571Y-66960714D01*
X194507142Y-66946428D01*
X194521428Y-66932142D01*
X183385714Y-62292857D02*
X183242857Y-62192857D01*
X183385714Y-62121428D02*
X183085714Y-62121428D01*
X183085714Y-62235714D01*
X183100000Y-62264285D01*
X183114285Y-62278571D01*
X183142857Y-62292857D01*
X183185714Y-62292857D01*
X183214285Y-62278571D01*
X183228571Y-62264285D01*
X183242857Y-62235714D01*
X183242857Y-62121428D01*
X183385714Y-62421428D02*
X183085714Y-62421428D01*
X183385714Y-62592857D01*
X183085714Y-62592857D01*
X183085714Y-62878571D02*
X183085714Y-62735714D01*
X183228571Y-62721428D01*
X183214285Y-62735714D01*
X183200000Y-62764285D01*
X183200000Y-62835714D01*
X183214285Y-62864285D01*
X183228571Y-62878571D01*
X183257142Y-62892857D01*
X183328571Y-62892857D01*
X183357142Y-62878571D01*
X183371428Y-62864285D01*
X183385714Y-62835714D01*
X183385714Y-62764285D01*
X183371428Y-62735714D01*
X183357142Y-62721428D01*
X187735714Y-65900000D02*
X187592857Y-65800000D01*
X187735714Y-65728571D02*
X187435714Y-65728571D01*
X187435714Y-65842857D01*
X187450000Y-65871428D01*
X187464285Y-65885714D01*
X187492857Y-65900000D01*
X187535714Y-65900000D01*
X187564285Y-65885714D01*
X187578571Y-65871428D01*
X187592857Y-65842857D01*
X187592857Y-65728571D01*
X187735714Y-66028571D02*
X187435714Y-66028571D01*
X187735714Y-66200000D01*
X187435714Y-66200000D01*
X187735714Y-66500000D02*
X187735714Y-66328571D01*
X187735714Y-66414285D02*
X187435714Y-66414285D01*
X187478571Y-66385714D01*
X187507142Y-66357142D01*
X187521428Y-66328571D01*
X187535714Y-66757142D02*
X187735714Y-66757142D01*
X187421428Y-66685714D02*
X187635714Y-66614285D01*
X187635714Y-66800000D01*
D12*
X181885714Y-81200000D02*
X181742857Y-81100000D01*
X181885714Y-81028571D02*
X181585714Y-81028571D01*
X181585714Y-81142857D01*
X181600000Y-81171428D01*
X181614285Y-81185714D01*
X181642857Y-81200000D01*
X181685714Y-81200000D01*
X181714285Y-81185714D01*
X181728571Y-81171428D01*
X181742857Y-81142857D01*
X181742857Y-81028571D01*
X181885714Y-81328571D02*
X181585714Y-81328571D01*
X181885714Y-81500000D01*
X181585714Y-81500000D01*
X181885714Y-81800000D02*
X181885714Y-81628571D01*
X181885714Y-81714285D02*
X181585714Y-81714285D01*
X181628571Y-81685714D01*
X181657142Y-81657142D01*
X181671428Y-81628571D01*
X181714285Y-81971428D02*
X181700000Y-81942857D01*
X181685714Y-81928571D01*
X181657142Y-81914285D01*
X181642857Y-81914285D01*
X181614285Y-81928571D01*
X181600000Y-81942857D01*
X181585714Y-81971428D01*
X181585714Y-82028571D01*
X181600000Y-82057142D01*
X181614285Y-82071428D01*
X181642857Y-82085714D01*
X181657142Y-82085714D01*
X181685714Y-82071428D01*
X181700000Y-82057142D01*
X181714285Y-82028571D01*
X181714285Y-81971428D01*
X181728571Y-81942857D01*
X181742857Y-81928571D01*
X181771428Y-81914285D01*
X181828571Y-81914285D01*
X181857142Y-81928571D01*
X181871428Y-81942857D01*
X181885714Y-81971428D01*
X181885714Y-82028571D01*
X181871428Y-82057142D01*
X181857142Y-82071428D01*
X181828571Y-82085714D01*
X181771428Y-82085714D01*
X181742857Y-82071428D01*
X181728571Y-82057142D01*
X181714285Y-82028571D01*
X177585714Y-77400000D02*
X177442857Y-77300000D01*
X177585714Y-77228571D02*
X177285714Y-77228571D01*
X177285714Y-77342857D01*
X177300000Y-77371428D01*
X177314285Y-77385714D01*
X177342857Y-77400000D01*
X177385714Y-77400000D01*
X177414285Y-77385714D01*
X177428571Y-77371428D01*
X177442857Y-77342857D01*
X177442857Y-77228571D01*
X177585714Y-77528571D02*
X177285714Y-77528571D01*
X177585714Y-77700000D01*
X177285714Y-77700000D01*
X177314285Y-77828571D02*
X177300000Y-77842857D01*
X177285714Y-77871428D01*
X177285714Y-77942857D01*
X177300000Y-77971428D01*
X177314285Y-77985714D01*
X177342857Y-78000000D01*
X177371428Y-78000000D01*
X177414285Y-77985714D01*
X177585714Y-77814285D01*
X177585714Y-78000000D01*
X177285714Y-78185714D02*
X177285714Y-78214285D01*
X177300000Y-78242857D01*
X177314285Y-78257142D01*
X177342857Y-78271428D01*
X177400000Y-78285714D01*
X177471428Y-78285714D01*
X177528571Y-78271428D01*
X177557142Y-78257142D01*
X177571428Y-78242857D01*
X177585714Y-78214285D01*
X177585714Y-78185714D01*
X177571428Y-78157142D01*
X177557142Y-78142857D01*
X177528571Y-78128571D01*
X177471428Y-78114285D01*
X177400000Y-78114285D01*
X177342857Y-78128571D01*
X177314285Y-78142857D01*
X177300000Y-78157142D01*
X177285714Y-78185714D01*
X184615714Y-64821428D02*
X184858571Y-64821428D01*
X184887142Y-64835714D01*
X184901428Y-64850000D01*
X184915714Y-64878571D01*
X184915714Y-64935714D01*
X184901428Y-64964285D01*
X184887142Y-64978571D01*
X184858571Y-64992857D01*
X184615714Y-64992857D01*
X184915714Y-65292857D02*
X184915714Y-65121428D01*
X184915714Y-65207142D02*
X184615714Y-65207142D01*
X184658571Y-65178571D01*
X184687142Y-65150000D01*
X184701428Y-65121428D01*
X186155714Y-77978571D02*
X186398571Y-77978571D01*
X186427142Y-77992857D01*
X186441428Y-78007142D01*
X186455714Y-78035714D01*
X186455714Y-78092857D01*
X186441428Y-78121428D01*
X186427142Y-78135714D01*
X186398571Y-78150000D01*
X186155714Y-78150000D01*
X186455714Y-78450000D02*
X186455714Y-78278571D01*
X186455714Y-78364285D02*
X186155714Y-78364285D01*
X186198571Y-78335714D01*
X186227142Y-78307142D01*
X186241428Y-78278571D01*
X186184285Y-78564285D02*
X186170000Y-78578571D01*
X186155714Y-78607142D01*
X186155714Y-78678571D01*
X186170000Y-78707142D01*
X186184285Y-78721428D01*
X186212857Y-78735714D01*
X186241428Y-78735714D01*
X186284285Y-78721428D01*
X186455714Y-78550000D01*
X186455714Y-78735714D01*
X184485714Y-81478571D02*
X184728571Y-81478571D01*
X184757142Y-81492857D01*
X184771428Y-81507142D01*
X184785714Y-81535714D01*
X184785714Y-81592857D01*
X184771428Y-81621428D01*
X184757142Y-81635714D01*
X184728571Y-81650000D01*
X184485714Y-81650000D01*
X184785714Y-81950000D02*
X184785714Y-81778571D01*
X184785714Y-81864285D02*
X184485714Y-81864285D01*
X184528571Y-81835714D01*
X184557142Y-81807142D01*
X184571428Y-81778571D01*
X184485714Y-82221428D02*
X184485714Y-82078571D01*
X184628571Y-82064285D01*
X184614285Y-82078571D01*
X184600000Y-82107142D01*
X184600000Y-82178571D01*
X184614285Y-82207142D01*
X184628571Y-82221428D01*
X184657142Y-82235714D01*
X184728571Y-82235714D01*
X184757142Y-82221428D01*
X184771428Y-82207142D01*
X184785714Y-82178571D01*
X184785714Y-82107142D01*
X184771428Y-82078571D01*
X184757142Y-82064285D01*
X189921428Y-78235714D02*
X189921428Y-78478571D01*
X189907142Y-78507142D01*
X189892857Y-78521428D01*
X189864285Y-78535714D01*
X189807142Y-78535714D01*
X189778571Y-78521428D01*
X189764285Y-78507142D01*
X189750000Y-78478571D01*
X189750000Y-78235714D01*
X189450000Y-78535714D02*
X189621428Y-78535714D01*
X189535714Y-78535714D02*
X189535714Y-78235714D01*
X189564285Y-78278571D01*
X189592857Y-78307142D01*
X189621428Y-78321428D01*
X189350000Y-78235714D02*
X189150000Y-78235714D01*
X189278571Y-78535714D01*
X189205714Y-64908571D02*
X189448571Y-64908571D01*
X189477142Y-64922857D01*
X189491428Y-64937142D01*
X189505714Y-64965714D01*
X189505714Y-65022857D01*
X189491428Y-65051428D01*
X189477142Y-65065714D01*
X189448571Y-65080000D01*
X189205714Y-65080000D01*
X189505714Y-65380000D02*
X189505714Y-65208571D01*
X189505714Y-65294285D02*
X189205714Y-65294285D01*
X189248571Y-65265714D01*
X189277142Y-65237142D01*
X189291428Y-65208571D01*
X189334285Y-65551428D02*
X189320000Y-65522857D01*
X189305714Y-65508571D01*
X189277142Y-65494285D01*
X189262857Y-65494285D01*
X189234285Y-65508571D01*
X189220000Y-65522857D01*
X189205714Y-65551428D01*
X189205714Y-65608571D01*
X189220000Y-65637142D01*
X189234285Y-65651428D01*
X189262857Y-65665714D01*
X189277142Y-65665714D01*
X189305714Y-65651428D01*
X189320000Y-65637142D01*
X189334285Y-65608571D01*
X189334285Y-65551428D01*
X189348571Y-65522857D01*
X189362857Y-65508571D01*
X189391428Y-65494285D01*
X189448571Y-65494285D01*
X189477142Y-65508571D01*
X189491428Y-65522857D01*
X189505714Y-65551428D01*
X189505714Y-65608571D01*
X189491428Y-65637142D01*
X189477142Y-65651428D01*
X189448571Y-65665714D01*
X189391428Y-65665714D01*
X189362857Y-65651428D01*
X189348571Y-65637142D01*
X189334285Y-65608571D01*
X188485714Y-61728571D02*
X188728571Y-61728571D01*
X188757142Y-61742857D01*
X188771428Y-61757142D01*
X188785714Y-61785714D01*
X188785714Y-61842857D01*
X188771428Y-61871428D01*
X188757142Y-61885714D01*
X188728571Y-61900000D01*
X188485714Y-61900000D01*
X188514285Y-62028571D02*
X188500000Y-62042857D01*
X188485714Y-62071428D01*
X188485714Y-62142857D01*
X188500000Y-62171428D01*
X188514285Y-62185714D01*
X188542857Y-62200000D01*
X188571428Y-62200000D01*
X188614285Y-62185714D01*
X188785714Y-62014285D01*
X188785714Y-62200000D01*
X188514285Y-62314285D02*
X188500000Y-62328571D01*
X188485714Y-62357142D01*
X188485714Y-62428571D01*
X188500000Y-62457142D01*
X188514285Y-62471428D01*
X188542857Y-62485714D01*
X188571428Y-62485714D01*
X188614285Y-62471428D01*
X188785714Y-62300000D01*
X188785714Y-62485714D01*
X175465714Y-78348571D02*
X175708571Y-78348571D01*
X175737142Y-78362857D01*
X175751428Y-78377142D01*
X175765714Y-78405714D01*
X175765714Y-78462857D01*
X175751428Y-78491428D01*
X175737142Y-78505714D01*
X175708571Y-78520000D01*
X175465714Y-78520000D01*
X175494285Y-78648571D02*
X175480000Y-78662857D01*
X175465714Y-78691428D01*
X175465714Y-78762857D01*
X175480000Y-78791428D01*
X175494285Y-78805714D01*
X175522857Y-78820000D01*
X175551428Y-78820000D01*
X175594285Y-78805714D01*
X175765714Y-78634285D01*
X175765714Y-78820000D01*
X175594285Y-78991428D02*
X175580000Y-78962857D01*
X175565714Y-78948571D01*
X175537142Y-78934285D01*
X175522857Y-78934285D01*
X175494285Y-78948571D01*
X175480000Y-78962857D01*
X175465714Y-78991428D01*
X175465714Y-79048571D01*
X175480000Y-79077142D01*
X175494285Y-79091428D01*
X175522857Y-79105714D01*
X175537142Y-79105714D01*
X175565714Y-79091428D01*
X175580000Y-79077142D01*
X175594285Y-79048571D01*
X175594285Y-78991428D01*
X175608571Y-78962857D01*
X175622857Y-78948571D01*
X175651428Y-78934285D01*
X175708571Y-78934285D01*
X175737142Y-78948571D01*
X175751428Y-78962857D01*
X175765714Y-78991428D01*
X175765714Y-79048571D01*
X175751428Y-79077142D01*
X175737142Y-79091428D01*
X175708571Y-79105714D01*
X175651428Y-79105714D01*
X175622857Y-79091428D01*
X175608571Y-79077142D01*
X175594285Y-79048571D01*
X176285714Y-81528571D02*
X176528571Y-81528571D01*
X176557142Y-81542857D01*
X176571428Y-81557142D01*
X176585714Y-81585714D01*
X176585714Y-81642857D01*
X176571428Y-81671428D01*
X176557142Y-81685714D01*
X176528571Y-81700000D01*
X176285714Y-81700000D01*
X176285714Y-81814285D02*
X176285714Y-82000000D01*
X176400000Y-81900000D01*
X176400000Y-81942857D01*
X176414285Y-81971428D01*
X176428571Y-81985714D01*
X176457142Y-82000000D01*
X176528571Y-82000000D01*
X176557142Y-81985714D01*
X176571428Y-81971428D01*
X176585714Y-81942857D01*
X176585714Y-81857142D01*
X176571428Y-81828571D01*
X176557142Y-81814285D01*
X176285714Y-82185714D02*
X176285714Y-82214285D01*
X176300000Y-82242857D01*
X176314285Y-82257142D01*
X176342857Y-82271428D01*
X176400000Y-82285714D01*
X176471428Y-82285714D01*
X176528571Y-82271428D01*
X176557142Y-82257142D01*
X176571428Y-82242857D01*
X176585714Y-82214285D01*
X176585714Y-82185714D01*
X176571428Y-82157142D01*
X176557142Y-82142857D01*
X176528571Y-82128571D01*
X176471428Y-82114285D01*
X176400000Y-82114285D01*
X176342857Y-82128571D01*
X176314285Y-82142857D01*
X176300000Y-82157142D01*
X176285714Y-82185714D01*
X172492857Y-77407142D02*
X172507142Y-77421428D01*
X172550000Y-77435714D01*
X172578571Y-77435714D01*
X172621428Y-77421428D01*
X172650000Y-77392857D01*
X172664285Y-77364285D01*
X172678571Y-77307142D01*
X172678571Y-77264285D01*
X172664285Y-77207142D01*
X172650000Y-77178571D01*
X172621428Y-77150000D01*
X172578571Y-77135714D01*
X172550000Y-77135714D01*
X172507142Y-77150000D01*
X172492857Y-77164285D01*
X172235714Y-77235714D02*
X172235714Y-77435714D01*
X172307142Y-77121428D02*
X172378571Y-77335714D01*
X172192857Y-77335714D01*
X171921428Y-77435714D02*
X172092857Y-77435714D01*
X172007142Y-77435714D02*
X172007142Y-77135714D01*
X172035714Y-77178571D01*
X172064285Y-77207142D01*
X172092857Y-77221428D01*
X169570714Y-71427500D02*
X169785000Y-71427500D01*
X169827857Y-71413214D01*
X169856428Y-71384642D01*
X169870714Y-71341785D01*
X169870714Y-71313214D01*
X169870714Y-71727500D02*
X169870714Y-71556071D01*
X169870714Y-71641785D02*
X169570714Y-71641785D01*
X169613571Y-71613214D01*
X169642142Y-71584642D01*
X169656428Y-71556071D01*
X183342857Y-77185714D02*
X183442857Y-77042857D01*
X183514285Y-77185714D02*
X183514285Y-76885714D01*
X183400000Y-76885714D01*
X183371428Y-76900000D01*
X183357142Y-76914285D01*
X183342857Y-76942857D01*
X183342857Y-76985714D01*
X183357142Y-77014285D01*
X183371428Y-77028571D01*
X183400000Y-77042857D01*
X183514285Y-77042857D01*
X183085714Y-76985714D02*
X183085714Y-77185714D01*
X183157142Y-76871428D02*
X183228571Y-77085714D01*
X183042857Y-77085714D01*
X182957142Y-76885714D02*
X182757142Y-76885714D01*
X182885714Y-77185714D01*
X180055714Y-78578571D02*
X180298571Y-78578571D01*
X180327142Y-78592857D01*
X180341428Y-78607142D01*
X180355714Y-78635714D01*
X180355714Y-78692857D01*
X180341428Y-78721428D01*
X180327142Y-78735714D01*
X180298571Y-78750000D01*
X180055714Y-78750000D01*
X180084285Y-78878571D02*
X180070000Y-78892857D01*
X180055714Y-78921428D01*
X180055714Y-78992857D01*
X180070000Y-79021428D01*
X180084285Y-79035714D01*
X180112857Y-79050000D01*
X180141428Y-79050000D01*
X180184285Y-79035714D01*
X180355714Y-78864285D01*
X180355714Y-79050000D01*
X180155714Y-79307142D02*
X180355714Y-79307142D01*
X180041428Y-79235714D02*
X180255714Y-79164285D01*
X180255714Y-79350000D01*
X170275000Y-81335714D02*
X170375000Y-81192857D01*
X170446428Y-81335714D02*
X170446428Y-81035714D01*
X170332142Y-81035714D01*
X170303571Y-81050000D01*
X170289285Y-81064285D01*
X170275000Y-81092857D01*
X170275000Y-81135714D01*
X170289285Y-81164285D01*
X170303571Y-81178571D01*
X170332142Y-81192857D01*
X170446428Y-81192857D01*
X170146428Y-81178571D02*
X170046428Y-81178571D01*
X170003571Y-81335714D02*
X170146428Y-81335714D01*
X170146428Y-81035714D01*
X170003571Y-81035714D01*
X169775000Y-81178571D02*
X169875000Y-81178571D01*
X169875000Y-81335714D02*
X169875000Y-81035714D01*
X169732142Y-81035714D01*
X169575000Y-81035714D02*
X169575000Y-81107142D01*
X169646428Y-81078571D02*
X169575000Y-81107142D01*
X169503571Y-81078571D01*
X169617857Y-81164285D02*
X169575000Y-81107142D01*
X169532142Y-81164285D01*
X169346428Y-81035714D02*
X169346428Y-81107142D01*
X169417857Y-81078571D02*
X169346428Y-81107142D01*
X169275000Y-81078571D01*
X169389285Y-81164285D02*
X169346428Y-81107142D01*
X169303571Y-81164285D01*
X196342857Y-82107142D02*
X196357142Y-82121428D01*
X196400000Y-82135714D01*
X196428571Y-82135714D01*
X196471428Y-82121428D01*
X196500000Y-82092857D01*
X196514285Y-82064285D01*
X196528571Y-82007142D01*
X196528571Y-81964285D01*
X196514285Y-81907142D01*
X196500000Y-81878571D01*
X196471428Y-81850000D01*
X196428571Y-81835714D01*
X196400000Y-81835714D01*
X196357142Y-81850000D01*
X196342857Y-81864285D01*
X196228571Y-81864285D02*
X196214285Y-81850000D01*
X196185714Y-81835714D01*
X196114285Y-81835714D01*
X196085714Y-81850000D01*
X196071428Y-81864285D01*
X196057142Y-81892857D01*
X196057142Y-81921428D01*
X196071428Y-81964285D01*
X196242857Y-82135714D01*
X196057142Y-82135714D01*
X195942857Y-81864285D02*
X195928571Y-81850000D01*
X195900000Y-81835714D01*
X195828571Y-81835714D01*
X195800000Y-81850000D01*
X195785714Y-81864285D01*
X195771428Y-81892857D01*
X195771428Y-81921428D01*
X195785714Y-81964285D01*
X195957142Y-82135714D01*
X195771428Y-82135714D01*
X196342857Y-63257142D02*
X196357142Y-63271428D01*
X196400000Y-63285714D01*
X196428571Y-63285714D01*
X196471428Y-63271428D01*
X196500000Y-63242857D01*
X196514285Y-63214285D01*
X196528571Y-63157142D01*
X196528571Y-63114285D01*
X196514285Y-63057142D01*
X196500000Y-63028571D01*
X196471428Y-63000000D01*
X196428571Y-62985714D01*
X196400000Y-62985714D01*
X196357142Y-63000000D01*
X196342857Y-63014285D01*
X196228571Y-63014285D02*
X196214285Y-63000000D01*
X196185714Y-62985714D01*
X196114285Y-62985714D01*
X196085714Y-63000000D01*
X196071428Y-63014285D01*
X196057142Y-63042857D01*
X196057142Y-63071428D01*
X196071428Y-63114285D01*
X196242857Y-63285714D01*
X196057142Y-63285714D01*
X195957142Y-62985714D02*
X195771428Y-62985714D01*
X195871428Y-63100000D01*
X195828571Y-63100000D01*
X195800000Y-63114285D01*
X195785714Y-63128571D01*
X195771428Y-63157142D01*
X195771428Y-63228571D01*
X195785714Y-63257142D01*
X195800000Y-63271428D01*
X195828571Y-63285714D01*
X195914285Y-63285714D01*
X195942857Y-63271428D01*
X195957142Y-63257142D01*
X196345357Y-80957142D02*
X196359642Y-80971428D01*
X196402500Y-80985714D01*
X196431071Y-80985714D01*
X196473928Y-80971428D01*
X196502500Y-80942857D01*
X196516785Y-80914285D01*
X196531071Y-80857142D01*
X196531071Y-80814285D01*
X196516785Y-80757142D01*
X196502500Y-80728571D01*
X196473928Y-80700000D01*
X196431071Y-80685714D01*
X196402500Y-80685714D01*
X196359642Y-80700000D01*
X196345357Y-80714285D01*
X196231071Y-80714285D02*
X196216785Y-80700000D01*
X196188214Y-80685714D01*
X196116785Y-80685714D01*
X196088214Y-80700000D01*
X196073928Y-80714285D01*
X196059642Y-80742857D01*
X196059642Y-80771428D01*
X196073928Y-80814285D01*
X196245357Y-80985714D01*
X196059642Y-80985714D01*
X195802500Y-80785714D02*
X195802500Y-80985714D01*
X195873928Y-80671428D02*
X195945357Y-80885714D01*
X195759642Y-80885714D01*
X196342857Y-62107142D02*
X196357142Y-62121428D01*
X196400000Y-62135714D01*
X196428571Y-62135714D01*
X196471428Y-62121428D01*
X196500000Y-62092857D01*
X196514285Y-62064285D01*
X196528571Y-62007142D01*
X196528571Y-61964285D01*
X196514285Y-61907142D01*
X196500000Y-61878571D01*
X196471428Y-61850000D01*
X196428571Y-61835714D01*
X196400000Y-61835714D01*
X196357142Y-61850000D01*
X196342857Y-61864285D01*
X196085714Y-61935714D02*
X196085714Y-62135714D01*
X196157142Y-61821428D02*
X196228571Y-62035714D01*
X196042857Y-62035714D01*
X195785714Y-61835714D02*
X195928571Y-61835714D01*
X195942857Y-61978571D01*
X195928571Y-61964285D01*
X195900000Y-61950000D01*
X195828571Y-61950000D01*
X195800000Y-61964285D01*
X195785714Y-61978571D01*
X195771428Y-62007142D01*
X195771428Y-62078571D01*
X195785714Y-62107142D01*
X195800000Y-62121428D01*
X195828571Y-62135714D01*
X195900000Y-62135714D01*
X195928571Y-62121428D01*
X195942857Y-62107142D01*
X177385714Y-67625000D02*
X177242857Y-67525000D01*
X177385714Y-67453571D02*
X177085714Y-67453571D01*
X177085714Y-67567857D01*
X177100000Y-67596428D01*
X177114285Y-67610714D01*
X177142857Y-67625000D01*
X177185714Y-67625000D01*
X177214285Y-67610714D01*
X177228571Y-67596428D01*
X177242857Y-67567857D01*
X177242857Y-67453571D01*
X177385714Y-67910714D02*
X177385714Y-67739285D01*
X177385714Y-67825000D02*
X177085714Y-67825000D01*
X177128571Y-67796428D01*
X177157142Y-67767857D01*
X177171428Y-67739285D01*
X176025000Y-67535714D02*
X176125000Y-67392857D01*
X176196428Y-67535714D02*
X176196428Y-67235714D01*
X176082142Y-67235714D01*
X176053571Y-67250000D01*
X176039285Y-67264285D01*
X176025000Y-67292857D01*
X176025000Y-67335714D01*
X176039285Y-67364285D01*
X176053571Y-67378571D01*
X176082142Y-67392857D01*
X176196428Y-67392857D01*
X175910714Y-67264285D02*
X175896428Y-67250000D01*
X175867857Y-67235714D01*
X175796428Y-67235714D01*
X175767857Y-67250000D01*
X175753571Y-67264285D01*
X175739285Y-67292857D01*
X175739285Y-67321428D01*
X175753571Y-67364285D01*
X175925000Y-67535714D01*
X175739285Y-67535714D01*
X167785714Y-77200000D02*
X167642857Y-77100000D01*
X167785714Y-77028571D02*
X167485714Y-77028571D01*
X167485714Y-77142857D01*
X167500000Y-77171428D01*
X167514285Y-77185714D01*
X167542857Y-77200000D01*
X167585714Y-77200000D01*
X167614285Y-77185714D01*
X167628571Y-77171428D01*
X167642857Y-77142857D01*
X167642857Y-77028571D01*
X167485714Y-77471428D02*
X167485714Y-77328571D01*
X167628571Y-77314285D01*
X167614285Y-77328571D01*
X167600000Y-77357142D01*
X167600000Y-77428571D01*
X167614285Y-77457142D01*
X167628571Y-77471428D01*
X167657142Y-77485714D01*
X167728571Y-77485714D01*
X167757142Y-77471428D01*
X167771428Y-77457142D01*
X167785714Y-77428571D01*
X167785714Y-77357142D01*
X167771428Y-77328571D01*
X167757142Y-77314285D01*
X168900000Y-80285714D02*
X169000000Y-80142857D01*
X169071428Y-80285714D02*
X169071428Y-79985714D01*
X168957142Y-79985714D01*
X168928571Y-80000000D01*
X168914285Y-80014285D01*
X168900000Y-80042857D01*
X168900000Y-80085714D01*
X168914285Y-80114285D01*
X168928571Y-80128571D01*
X168957142Y-80142857D01*
X169071428Y-80142857D01*
X168757142Y-80285714D02*
X168700000Y-80285714D01*
X168671428Y-80271428D01*
X168657142Y-80257142D01*
X168628571Y-80214285D01*
X168614285Y-80157142D01*
X168614285Y-80042857D01*
X168628571Y-80014285D01*
X168642857Y-80000000D01*
X168671428Y-79985714D01*
X168728571Y-79985714D01*
X168757142Y-80000000D01*
X168771428Y-80014285D01*
X168785714Y-80042857D01*
X168785714Y-80114285D01*
X168771428Y-80142857D01*
X168757142Y-80157142D01*
X168728571Y-80171428D01*
X168671428Y-80171428D01*
X168642857Y-80157142D01*
X168628571Y-80142857D01*
X168614285Y-80114285D01*
X167735714Y-79057142D02*
X167592857Y-78957142D01*
X167735714Y-78885714D02*
X167435714Y-78885714D01*
X167435714Y-79000000D01*
X167450000Y-79028571D01*
X167464285Y-79042857D01*
X167492857Y-79057142D01*
X167535714Y-79057142D01*
X167564285Y-79042857D01*
X167578571Y-79028571D01*
X167592857Y-79000000D01*
X167592857Y-78885714D01*
X167735714Y-79342857D02*
X167735714Y-79171428D01*
X167735714Y-79257142D02*
X167435714Y-79257142D01*
X167478571Y-79228571D01*
X167507142Y-79200000D01*
X167521428Y-79171428D01*
X167435714Y-79528571D02*
X167435714Y-79557142D01*
X167450000Y-79585714D01*
X167464285Y-79600000D01*
X167492857Y-79614285D01*
X167550000Y-79628571D01*
X167621428Y-79628571D01*
X167678571Y-79614285D01*
X167707142Y-79600000D01*
X167721428Y-79585714D01*
X167735714Y-79557142D01*
X167735714Y-79528571D01*
X167721428Y-79500000D01*
X167707142Y-79485714D01*
X167678571Y-79471428D01*
X167621428Y-79457142D01*
X167550000Y-79457142D01*
X167492857Y-79471428D01*
X167464285Y-79485714D01*
X167450000Y-79500000D01*
X167435714Y-79528571D01*
X182842857Y-61485714D02*
X182942857Y-61342857D01*
X183014285Y-61485714D02*
X183014285Y-61185714D01*
X182900000Y-61185714D01*
X182871428Y-61200000D01*
X182857142Y-61214285D01*
X182842857Y-61242857D01*
X182842857Y-61285714D01*
X182857142Y-61314285D01*
X182871428Y-61328571D01*
X182900000Y-61342857D01*
X183014285Y-61342857D01*
X182557142Y-61485714D02*
X182728571Y-61485714D01*
X182642857Y-61485714D02*
X182642857Y-61185714D01*
X182671428Y-61228571D01*
X182700000Y-61257142D01*
X182728571Y-61271428D01*
X182442857Y-61214285D02*
X182428571Y-61200000D01*
X182400000Y-61185714D01*
X182328571Y-61185714D01*
X182300000Y-61200000D01*
X182285714Y-61214285D01*
X182271428Y-61242857D01*
X182271428Y-61271428D01*
X182285714Y-61314285D01*
X182457142Y-61485714D01*
X182271428Y-61485714D01*
X182842857Y-60885714D02*
X182942857Y-60742857D01*
X183014285Y-60885714D02*
X183014285Y-60585714D01*
X182900000Y-60585714D01*
X182871428Y-60600000D01*
X182857142Y-60614285D01*
X182842857Y-60642857D01*
X182842857Y-60685714D01*
X182857142Y-60714285D01*
X182871428Y-60728571D01*
X182900000Y-60742857D01*
X183014285Y-60742857D01*
X182557142Y-60885714D02*
X182728571Y-60885714D01*
X182642857Y-60885714D02*
X182642857Y-60585714D01*
X182671428Y-60628571D01*
X182700000Y-60657142D01*
X182728571Y-60671428D01*
X182300000Y-60685714D02*
X182300000Y-60885714D01*
X182371428Y-60571428D02*
X182442857Y-60785714D01*
X182257142Y-60785714D01*
X186942857Y-65285714D02*
X187042857Y-65142857D01*
X187114285Y-65285714D02*
X187114285Y-64985714D01*
X187000000Y-64985714D01*
X186971428Y-65000000D01*
X186957142Y-65014285D01*
X186942857Y-65042857D01*
X186942857Y-65085714D01*
X186957142Y-65114285D01*
X186971428Y-65128571D01*
X187000000Y-65142857D01*
X187114285Y-65142857D01*
X186657142Y-65285714D02*
X186828571Y-65285714D01*
X186742857Y-65285714D02*
X186742857Y-64985714D01*
X186771428Y-65028571D01*
X186800000Y-65057142D01*
X186828571Y-65071428D01*
X186400000Y-64985714D02*
X186457142Y-64985714D01*
X186485714Y-65000000D01*
X186500000Y-65014285D01*
X186528571Y-65057142D01*
X186542857Y-65114285D01*
X186542857Y-65228571D01*
X186528571Y-65257142D01*
X186514285Y-65271428D01*
X186485714Y-65285714D01*
X186428571Y-65285714D01*
X186400000Y-65271428D01*
X186385714Y-65257142D01*
X186371428Y-65228571D01*
X186371428Y-65157142D01*
X186385714Y-65128571D01*
X186400000Y-65114285D01*
X186428571Y-65100000D01*
X186485714Y-65100000D01*
X186514285Y-65114285D01*
X186528571Y-65128571D01*
X186542857Y-65157142D01*
X187742857Y-64285714D02*
X187842857Y-64142857D01*
X187914285Y-64285714D02*
X187914285Y-63985714D01*
X187800000Y-63985714D01*
X187771428Y-64000000D01*
X187757142Y-64014285D01*
X187742857Y-64042857D01*
X187742857Y-64085714D01*
X187757142Y-64114285D01*
X187771428Y-64128571D01*
X187800000Y-64142857D01*
X187914285Y-64142857D01*
X187457142Y-64285714D02*
X187628571Y-64285714D01*
X187542857Y-64285714D02*
X187542857Y-63985714D01*
X187571428Y-64028571D01*
X187600000Y-64057142D01*
X187628571Y-64071428D01*
X187357142Y-63985714D02*
X187157142Y-63985714D01*
X187285714Y-64285714D01*
X193485714Y-74757142D02*
X193342857Y-74657142D01*
X193485714Y-74585714D02*
X193185714Y-74585714D01*
X193185714Y-74700000D01*
X193200000Y-74728571D01*
X193214285Y-74742857D01*
X193242857Y-74757142D01*
X193285714Y-74757142D01*
X193314285Y-74742857D01*
X193328571Y-74728571D01*
X193342857Y-74700000D01*
X193342857Y-74585714D01*
X193214285Y-74871428D02*
X193200000Y-74885714D01*
X193185714Y-74914285D01*
X193185714Y-74985714D01*
X193200000Y-75014285D01*
X193214285Y-75028571D01*
X193242857Y-75042857D01*
X193271428Y-75042857D01*
X193314285Y-75028571D01*
X193485714Y-74857142D01*
X193485714Y-75042857D01*
X193485714Y-75328571D02*
X193485714Y-75157142D01*
X193485714Y-75242857D02*
X193185714Y-75242857D01*
X193228571Y-75214285D01*
X193257142Y-75185714D01*
X193271428Y-75157142D01*
X195235714Y-71307142D02*
X195092857Y-71207142D01*
X195235714Y-71135714D02*
X194935714Y-71135714D01*
X194935714Y-71250000D01*
X194950000Y-71278571D01*
X194964285Y-71292857D01*
X194992857Y-71307142D01*
X195035714Y-71307142D01*
X195064285Y-71292857D01*
X195078571Y-71278571D01*
X195092857Y-71250000D01*
X195092857Y-71135714D01*
X194964285Y-71421428D02*
X194950000Y-71435714D01*
X194935714Y-71464285D01*
X194935714Y-71535714D01*
X194950000Y-71564285D01*
X194964285Y-71578571D01*
X194992857Y-71592857D01*
X195021428Y-71592857D01*
X195064285Y-71578571D01*
X195235714Y-71407142D01*
X195235714Y-71592857D01*
X194964285Y-71707142D02*
X194950000Y-71721428D01*
X194935714Y-71750000D01*
X194935714Y-71821428D01*
X194950000Y-71850000D01*
X194964285Y-71864285D01*
X194992857Y-71878571D01*
X195021428Y-71878571D01*
X195064285Y-71864285D01*
X195235714Y-71692857D01*
X195235714Y-71878571D01*
X182542857Y-82785714D02*
X182642857Y-82642857D01*
X182714285Y-82785714D02*
X182714285Y-82485714D01*
X182600000Y-82485714D01*
X182571428Y-82500000D01*
X182557142Y-82514285D01*
X182542857Y-82542857D01*
X182542857Y-82585714D01*
X182557142Y-82614285D01*
X182571428Y-82628571D01*
X182600000Y-82642857D01*
X182714285Y-82642857D01*
X182428571Y-82514285D02*
X182414285Y-82500000D01*
X182385714Y-82485714D01*
X182314285Y-82485714D01*
X182285714Y-82500000D01*
X182271428Y-82514285D01*
X182257142Y-82542857D01*
X182257142Y-82571428D01*
X182271428Y-82614285D01*
X182442857Y-82785714D01*
X182257142Y-82785714D01*
X182157142Y-82485714D02*
X181971428Y-82485714D01*
X182071428Y-82600000D01*
X182028571Y-82600000D01*
X182000000Y-82614285D01*
X181985714Y-82628571D01*
X181971428Y-82657142D01*
X181971428Y-82728571D01*
X181985714Y-82757142D01*
X182000000Y-82771428D01*
X182028571Y-82785714D01*
X182114285Y-82785714D01*
X182142857Y-82771428D01*
X182157142Y-82757142D01*
X182492857Y-83385714D02*
X182592857Y-83242857D01*
X182664285Y-83385714D02*
X182664285Y-83085714D01*
X182550000Y-83085714D01*
X182521428Y-83100000D01*
X182507142Y-83114285D01*
X182492857Y-83142857D01*
X182492857Y-83185714D01*
X182507142Y-83214285D01*
X182521428Y-83228571D01*
X182550000Y-83242857D01*
X182664285Y-83242857D01*
X182378571Y-83114285D02*
X182364285Y-83100000D01*
X182335714Y-83085714D01*
X182264285Y-83085714D01*
X182235714Y-83100000D01*
X182221428Y-83114285D01*
X182207142Y-83142857D01*
X182207142Y-83171428D01*
X182221428Y-83214285D01*
X182392857Y-83385714D01*
X182207142Y-83385714D01*
X181935714Y-83085714D02*
X182078571Y-83085714D01*
X182092857Y-83228571D01*
X182078571Y-83214285D01*
X182050000Y-83200000D01*
X181978571Y-83200000D01*
X181950000Y-83214285D01*
X181935714Y-83228571D01*
X181921428Y-83257142D01*
X181921428Y-83328571D01*
X181935714Y-83357142D01*
X181950000Y-83371428D01*
X181978571Y-83385714D01*
X182050000Y-83385714D01*
X182078571Y-83371428D01*
X182092857Y-83357142D01*
X178442857Y-78935714D02*
X178542857Y-78792857D01*
X178614285Y-78935714D02*
X178614285Y-78635714D01*
X178500000Y-78635714D01*
X178471428Y-78650000D01*
X178457142Y-78664285D01*
X178442857Y-78692857D01*
X178442857Y-78735714D01*
X178457142Y-78764285D01*
X178471428Y-78778571D01*
X178500000Y-78792857D01*
X178614285Y-78792857D01*
X178328571Y-78664285D02*
X178314285Y-78650000D01*
X178285714Y-78635714D01*
X178214285Y-78635714D01*
X178185714Y-78650000D01*
X178171428Y-78664285D01*
X178157142Y-78692857D01*
X178157142Y-78721428D01*
X178171428Y-78764285D01*
X178342857Y-78935714D01*
X178157142Y-78935714D01*
X177985714Y-78764285D02*
X178014285Y-78750000D01*
X178028571Y-78735714D01*
X178042857Y-78707142D01*
X178042857Y-78692857D01*
X178028571Y-78664285D01*
X178014285Y-78650000D01*
X177985714Y-78635714D01*
X177928571Y-78635714D01*
X177900000Y-78650000D01*
X177885714Y-78664285D01*
X177871428Y-78692857D01*
X177871428Y-78707142D01*
X177885714Y-78735714D01*
X177900000Y-78750000D01*
X177928571Y-78764285D01*
X177985714Y-78764285D01*
X178014285Y-78778571D01*
X178028571Y-78792857D01*
X178042857Y-78821428D01*
X178042857Y-78878571D01*
X178028571Y-78907142D01*
X178014285Y-78921428D01*
X177985714Y-78935714D01*
X177928571Y-78935714D01*
X177900000Y-78921428D01*
X177885714Y-78907142D01*
X177871428Y-78878571D01*
X177871428Y-78821428D01*
X177885714Y-78792857D01*
X177900000Y-78778571D01*
X177928571Y-78764285D01*
X177592857Y-80035714D02*
X177692857Y-79892857D01*
X177764285Y-80035714D02*
X177764285Y-79735714D01*
X177650000Y-79735714D01*
X177621428Y-79750000D01*
X177607142Y-79764285D01*
X177592857Y-79792857D01*
X177592857Y-79835714D01*
X177607142Y-79864285D01*
X177621428Y-79878571D01*
X177650000Y-79892857D01*
X177764285Y-79892857D01*
X177478571Y-79764285D02*
X177464285Y-79750000D01*
X177435714Y-79735714D01*
X177364285Y-79735714D01*
X177335714Y-79750000D01*
X177321428Y-79764285D01*
X177307142Y-79792857D01*
X177307142Y-79821428D01*
X177321428Y-79864285D01*
X177492857Y-80035714D01*
X177307142Y-80035714D01*
X177164285Y-80035714D02*
X177107142Y-80035714D01*
X177078571Y-80021428D01*
X177064285Y-80007142D01*
X177035714Y-79964285D01*
X177021428Y-79907142D01*
X177021428Y-79792857D01*
X177035714Y-79764285D01*
X177050000Y-79750000D01*
X177078571Y-79735714D01*
X177135714Y-79735714D01*
X177164285Y-79750000D01*
X177178571Y-79764285D01*
X177192857Y-79792857D01*
X177192857Y-79864285D01*
X177178571Y-79892857D01*
X177164285Y-79907142D01*
X177135714Y-79921428D01*
X177078571Y-79921428D01*
X177050000Y-79907142D01*
X177035714Y-79892857D01*
X177021428Y-79864285D01*
X184935714Y-77212142D02*
X184792857Y-77112142D01*
X184935714Y-77040714D02*
X184635714Y-77040714D01*
X184635714Y-77155000D01*
X184650000Y-77183571D01*
X184664285Y-77197857D01*
X184692857Y-77212142D01*
X184735714Y-77212142D01*
X184764285Y-77197857D01*
X184778571Y-77183571D01*
X184792857Y-77155000D01*
X184792857Y-77040714D01*
X184735714Y-77469285D02*
X184935714Y-77469285D01*
X184621428Y-77397857D02*
X184835714Y-77326428D01*
X184835714Y-77512142D01*
X184764285Y-77669285D02*
X184750000Y-77640714D01*
X184735714Y-77626428D01*
X184707142Y-77612142D01*
X184692857Y-77612142D01*
X184664285Y-77626428D01*
X184650000Y-77640714D01*
X184635714Y-77669285D01*
X184635714Y-77726428D01*
X184650000Y-77755000D01*
X184664285Y-77769285D01*
X184692857Y-77783571D01*
X184707142Y-77783571D01*
X184735714Y-77769285D01*
X184750000Y-77755000D01*
X184764285Y-77726428D01*
X184764285Y-77669285D01*
X184778571Y-77640714D01*
X184792857Y-77626428D01*
X184821428Y-77612142D01*
X184878571Y-77612142D01*
X184907142Y-77626428D01*
X184921428Y-77640714D01*
X184935714Y-77669285D01*
X184935714Y-77726428D01*
X184921428Y-77755000D01*
X184907142Y-77769285D01*
X184878571Y-77783571D01*
X184821428Y-77783571D01*
X184792857Y-77769285D01*
X184778571Y-77755000D01*
X184764285Y-77726428D01*
X190535714Y-70497142D02*
X190392857Y-70397142D01*
X190535714Y-70325714D02*
X190235714Y-70325714D01*
X190235714Y-70440000D01*
X190250000Y-70468571D01*
X190264285Y-70482857D01*
X190292857Y-70497142D01*
X190335714Y-70497142D01*
X190364285Y-70482857D01*
X190378571Y-70468571D01*
X190392857Y-70440000D01*
X190392857Y-70325714D01*
X190235714Y-70768571D02*
X190235714Y-70625714D01*
X190378571Y-70611428D01*
X190364285Y-70625714D01*
X190350000Y-70654285D01*
X190350000Y-70725714D01*
X190364285Y-70754285D01*
X190378571Y-70768571D01*
X190407142Y-70782857D01*
X190478571Y-70782857D01*
X190507142Y-70768571D01*
X190521428Y-70754285D01*
X190535714Y-70725714D01*
X190535714Y-70654285D01*
X190521428Y-70625714D01*
X190507142Y-70611428D01*
X190364285Y-70954285D02*
X190350000Y-70925714D01*
X190335714Y-70911428D01*
X190307142Y-70897142D01*
X190292857Y-70897142D01*
X190264285Y-70911428D01*
X190250000Y-70925714D01*
X190235714Y-70954285D01*
X190235714Y-71011428D01*
X190250000Y-71040000D01*
X190264285Y-71054285D01*
X190292857Y-71068571D01*
X190307142Y-71068571D01*
X190335714Y-71054285D01*
X190350000Y-71040000D01*
X190364285Y-71011428D01*
X190364285Y-70954285D01*
X190378571Y-70925714D01*
X190392857Y-70911428D01*
X190421428Y-70897142D01*
X190478571Y-70897142D01*
X190507142Y-70911428D01*
X190521428Y-70925714D01*
X190535714Y-70954285D01*
X190535714Y-71011428D01*
X190521428Y-71040000D01*
X190507142Y-71054285D01*
X190478571Y-71068571D01*
X190421428Y-71068571D01*
X190392857Y-71054285D01*
X190378571Y-71040000D01*
X190364285Y-71011428D01*
X185437142Y-61765714D02*
X185537142Y-61622857D01*
X185608571Y-61765714D02*
X185608571Y-61465714D01*
X185494285Y-61465714D01*
X185465714Y-61480000D01*
X185451428Y-61494285D01*
X185437142Y-61522857D01*
X185437142Y-61565714D01*
X185451428Y-61594285D01*
X185465714Y-61608571D01*
X185494285Y-61622857D01*
X185608571Y-61622857D01*
X185308571Y-61765714D02*
X185308571Y-61465714D01*
X185137142Y-61765714D01*
X185137142Y-61465714D01*
X184837142Y-61765714D02*
X185008571Y-61765714D01*
X184922857Y-61765714D02*
X184922857Y-61465714D01*
X184951428Y-61508571D01*
X184980000Y-61537142D01*
X185008571Y-61551428D01*
X180120000Y-82505714D02*
X180220000Y-82362857D01*
X180291428Y-82505714D02*
X180291428Y-82205714D01*
X180177142Y-82205714D01*
X180148571Y-82220000D01*
X180134285Y-82234285D01*
X180120000Y-82262857D01*
X180120000Y-82305714D01*
X180134285Y-82334285D01*
X180148571Y-82348571D01*
X180177142Y-82362857D01*
X180291428Y-82362857D01*
X179991428Y-82505714D02*
X179991428Y-82205714D01*
X179820000Y-82505714D01*
X179820000Y-82205714D01*
X179520000Y-82505714D02*
X179691428Y-82505714D01*
X179605714Y-82505714D02*
X179605714Y-82205714D01*
X179634285Y-82248571D01*
X179662857Y-82277142D01*
X179691428Y-82291428D01*
X179262857Y-82205714D02*
X179320000Y-82205714D01*
X179348571Y-82220000D01*
X179362857Y-82234285D01*
X179391428Y-82277142D01*
X179405714Y-82334285D01*
X179405714Y-82448571D01*
X179391428Y-82477142D01*
X179377142Y-82491428D01*
X179348571Y-82505714D01*
X179291428Y-82505714D01*
X179262857Y-82491428D01*
X179248571Y-82477142D01*
X179234285Y-82448571D01*
X179234285Y-82377142D01*
X179248571Y-82348571D01*
X179262857Y-82334285D01*
X179291428Y-82320000D01*
X179348571Y-82320000D01*
X179377142Y-82334285D01*
X179391428Y-82348571D01*
X179405714Y-82377142D01*
X190292857Y-73417142D02*
X190435714Y-73417142D01*
X190135714Y-73317142D02*
X190292857Y-73417142D01*
X190135714Y-73517142D01*
X190164285Y-73602857D02*
X190150000Y-73617142D01*
X190135714Y-73645714D01*
X190135714Y-73717142D01*
X190150000Y-73745714D01*
X190164285Y-73760000D01*
X190192857Y-73774285D01*
X190221428Y-73774285D01*
X190264285Y-73760000D01*
X190435714Y-73588571D01*
X190435714Y-73774285D01*
X189535714Y-67257142D02*
X189392857Y-67157142D01*
X189535714Y-67085714D02*
X189235714Y-67085714D01*
X189235714Y-67200000D01*
X189250000Y-67228571D01*
X189264285Y-67242857D01*
X189292857Y-67257142D01*
X189335714Y-67257142D01*
X189364285Y-67242857D01*
X189378571Y-67228571D01*
X189392857Y-67200000D01*
X189392857Y-67085714D01*
X189235714Y-67357142D02*
X189235714Y-67542857D01*
X189350000Y-67442857D01*
X189350000Y-67485714D01*
X189364285Y-67514285D01*
X189378571Y-67528571D01*
X189407142Y-67542857D01*
X189478571Y-67542857D01*
X189507142Y-67528571D01*
X189521428Y-67514285D01*
X189535714Y-67485714D01*
X189535714Y-67400000D01*
X189521428Y-67371428D01*
X189507142Y-67357142D01*
X189535714Y-67828571D02*
X189535714Y-67657142D01*
X189535714Y-67742857D02*
X189235714Y-67742857D01*
X189278571Y-67714285D01*
X189307142Y-67685714D01*
X189321428Y-67657142D01*
X189535714Y-76507142D02*
X189392857Y-76407142D01*
X189535714Y-76335714D02*
X189235714Y-76335714D01*
X189235714Y-76450000D01*
X189250000Y-76478571D01*
X189264285Y-76492857D01*
X189292857Y-76507142D01*
X189335714Y-76507142D01*
X189364285Y-76492857D01*
X189378571Y-76478571D01*
X189392857Y-76450000D01*
X189392857Y-76335714D01*
X189235714Y-76607142D02*
X189235714Y-76792857D01*
X189350000Y-76692857D01*
X189350000Y-76735714D01*
X189364285Y-76764285D01*
X189378571Y-76778571D01*
X189407142Y-76792857D01*
X189478571Y-76792857D01*
X189507142Y-76778571D01*
X189521428Y-76764285D01*
X189535714Y-76735714D01*
X189535714Y-76650000D01*
X189521428Y-76621428D01*
X189507142Y-76607142D01*
X189264285Y-76907142D02*
X189250000Y-76921428D01*
X189235714Y-76950000D01*
X189235714Y-77021428D01*
X189250000Y-77050000D01*
X189264285Y-77064285D01*
X189292857Y-77078571D01*
X189321428Y-77078571D01*
X189364285Y-77064285D01*
X189535714Y-76892857D01*
X189535714Y-77078571D01*
X187985714Y-67257142D02*
X187842857Y-67157142D01*
X187985714Y-67085714D02*
X187685714Y-67085714D01*
X187685714Y-67200000D01*
X187700000Y-67228571D01*
X187714285Y-67242857D01*
X187742857Y-67257142D01*
X187785714Y-67257142D01*
X187814285Y-67242857D01*
X187828571Y-67228571D01*
X187842857Y-67200000D01*
X187842857Y-67085714D01*
X187685714Y-67357142D02*
X187685714Y-67542857D01*
X187800000Y-67442857D01*
X187800000Y-67485714D01*
X187814285Y-67514285D01*
X187828571Y-67528571D01*
X187857142Y-67542857D01*
X187928571Y-67542857D01*
X187957142Y-67528571D01*
X187971428Y-67514285D01*
X187985714Y-67485714D01*
X187985714Y-67400000D01*
X187971428Y-67371428D01*
X187957142Y-67357142D01*
X187685714Y-67642857D02*
X187685714Y-67828571D01*
X187800000Y-67728571D01*
X187800000Y-67771428D01*
X187814285Y-67800000D01*
X187828571Y-67814285D01*
X187857142Y-67828571D01*
X187928571Y-67828571D01*
X187957142Y-67814285D01*
X187971428Y-67800000D01*
X187985714Y-67771428D01*
X187985714Y-67685714D01*
X187971428Y-67657142D01*
X187957142Y-67642857D01*
X188035714Y-76517142D02*
X187892857Y-76417142D01*
X188035714Y-76345714D02*
X187735714Y-76345714D01*
X187735714Y-76460000D01*
X187750000Y-76488571D01*
X187764285Y-76502857D01*
X187792857Y-76517142D01*
X187835714Y-76517142D01*
X187864285Y-76502857D01*
X187878571Y-76488571D01*
X187892857Y-76460000D01*
X187892857Y-76345714D01*
X187735714Y-76617142D02*
X187735714Y-76802857D01*
X187850000Y-76702857D01*
X187850000Y-76745714D01*
X187864285Y-76774285D01*
X187878571Y-76788571D01*
X187907142Y-76802857D01*
X187978571Y-76802857D01*
X188007142Y-76788571D01*
X188021428Y-76774285D01*
X188035714Y-76745714D01*
X188035714Y-76660000D01*
X188021428Y-76631428D01*
X188007142Y-76617142D01*
X187835714Y-77060000D02*
X188035714Y-77060000D01*
X187721428Y-76988571D02*
X187935714Y-76917142D01*
X187935714Y-77102857D01*
X179535714Y-75787142D02*
X179392857Y-75687142D01*
X179535714Y-75615714D02*
X179235714Y-75615714D01*
X179235714Y-75730000D01*
X179250000Y-75758571D01*
X179264285Y-75772857D01*
X179292857Y-75787142D01*
X179335714Y-75787142D01*
X179364285Y-75772857D01*
X179378571Y-75758571D01*
X179392857Y-75730000D01*
X179392857Y-75615714D01*
X179235714Y-75887142D02*
X179235714Y-76072857D01*
X179350000Y-75972857D01*
X179350000Y-76015714D01*
X179364285Y-76044285D01*
X179378571Y-76058571D01*
X179407142Y-76072857D01*
X179478571Y-76072857D01*
X179507142Y-76058571D01*
X179521428Y-76044285D01*
X179535714Y-76015714D01*
X179535714Y-75930000D01*
X179521428Y-75901428D01*
X179507142Y-75887142D01*
X179235714Y-76330000D02*
X179235714Y-76272857D01*
X179250000Y-76244285D01*
X179264285Y-76230000D01*
X179307142Y-76201428D01*
X179364285Y-76187142D01*
X179478571Y-76187142D01*
X179507142Y-76201428D01*
X179521428Y-76215714D01*
X179535714Y-76244285D01*
X179535714Y-76301428D01*
X179521428Y-76330000D01*
X179507142Y-76344285D01*
X179478571Y-76358571D01*
X179407142Y-76358571D01*
X179378571Y-76344285D01*
X179364285Y-76330000D01*
X179350000Y-76301428D01*
X179350000Y-76244285D01*
X179364285Y-76215714D01*
X179378571Y-76201428D01*
X179407142Y-76187142D01*
X181035714Y-75957142D02*
X180892857Y-75857142D01*
X181035714Y-75785714D02*
X180735714Y-75785714D01*
X180735714Y-75900000D01*
X180750000Y-75928571D01*
X180764285Y-75942857D01*
X180792857Y-75957142D01*
X180835714Y-75957142D01*
X180864285Y-75942857D01*
X180878571Y-75928571D01*
X180892857Y-75900000D01*
X180892857Y-75785714D01*
X180735714Y-76057142D02*
X180735714Y-76242857D01*
X180850000Y-76142857D01*
X180850000Y-76185714D01*
X180864285Y-76214285D01*
X180878571Y-76228571D01*
X180907142Y-76242857D01*
X180978571Y-76242857D01*
X181007142Y-76228571D01*
X181021428Y-76214285D01*
X181035714Y-76185714D01*
X181035714Y-76100000D01*
X181021428Y-76071428D01*
X181007142Y-76057142D01*
X180735714Y-76342857D02*
X180735714Y-76542857D01*
X181035714Y-76414285D01*
X171721428Y-75935714D02*
X171721428Y-75635714D01*
X171650000Y-75635714D01*
X171607142Y-75650000D01*
X171578571Y-75678571D01*
X171564285Y-75707142D01*
X171550000Y-75764285D01*
X171550000Y-75807142D01*
X171564285Y-75864285D01*
X171578571Y-75892857D01*
X171607142Y-75921428D01*
X171650000Y-75935714D01*
X171721428Y-75935714D01*
X171435714Y-75664285D02*
X171421428Y-75650000D01*
X171392857Y-75635714D01*
X171321428Y-75635714D01*
X171292857Y-75650000D01*
X171278571Y-75664285D01*
X171264285Y-75692857D01*
X171264285Y-75721428D01*
X171278571Y-75764285D01*
X171450000Y-75935714D01*
X171264285Y-75935714D01*
X185085714Y-71728571D02*
X185328571Y-71728571D01*
X185357142Y-71742857D01*
X185371428Y-71757142D01*
X185385714Y-71785714D01*
X185385714Y-71842857D01*
X185371428Y-71871428D01*
X185357142Y-71885714D01*
X185328571Y-71900000D01*
X185085714Y-71900000D01*
X185085714Y-72014285D02*
X185085714Y-72200000D01*
X185200000Y-72100000D01*
X185200000Y-72142857D01*
X185214285Y-72171428D01*
X185228571Y-72185714D01*
X185257142Y-72200000D01*
X185328571Y-72200000D01*
X185357142Y-72185714D01*
X185371428Y-72171428D01*
X185385714Y-72142857D01*
X185385714Y-72057142D01*
X185371428Y-72028571D01*
X185357142Y-72014285D01*
X185085714Y-72300000D02*
X185085714Y-72485714D01*
X185200000Y-72385714D01*
X185200000Y-72428571D01*
X185214285Y-72457142D01*
X185228571Y-72471428D01*
X185257142Y-72485714D01*
X185328571Y-72485714D01*
X185357142Y-72471428D01*
X185371428Y-72457142D01*
X185385714Y-72428571D01*
X185385714Y-72342857D01*
X185371428Y-72314285D01*
X185357142Y-72300000D01*
X192242857Y-74357142D02*
X192257142Y-74371428D01*
X192300000Y-74385714D01*
X192328571Y-74385714D01*
X192371428Y-74371428D01*
X192400000Y-74342857D01*
X192414285Y-74314285D01*
X192428571Y-74257142D01*
X192428571Y-74214285D01*
X192414285Y-74157142D01*
X192400000Y-74128571D01*
X192371428Y-74100000D01*
X192328571Y-74085714D01*
X192300000Y-74085714D01*
X192257142Y-74100000D01*
X192242857Y-74114285D01*
X191971428Y-74085714D02*
X192114285Y-74085714D01*
X192128571Y-74228571D01*
X192114285Y-74214285D01*
X192085714Y-74200000D01*
X192014285Y-74200000D01*
X191985714Y-74214285D01*
X191971428Y-74228571D01*
X191957142Y-74257142D01*
X191957142Y-74328571D01*
X191971428Y-74357142D01*
X191985714Y-74371428D01*
X192014285Y-74385714D01*
X192085714Y-74385714D01*
X192114285Y-74371428D01*
X192128571Y-74357142D01*
X191857142Y-74085714D02*
X191671428Y-74085714D01*
X191771428Y-74200000D01*
X191728571Y-74200000D01*
X191700000Y-74214285D01*
X191685714Y-74228571D01*
X191671428Y-74257142D01*
X191671428Y-74328571D01*
X191685714Y-74357142D01*
X191700000Y-74371428D01*
X191728571Y-74385714D01*
X191814285Y-74385714D01*
X191842857Y-74371428D01*
X191857142Y-74357142D01*
D13*
X193721428Y-71035714D02*
X193721428Y-71278571D01*
X193707142Y-71307142D01*
X193692857Y-71321428D01*
X193664285Y-71335714D01*
X193607142Y-71335714D01*
X193578571Y-71321428D01*
X193564285Y-71307142D01*
X193550000Y-71278571D01*
X193550000Y-71035714D01*
X193250000Y-71335714D02*
X193421428Y-71335714D01*
X193335714Y-71335714D02*
X193335714Y-71035714D01*
X193364285Y-71078571D01*
X193392857Y-71107142D01*
X193421428Y-71121428D01*
X192992857Y-71135714D02*
X192992857Y-71335714D01*
X193064285Y-71021428D02*
X193135714Y-71235714D01*
X192950000Y-71235714D01*
D12*
X180607142Y-68635714D02*
X180607142Y-68335714D01*
X180535714Y-68335714D01*
X180492857Y-68350000D01*
X180464285Y-68378571D01*
X180450000Y-68407142D01*
X180435714Y-68464285D01*
X180435714Y-68507142D01*
X180450000Y-68564285D01*
X180464285Y-68592857D01*
X180492857Y-68621428D01*
X180535714Y-68635714D01*
X180607142Y-68635714D01*
X180150000Y-68635714D02*
X180321428Y-68635714D01*
X180235714Y-68635714D02*
X180235714Y-68335714D01*
X180264285Y-68378571D01*
X180292857Y-68407142D01*
X180321428Y-68421428D01*
X179964285Y-68335714D02*
X179935714Y-68335714D01*
X179907142Y-68350000D01*
X179892857Y-68364285D01*
X179878571Y-68392857D01*
X179864285Y-68450000D01*
X179864285Y-68521428D01*
X179878571Y-68578571D01*
X179892857Y-68607142D01*
X179907142Y-68621428D01*
X179935714Y-68635714D01*
X179964285Y-68635714D01*
X179992857Y-68621428D01*
X180007142Y-68607142D01*
X180021428Y-68578571D01*
X180035714Y-68521428D01*
X180035714Y-68450000D01*
X180021428Y-68392857D01*
X180007142Y-68364285D01*
X179992857Y-68350000D01*
X179964285Y-68335714D01*
X179578571Y-68635714D02*
X179750000Y-68635714D01*
X179664285Y-68635714D02*
X179664285Y-68335714D01*
X179692857Y-68378571D01*
X179721428Y-68407142D01*
X179750000Y-68421428D01*
X188385714Y-81578571D02*
X188628571Y-81578571D01*
X188657142Y-81592857D01*
X188671428Y-81607142D01*
X188685714Y-81635714D01*
X188685714Y-81692857D01*
X188671428Y-81721428D01*
X188657142Y-81735714D01*
X188628571Y-81750000D01*
X188385714Y-81750000D01*
X188414285Y-81878571D02*
X188400000Y-81892857D01*
X188385714Y-81921428D01*
X188385714Y-81992857D01*
X188400000Y-82021428D01*
X188414285Y-82035714D01*
X188442857Y-82050000D01*
X188471428Y-82050000D01*
X188514285Y-82035714D01*
X188685714Y-81864285D01*
X188685714Y-82050000D01*
X188685714Y-82335714D02*
X188685714Y-82164285D01*
X188685714Y-82250000D02*
X188385714Y-82250000D01*
X188428571Y-82221428D01*
X188457142Y-82192857D01*
X188471428Y-82164285D01*
X197550000Y-64310714D02*
X197650000Y-64167857D01*
X197721428Y-64310714D02*
X197721428Y-64010714D01*
X197607142Y-64010714D01*
X197578571Y-64025000D01*
X197564285Y-64039285D01*
X197550000Y-64067857D01*
X197550000Y-64110714D01*
X197564285Y-64139285D01*
X197578571Y-64153571D01*
X197607142Y-64167857D01*
X197721428Y-64167857D01*
X197421428Y-64153571D02*
X197321428Y-64153571D01*
X197278571Y-64310714D02*
X197421428Y-64310714D01*
X197421428Y-64010714D01*
X197278571Y-64010714D01*
X197050000Y-64153571D02*
X197150000Y-64153571D01*
X197150000Y-64310714D02*
X197150000Y-64010714D01*
X197007142Y-64010714D01*
X196850000Y-64010714D02*
X196850000Y-64082142D01*
X196921428Y-64053571D02*
X196850000Y-64082142D01*
X196778571Y-64053571D01*
X196892857Y-64139285D02*
X196850000Y-64082142D01*
X196807142Y-64139285D01*
X196621428Y-64010714D02*
X196621428Y-64082142D01*
X196692857Y-64053571D02*
X196621428Y-64082142D01*
X196550000Y-64053571D01*
X196664285Y-64139285D02*
X196621428Y-64082142D01*
X196578571Y-64139285D01*
D11*
X192810000Y-69480000D02*
X192810000Y-70280000D01*
X194410000Y-70280000D02*
X194410000Y-69480000D01*
X194410000Y-69480000D02*
X192810000Y-69480000D01*
X192810000Y-70280000D02*
X194410000Y-70280000D01*
X192637500Y-73360000D02*
X192637500Y-74160000D01*
X194237500Y-73360000D02*
X192637500Y-73360000D01*
X194237500Y-74160000D02*
X194237500Y-73360000D01*
X192637500Y-74160000D02*
X194237500Y-74160000D01*
X192662500Y-73010000D02*
X194262500Y-73010000D01*
X192662500Y-72210000D02*
X192662500Y-73010000D01*
X194262500Y-72210000D02*
X192662500Y-72210000D01*
X194262500Y-73010000D02*
X194262500Y-72210000D01*
X191940000Y-70332500D02*
X191140000Y-70332500D01*
X191140000Y-70332500D02*
X191140000Y-71932500D01*
X191940000Y-71932500D02*
X191940000Y-70332500D01*
X191140000Y-71932500D02*
X191940000Y-71932500D01*
X178704000Y-63755000D02*
X182004000Y-63755000D01*
X182004000Y-60455000D02*
X178704000Y-60455000D01*
X182004000Y-63755000D02*
X182004000Y-60455000D01*
X178704000Y-60455000D02*
X178704000Y-63755000D01*
X179910000Y-64530000D02*
X179910000Y-65530000D01*
X179910000Y-65530000D02*
X180410000Y-65530000D01*
X180410000Y-65530000D02*
X180410000Y-64530000D01*
X180410000Y-64530000D02*
X179910000Y-64530000D01*
X179670000Y-64650000D02*
X177670000Y-64650000D01*
X177670000Y-66650000D02*
X179170000Y-66650000D01*
X179170000Y-66650000D02*
X179670000Y-66150000D01*
X179670000Y-66150000D02*
X179670000Y-64650000D01*
X177670000Y-64650000D02*
X177670000Y-66650000D01*
X175940000Y-64600000D02*
X174440000Y-64600000D01*
X174440000Y-64600000D02*
X174440000Y-66600000D01*
X174440000Y-66600000D02*
X176440000Y-66600000D01*
X176440000Y-65100000D02*
X175940000Y-64600000D01*
X176440000Y-66600000D02*
X176440000Y-65100000D01*
X174786000Y-60425000D02*
X174786000Y-63725000D01*
X178086000Y-60425000D02*
X174786000Y-60425000D01*
X178086000Y-63725000D02*
X178086000Y-60425000D01*
X174786000Y-63725000D02*
X178086000Y-63725000D01*
X176915000Y-63900000D02*
X175915000Y-63900000D01*
X175915000Y-63900000D02*
X175915000Y-64400000D01*
X176915000Y-64400000D02*
X176915000Y-63900000D01*
X175915000Y-64400000D02*
X176915000Y-64400000D01*
X178350000Y-72500000D02*
X178350000Y-69300000D01*
X176750000Y-69300000D02*
X176750000Y-72500000D01*
X176750000Y-72500000D02*
X178350000Y-72500000D01*
X178350000Y-69300000D02*
X176750000Y-69300000D01*
X180350000Y-72500000D02*
X180350000Y-69300000D01*
X178750000Y-69300000D02*
X178750000Y-72500000D01*
X180350000Y-69300000D02*
X178750000Y-69300000D01*
X178750000Y-72500000D02*
X180350000Y-72500000D01*
X174935000Y-66850000D02*
X173935000Y-66850000D01*
X173935000Y-67350000D02*
X174935000Y-67350000D01*
X174935000Y-67350000D02*
X174935000Y-66850000D01*
X173935000Y-66850000D02*
X173935000Y-67350000D01*
X173450000Y-68600000D02*
X173450000Y-69200000D01*
X173750000Y-68600000D02*
X173450000Y-68600000D01*
X173750000Y-69200000D02*
X173750000Y-68600000D01*
X173450000Y-69200000D02*
X173750000Y-69200000D01*
X178362500Y-73349999D02*
X176762500Y-73349999D01*
X176762500Y-73349999D02*
X176762500Y-74149999D01*
X176762500Y-74149999D02*
X178362500Y-74149999D01*
X178362500Y-74149999D02*
X178362500Y-73349999D01*
X175900000Y-76050000D02*
X175500000Y-75650000D01*
X175500000Y-74450000D02*
X178700000Y-74450000D01*
X178700000Y-76050000D02*
X175900000Y-76050000D01*
X178700000Y-74450000D02*
X178700000Y-76050000D01*
X175500000Y-75650000D02*
X175500000Y-74450000D01*
X181025000Y-66462500D02*
X180225000Y-66462500D01*
X181025000Y-68062500D02*
X181025000Y-66462500D01*
X180225000Y-66462500D02*
X180225000Y-68062500D01*
X180225000Y-68062500D02*
X181025000Y-68062500D01*
X173975000Y-74875000D02*
X173975000Y-76475000D01*
X174775000Y-74875000D02*
X173975000Y-74875000D01*
X173975000Y-76475000D02*
X174775000Y-76475000D01*
X174775000Y-76475000D02*
X174775000Y-74875000D01*
X175800000Y-74000000D02*
X173800000Y-74000000D01*
X173800000Y-71500000D02*
X175800000Y-71500000D01*
X173800000Y-74000000D02*
X173800000Y-71500000D01*
X175800000Y-71500000D02*
X175800000Y-74000000D01*
D14*
X174250000Y-67850000D02*
X174250000Y-70850000D01*
X174250000Y-70850000D02*
X176250000Y-70850000D01*
X176250000Y-70850000D02*
X176250000Y-67850000D01*
X176250000Y-67850000D02*
X174250000Y-67850000D01*
D11*
X168950000Y-67100000D02*
X168950000Y-64300000D01*
X171750000Y-64300000D02*
X172450000Y-65000000D01*
X172450000Y-65000000D02*
X172450000Y-67100000D01*
X168950000Y-64300000D02*
X171750000Y-64300000D01*
X172450000Y-67100000D02*
X168950000Y-67100000D01*
X171300000Y-78400000D02*
X171300000Y-79400000D01*
X171300000Y-79400000D02*
X173300000Y-79400000D01*
X173300000Y-79400000D02*
X173300000Y-78400000D01*
X173300000Y-78400000D02*
X171300000Y-78400000D01*
X171100000Y-79400000D02*
X171100000Y-78400000D01*
X171100000Y-78400000D02*
X169100000Y-78400000D01*
X169100000Y-79400000D02*
X171100000Y-79400000D01*
X169100000Y-78400000D02*
X169100000Y-79400000D01*
X185100000Y-78470000D02*
X184600000Y-78470000D01*
X184600000Y-79470000D02*
X185100000Y-79470000D01*
X185100000Y-79470000D02*
X185100000Y-78470000D01*
X184600000Y-78470000D02*
X184600000Y-79470000D01*
X189085000Y-80110000D02*
X189085000Y-79610000D01*
X188085000Y-79610000D02*
X188085000Y-80110000D01*
X189085000Y-79610000D02*
X188085000Y-79610000D01*
X188085000Y-80110000D02*
X189085000Y-80110000D01*
X171100000Y-77700000D02*
X171100000Y-76700000D01*
X169100000Y-76700000D02*
X169100000Y-77700000D01*
X171100000Y-76700000D02*
X169100000Y-76700000D01*
X169100000Y-77700000D02*
X171100000Y-77700000D01*
X183800000Y-78445000D02*
X183800000Y-77845000D01*
X183800000Y-77845000D02*
X183500000Y-77845000D01*
X183500000Y-78445000D02*
X183800000Y-78445000D01*
X183500000Y-77845000D02*
X183500000Y-78445000D01*
X191130000Y-66545000D02*
X191130000Y-65545000D01*
X190630000Y-66545000D02*
X191130000Y-66545000D01*
X191130000Y-65545000D02*
X190630000Y-65545000D01*
X190630000Y-65545000D02*
X190630000Y-66545000D01*
X190200000Y-72200000D02*
X190200000Y-71600000D01*
X189900000Y-72200000D02*
X190200000Y-72200000D01*
X190200000Y-71600000D02*
X189900000Y-71600000D01*
X189900000Y-71600000D02*
X189900000Y-72200000D01*
X173810000Y-77420000D02*
X173810000Y-78420000D01*
X173810000Y-78420000D02*
X174310000Y-78420000D01*
X174310000Y-77420000D02*
X173810000Y-77420000D01*
X174310000Y-78420000D02*
X174310000Y-77420000D01*
X190042500Y-68420000D02*
X190042500Y-69220000D01*
X191642500Y-68420000D02*
X190042500Y-68420000D01*
X190042500Y-69220000D02*
X191642500Y-69220000D01*
X191642500Y-69220000D02*
X191642500Y-68420000D01*
X191580000Y-75140000D02*
X189980000Y-75140000D01*
X191580000Y-75940000D02*
X191580000Y-75140000D01*
X189980000Y-75940000D02*
X191580000Y-75940000D01*
X189980000Y-75140000D02*
X189980000Y-75940000D01*
D14*
X192160000Y-76370000D02*
X192160000Y-78870000D01*
X196860000Y-78870000D02*
X196860000Y-76370000D01*
X192160000Y-78870000D02*
X196860000Y-78870000D01*
X196860000Y-76370000D02*
X192160000Y-76370000D01*
X196900000Y-65125000D02*
X192200000Y-65125000D01*
X192200000Y-65125000D02*
X192200000Y-67625000D01*
X192200000Y-67625000D02*
X196900000Y-67625000D01*
X196900000Y-67625000D02*
X196900000Y-65125000D01*
D15*
X183530000Y-61800000D02*
X182930000Y-61800000D01*
X182930000Y-63200000D02*
X183530000Y-63200000D01*
X182930000Y-61800000D02*
X182930000Y-63200000D01*
X183530000Y-63200000D02*
X183530000Y-61800000D01*
D14*
X182955000Y-63325000D02*
G75*
G03*
X182955000Y-63325000I-25000J0D01*
G01*
D15*
X187270000Y-65560000D02*
X187270000Y-66960000D01*
X187870000Y-65560000D02*
X187270000Y-65560000D01*
X187870000Y-66960000D02*
X187870000Y-65560000D01*
X187270000Y-66960000D02*
X187870000Y-66960000D01*
D14*
X187895000Y-65435000D02*
G75*
G03*
X187895000Y-65435000I-25000J0D01*
G01*
D15*
X182070000Y-80800000D02*
X181470000Y-80800000D01*
X181470000Y-82200000D02*
X182070000Y-82200000D01*
X181470000Y-80800000D02*
X181470000Y-82200000D01*
X182070000Y-82200000D02*
X182070000Y-80800000D01*
D14*
X182095000Y-80675000D02*
G75*
G03*
X182095000Y-80675000I-25000J0D01*
G01*
D15*
X177730000Y-78440000D02*
X177730000Y-77040000D01*
X177730000Y-77040000D02*
X177130000Y-77040000D01*
X177130000Y-77040000D02*
X177130000Y-78440000D01*
X177130000Y-78440000D02*
X177730000Y-78440000D01*
D14*
X177155000Y-78565000D02*
G75*
G03*
X177155000Y-78565000I-25000J0D01*
G01*
D11*
X186280000Y-63550000D02*
X184280000Y-63550000D01*
X183280000Y-64550000D02*
X183280000Y-66550000D01*
X183280000Y-66550000D02*
X186280000Y-66550000D01*
X186280000Y-66550000D02*
X186280000Y-63550000D01*
X184280000Y-63550000D02*
X183280000Y-64550000D01*
X185320000Y-79350000D02*
X187320000Y-79350000D01*
X187320000Y-79350000D02*
X187320000Y-77350000D01*
X185320000Y-77850000D02*
X185320000Y-79350000D01*
X187320000Y-77350000D02*
X185820000Y-77350000D01*
X185820000Y-77350000D02*
X185320000Y-77850000D01*
X186296000Y-83545000D02*
X186296000Y-80245000D01*
X186296000Y-80245000D02*
X182996000Y-80245000D01*
X182996000Y-80245000D02*
X182996000Y-83545000D01*
X182996000Y-83545000D02*
X186296000Y-83545000D01*
X188550000Y-77400000D02*
X188550000Y-78900000D01*
X190550000Y-79400000D02*
X190550000Y-77400000D01*
X188550000Y-78900000D02*
X189050000Y-79400000D01*
X190550000Y-77400000D02*
X188550000Y-77400000D01*
X189050000Y-79400000D02*
X190550000Y-79400000D01*
X188370000Y-66280000D02*
X189870000Y-66280000D01*
X189870000Y-66280000D02*
X190370000Y-65780000D01*
X190370000Y-64280000D02*
X188370000Y-64280000D01*
X188370000Y-64280000D02*
X188370000Y-66280000D01*
X190370000Y-65780000D02*
X190370000Y-64280000D01*
X186894000Y-60435000D02*
X186894000Y-63735000D01*
X190194000Y-60435000D02*
X186894000Y-60435000D01*
X190194000Y-63735000D02*
X190194000Y-60435000D01*
X186894000Y-63735000D02*
X190194000Y-63735000D01*
X176630000Y-77720000D02*
X175130000Y-77720000D01*
X174630000Y-78220000D02*
X174630000Y-79720000D01*
X175130000Y-77720000D02*
X174630000Y-78220000D01*
X176630000Y-79720000D02*
X176630000Y-77720000D01*
X174630000Y-79720000D02*
X176630000Y-79720000D01*
X174806000Y-83565000D02*
X178106000Y-83565000D01*
X174806000Y-80265000D02*
X174806000Y-83565000D01*
X178106000Y-83565000D02*
X178106000Y-80265000D01*
X178106000Y-80265000D02*
X174806000Y-80265000D01*
X173300000Y-76700000D02*
X171300000Y-76700000D01*
X171300000Y-77700000D02*
X173300000Y-77700000D01*
X173300000Y-77700000D02*
X173300000Y-76700000D01*
X171300000Y-76700000D02*
X171300000Y-77700000D01*
X172585000Y-67777500D02*
X167585000Y-67777500D01*
X172585000Y-75277500D02*
X172585000Y-67777500D01*
X167585000Y-67777500D02*
X167585000Y-75277500D01*
X168285000Y-74777500D02*
X168285000Y-68277500D01*
X167585000Y-75277500D02*
X172585000Y-75277500D01*
X182650000Y-77300000D02*
X183650000Y-77300000D01*
X182650000Y-76800000D02*
X182650000Y-77300000D01*
X183650000Y-76800000D02*
X182650000Y-76800000D01*
X183650000Y-77300000D02*
X183650000Y-76800000D01*
X181720000Y-77450000D02*
X178720000Y-77450000D01*
X178720000Y-77450000D02*
X178720000Y-80450000D01*
X181720000Y-79450000D02*
X181720000Y-77450000D01*
X180720000Y-80450000D02*
X181720000Y-79450000D01*
X178720000Y-80450000D02*
X180720000Y-80450000D01*
X170375000Y-81200000D02*
G75*
G03*
X170375000Y-81200000I-500000J0D01*
G01*
X196950000Y-81600000D02*
X195350000Y-81600000D01*
X195350000Y-81600000D02*
X195350000Y-82400000D01*
X196950000Y-82400000D02*
X196950000Y-81600000D01*
X195350000Y-82400000D02*
X196950000Y-82400000D01*
X196950000Y-62750000D02*
X195350000Y-62750000D01*
X196950000Y-63550000D02*
X196950000Y-62750000D01*
X195350000Y-63550000D02*
X196950000Y-63550000D01*
X195350000Y-62750000D02*
X195350000Y-63550000D01*
X196952500Y-80450000D02*
X195352500Y-80450000D01*
X195352500Y-81250000D02*
X196952500Y-81250000D01*
X196952500Y-81250000D02*
X196952500Y-80450000D01*
X195352500Y-80450000D02*
X195352500Y-81250000D01*
X195350000Y-62400000D02*
X196950000Y-62400000D01*
X195350000Y-61600000D02*
X195350000Y-62400000D01*
X196950000Y-62400000D02*
X196950000Y-61600000D01*
X196950000Y-61600000D02*
X195350000Y-61600000D01*
X176925000Y-67975000D02*
X176925000Y-67375000D01*
X176625000Y-67975000D02*
X176925000Y-67975000D01*
X176625000Y-67375000D02*
X176625000Y-67975000D01*
X176925000Y-67375000D02*
X176625000Y-67375000D01*
X176275000Y-66825000D02*
X175675000Y-66825000D01*
X175675000Y-67125000D02*
X176275000Y-67125000D01*
X176275000Y-67125000D02*
X176275000Y-66825000D01*
X175675000Y-66825000D02*
X175675000Y-67125000D01*
X168700000Y-76950000D02*
X168400000Y-76950000D01*
X168400000Y-76950000D02*
X168400000Y-77550000D01*
X168400000Y-77550000D02*
X168700000Y-77550000D01*
X168700000Y-77550000D02*
X168700000Y-76950000D01*
X169160000Y-80780000D02*
X169160000Y-80480000D01*
X168560000Y-80780000D02*
X169160000Y-80780000D01*
X168560000Y-80480000D02*
X168560000Y-80780000D01*
X169160000Y-80480000D02*
X168560000Y-80480000D01*
X168450000Y-78900000D02*
X168450000Y-79500000D01*
X168450000Y-79500000D02*
X168750000Y-79500000D01*
X168750000Y-78900000D02*
X168450000Y-78900000D01*
X168750000Y-79500000D02*
X168750000Y-78900000D01*
X183830000Y-61510000D02*
X183830000Y-61210000D01*
X183230000Y-61210000D02*
X183230000Y-61510000D01*
X183830000Y-61210000D02*
X183230000Y-61210000D01*
X183230000Y-61510000D02*
X183830000Y-61510000D01*
X183820000Y-60910000D02*
X183820000Y-60610000D01*
X183220000Y-60910000D02*
X183820000Y-60910000D01*
X183220000Y-60610000D02*
X183220000Y-60910000D01*
X183820000Y-60610000D02*
X183220000Y-60610000D01*
X187220000Y-65310000D02*
X187820000Y-65310000D01*
X187220000Y-65010000D02*
X187220000Y-65310000D01*
X187820000Y-65310000D02*
X187820000Y-65010000D01*
X187820000Y-65010000D02*
X187220000Y-65010000D01*
X187220000Y-64710000D02*
X187820000Y-64710000D01*
X187820000Y-64710000D02*
X187820000Y-64410000D01*
X187220000Y-64410000D02*
X187220000Y-64710000D01*
X187820000Y-64410000D02*
X187220000Y-64410000D01*
X192760000Y-75190000D02*
X193060000Y-75190000D01*
X193060000Y-74590000D02*
X192760000Y-74590000D01*
X193060000Y-75190000D02*
X193060000Y-74590000D01*
X192760000Y-74590000D02*
X192760000Y-75190000D01*
X194475000Y-71700000D02*
X194775000Y-71700000D01*
X194475000Y-71100000D02*
X194475000Y-71700000D01*
X194775000Y-71700000D02*
X194775000Y-71100000D01*
X194775000Y-71100000D02*
X194475000Y-71100000D01*
X181770000Y-82790000D02*
X181770000Y-82490000D01*
X181170000Y-82490000D02*
X181170000Y-82790000D01*
X181770000Y-82490000D02*
X181170000Y-82490000D01*
X181170000Y-82790000D02*
X181770000Y-82790000D01*
X181770000Y-83390000D02*
X181770000Y-83090000D01*
X181170000Y-83390000D02*
X181770000Y-83390000D01*
X181770000Y-83090000D02*
X181170000Y-83090000D01*
X181170000Y-83090000D02*
X181170000Y-83390000D01*
X177740000Y-78990000D02*
X177740000Y-78690000D01*
X177140000Y-78990000D02*
X177740000Y-78990000D01*
X177140000Y-78690000D02*
X177140000Y-78990000D01*
X177740000Y-78690000D02*
X177140000Y-78690000D01*
X177750000Y-79290000D02*
X177150000Y-79290000D01*
X177150000Y-79590000D02*
X177750000Y-79590000D01*
X177150000Y-79290000D02*
X177150000Y-79590000D01*
X177750000Y-79590000D02*
X177750000Y-79290000D01*
X184200000Y-77105000D02*
X184200000Y-77705000D01*
X184500000Y-77705000D02*
X184500000Y-77105000D01*
X184500000Y-77105000D02*
X184200000Y-77105000D01*
X184200000Y-77705000D02*
X184500000Y-77705000D01*
X190100000Y-70990000D02*
X190100000Y-70390000D01*
X189800000Y-70990000D02*
X190100000Y-70990000D01*
X190100000Y-70390000D02*
X189800000Y-70390000D01*
X189800000Y-70390000D02*
X189800000Y-70990000D01*
X186230000Y-61130000D02*
X184230000Y-61130000D01*
X186230000Y-62130000D02*
X186230000Y-61130000D01*
X184230000Y-61130000D02*
X184230000Y-62130000D01*
X184230000Y-62130000D02*
X186230000Y-62130000D01*
X178770000Y-81870000D02*
X178770000Y-82870000D01*
X180770000Y-81870000D02*
X178770000Y-81870000D01*
X178770000Y-82870000D02*
X180770000Y-82870000D01*
X180770000Y-82870000D02*
X180770000Y-81870000D01*
X190900000Y-74360000D02*
X189700000Y-74360000D01*
X190500000Y-72760000D02*
X189700000Y-72760000D01*
X190900000Y-73160000D02*
X190900000Y-74360000D01*
X189700000Y-72760000D02*
X189700000Y-74360000D01*
X190500000Y-72760000D02*
X190900000Y-73160000D01*
X188790000Y-67740000D02*
X189090000Y-67740000D01*
X189090000Y-67140000D02*
X188790000Y-67140000D01*
X188790000Y-67140000D02*
X188790000Y-67740000D01*
X189090000Y-67740000D02*
X189090000Y-67140000D01*
X188780000Y-77010000D02*
X189080000Y-77010000D01*
X189080000Y-76410000D02*
X188780000Y-76410000D01*
X189080000Y-77010000D02*
X189080000Y-76410000D01*
X188780000Y-76410000D02*
X188780000Y-77010000D01*
X188480000Y-67140000D02*
X188180000Y-67140000D01*
X188480000Y-67740000D02*
X188480000Y-67140000D01*
X188180000Y-67140000D02*
X188180000Y-67740000D01*
X188180000Y-67740000D02*
X188480000Y-67740000D01*
X188180000Y-76410000D02*
X188180000Y-77010000D01*
X188480000Y-77010000D02*
X188480000Y-76410000D01*
X188180000Y-77010000D02*
X188480000Y-77010000D01*
X188480000Y-76410000D02*
X188180000Y-76410000D01*
X179990000Y-75680000D02*
X179690000Y-75680000D01*
X179690000Y-76280000D02*
X179990000Y-76280000D01*
X179990000Y-76280000D02*
X179990000Y-75680000D01*
X179690000Y-75680000D02*
X179690000Y-76280000D01*
X180600000Y-75830000D02*
X180300000Y-75830000D01*
X180300000Y-75830000D02*
X180300000Y-76430000D01*
X180300000Y-76430000D02*
X180600000Y-76430000D01*
X180600000Y-76430000D02*
X180600000Y-75830000D01*
X173150000Y-76250000D02*
X173150000Y-75350000D01*
X172400000Y-76000000D02*
X172400000Y-75600000D01*
X172700000Y-75800000D02*
X172850000Y-75800000D01*
X171850000Y-75350000D02*
X171850000Y-76250000D01*
X171850000Y-76250000D02*
X173150000Y-76250000D01*
X172700000Y-76000000D02*
X172700000Y-75600000D01*
X172700000Y-75800000D02*
X172400000Y-76000000D01*
X172400000Y-75600000D02*
X172700000Y-75800000D01*
X173150000Y-75350000D02*
X171850000Y-75350000D01*
X172400000Y-75800000D02*
X172250000Y-75800000D01*
X182250000Y-68100000D02*
X181250000Y-69100000D01*
X189250000Y-76100000D02*
X189250000Y-68100000D01*
X181250000Y-76100000D02*
X189250000Y-76100000D01*
X181250000Y-69100000D02*
X181250000Y-76100000D01*
X189250000Y-68100000D02*
X182250000Y-68100000D01*
X191750000Y-74510000D02*
X191750000Y-74810000D01*
X192350000Y-74510000D02*
X191750000Y-74510000D01*
X191750000Y-74810000D02*
X192350000Y-74810000D01*
X192350000Y-74810000D02*
X192350000Y-74510000D01*
D14*
X194050000Y-70775000D02*
X193750000Y-70475000D01*
X192550000Y-71975000D02*
X194050000Y-71975000D01*
X194050000Y-71975000D02*
X194050000Y-70475000D01*
X192550000Y-70475000D02*
X192550000Y-71975000D01*
X194050000Y-70475000D02*
X192550000Y-70475000D01*
D11*
X178325000Y-67525000D02*
X178325000Y-68225000D01*
X179425000Y-67175000D02*
X177625000Y-67175000D01*
X177625000Y-68575000D02*
X179425000Y-68575000D01*
X179425000Y-68575000D02*
X179425000Y-67175000D01*
X178325000Y-67875000D02*
X178075000Y-67875000D01*
X178325000Y-68225000D02*
X178825000Y-67875000D01*
X177625000Y-67175000D02*
X177625000Y-68575000D01*
X178825000Y-67875000D02*
X178325000Y-67525000D01*
X178825000Y-67525000D02*
X178825000Y-68225000D01*
X178825000Y-67875000D02*
X179025000Y-67875000D01*
X186914000Y-80275000D02*
X186914000Y-83575000D01*
X190214000Y-83575000D02*
X190214000Y-80275000D01*
X186914000Y-83575000D02*
X190214000Y-83575000D01*
X190214000Y-80275000D02*
X186914000Y-80275000D01*
X197650000Y-64175000D02*
G75*
G03*
X197650000Y-64175000I-500000J0D01*
G01*
M02*
